<?xml version="1.0" encoding="utf-8"?> <!-- Generator: IcoMoon.io --> <!DOCTYPE svg PUBLIC "-//W3C//DTD SVG 1.1//EN" "http://www.w3.org/Graphics/SVG/1.1/DTD/svg11.dtd"> <svg width="16.465002059936523" height="16.465002059936523" viewBox="0 0 16.465002059936523 16.465002059936523" xmlns="http://www.w3.org/2000/svg" xmlns:xlink="http://www.w3.org/1999/xlink" fill="#000000"><g><path d="M 3.197,3.197c-2.929,2.929-2.929,7.678,0,10.607c 2.929,2.929, 7.678,2.929, 10.607,0 c 2.929-2.929, 2.929-7.678,0-10.607C 10.874,0.268, 6.126,0.268, 3.197,3.197z M 12.218,5.49L 6.707,11l 3.036,0 c 0.276,0, 0.5,0.224, 0.5,0.5 c0,0.276-0.224,0.5-0.5,0.5L 5.5,12 c-0.065,0-0.13-0.013-0.191-0.039c-0.060-0.025-0.113-0.061-0.158-0.105 c-0.001-0.001-0.003-0.001-0.004-0.003c-0.002-0.002-0.002-0.004-0.004-0.006c-0.044-0.045-0.080-0.098-0.104-0.157 C 5.014,11.63, 5,11.566, 5,11.502c0-0.001,0-0.001,0-0.002L 5,7.257 c0-0.276, 0.224-0.5, 0.5-0.5S 6,6.981, 6,7.257l0,3.036 l 5.51-5.51 c 0.195-0.195, 0.512-0.195, 0.707,0S 12.413,5.294, 12.218,5.49z"></path></g></svg>