<?xml version="1.0" encoding="utf-8"?> <!-- Generator: IcoMoon.io --> <!DOCTYPE svg PUBLIC "-//W3C//DTD SVG 1.1//EN" "http://www.w3.org/Graphics/SVG/1.1/DTD/svg11.dtd"> <svg width="16" height="16" viewBox="0 0 16 16" xmlns="http://www.w3.org/2000/svg" xmlns:xlink="http://www.w3.org/1999/xlink" fill="#000000"><g><path d="M 15,0L 1,0 C 0.448,0,0,0.448,0,1l0,14 c0,0.552, 0.448,1, 1,1l 14,0 c 0.552,0, 1-0.448, 1-1L 16,1 C 16,0.448, 15.552,0, 15,0z M 7,9.5l0,4 C 7,13.776, 6.776,14, 6.5,14S 6,13.776, 6,13.5l0-2.793 l-3.146,3.146c-0.195,0.195-0.512,0.195-0.707,0 c-0.195-0.195-0.195-0.512,0-0.707L 5.293,10L 2.5,10 C 2.224,10, 2,9.776, 2,9.5C 2,9.224, 2.224,9, 2.5,9l 4,0 c 0.065,0, 0.13,0.013, 0.191,0.039 c 0.122,0.051, 0.22,0.148, 0.27,0.27C 6.987,9.37, 7,9.435, 7,9.5L 7,9.5z M 13.5,6C 13.776,6, 14,6.224, 14,6.5C 14,6.776, 13.776,7, 13.5,7l-4,0 C 9.435,7, 9.37,6.987, 9.309,6.961C 9.249,6.937, 9.196,6.901, 9.15,6.856C 9.149,6.855, 9.148,6.855, 9.146,6.854 C 9.145,6.852, 9.144,6.85, 9.143,6.848C 9.099,6.803, 9.063,6.75, 9.039,6.691C 9.014,6.63, 9,6.566, 9,6.502C 9,6.501, 9,6.501, 9,6.5l0-4 C 9,2.224, 9.224,2, 9.5,2S 10,2.224, 10,2.5l0,2.793 l 3.146-3.146c 0.195-0.195, 0.512-0.195, 0.707,0c 0.195,0.195, 0.195,0.512,0,0.707 L 10.707,6L 13.5,6 z"></path></g></svg>