<?xml version="1.0" encoding="utf-8"?> <!-- Generator: IcoMoon.io --> <!DOCTYPE svg PUBLIC "-//W3C//DTD SVG 1.1//EN" "http://www.w3.org/Graphics/SVG/1.1/DTD/svg11.dtd"> <svg width="16" height="16" viewBox="0 0 16 16" xmlns="http://www.w3.org/2000/svg" xmlns:xlink="http://www.w3.org/1999/xlink" fill="#000000"><g><path d="M 2.5,8C 2.224,8, 2,8.224, 2,8.5l0,5 c0,0.001,0,0.001,0,0.002c0,0.065, 0.013,0.129, 0.038,0.189 c 0.024,0.059, 0.060,0.112, 0.104,0.157c 0.002,0.002, 0.002,0.004, 0.004,0.006c 0.001,0.001, 0.003,0.001, 0.004,0.003 c 0.045,0.044, 0.099,0.081, 0.158,0.105C 2.37,13.987, 2.435,14, 2.5,14l 5,0 C 7.776,14, 8,13.776, 8,13.5C 8,13.224, 7.776,13, 7.5,13L 3.707,13 L 13,3.707L 13,7.5 C 13,7.776, 13.224,8, 13.5,8S 14,7.776, 14,7.5l0-5 l0,0c0-0.065-0.013-0.13-0.039-0.191c-0.051-0.122-0.148-0.22-0.27-0.27 C 13.63,2.013, 13.565,2, 13.5,2l-5,0 C 8.224,2, 8,2.224, 8,2.5C 8,2.776, 8.224,3, 8.5,3l 3.793,0 L 3,12.293L 3,8.5 C 3,8.224, 2.776,8, 2.5,8z"></path></g></svg>