<?xml version="1.0" encoding="utf-8"?> <!-- Generator: IcoMoon.io --> <!DOCTYPE svg PUBLIC "-//W3C//DTD SVG 1.1//EN" "http://www.w3.org/Graphics/SVG/1.1/DTD/svg11.dtd"> <svg width="16" height="16" viewBox="0 0 16 16" xmlns="http://www.w3.org/2000/svg" xmlns:xlink="http://www.w3.org/1999/xlink" fill="#000000"><g><path d="M 8.5,1C 4.358,1, 1,4.358, 1,8.5S 4.358,16, 8.5,16S 16,12.642, 16,8.5S 12.642,1, 8.5,1z M 8.5,15 C 4.916,15, 2,12.084, 2,8.5S 4.916,2, 8.5,2S 15,4.916, 15,8.5S 12.084,15, 8.5,15zM 9.826,5.118c-0.217-0.17-0.569-0.17-0.786,0L 5.163,8.18c-0.217,0.17-0.217,0.447,0,0.617 c 0.006,0.005, 0.014,0.006, 0.020,0.011l 3.857,3.055c 0.217,0.17, 0.569,0.17, 0.786,0c 0.002-0.001, 0.002-0.004, 0.004-0.005 C 9.935,11.778, 10,11.668, 10,11.545l0-6.11 C 10,5.31, 9.931,5.199, 9.824,5.12L 9.826,5.118z"></path></g></svg>