<?xml version="1.0" encoding="utf-8"?> <!-- Generator: IcoMoon.io --> <!DOCTYPE svg PUBLIC "-//W3C//DTD SVG 1.1//EN" "http://www.w3.org/Graphics/SVG/1.1/DTD/svg11.dtd"> <svg width="16" height="16" viewBox="0 0 16 16" xmlns="http://www.w3.org/2000/svg" xmlns:xlink="http://www.w3.org/1999/xlink" fill="#000000"><g><path d="M 8.5,14C 8.776,14, 9,13.776, 9,13.5L 9,3.707 l 2.146,2.146c 0.195,0.195, 0.512,0.195, 0.707,0 c 0.195-0.195, 0.195-0.512,0-0.707l-3-3C 8.807,2.1, 8.752,2.064, 8.691,2.039c-0.122-0.051-0.26-0.051-0.382,0 C 8.249,2.063, 8.196,2.099, 8.15,2.144C 8.149,2.145, 8.148,2.145, 8.146,2.146l-3,3c-0.195,0.195-0.195,0.512,0,0.707 c 0.195,0.195, 0.512,0.195, 0.707,0L 8,3.707L 8,13.5 C 8,13.776, 8.224,14, 8.5,14z"></path></g></svg>