<?xml version="1.0" encoding="utf-8"?> <!-- Generator: IcoMoon.io --> <!DOCTYPE svg PUBLIC "-//W3C//DTD SVG 1.1//EN" "http://www.w3.org/Graphics/SVG/1.1/DTD/svg11.dtd"> <svg width="16" height="16" viewBox="0 0 16 16" xmlns="http://www.w3.org/2000/svg" xmlns:xlink="http://www.w3.org/1999/xlink" fill="#000000"><g><path d="M 8.5,1C 4.358,1, 1,4.358, 1,8.5S 4.358,16, 8.5,16S 16,12.642, 16,8.5S 12.642,1, 8.5,1z M 8.5,15 C 4.916,15, 2,12.084, 2,8.5S 4.916,2, 8.5,2S 15,4.916, 15,8.5S 12.084,15, 8.5,15zM 8.8,6.163c-0.17-0.217-0.447-0.217-0.617,0c-0.005,0.006-0.006,0.014-0.011,0.020L 5.118,10.040 c-0.17,0.217-0.17,0.569,0,0.786c 0.001,0.002, 0.004,0.002, 0.005,0.004C 5.202,10.935, 5.312,11, 5.435,11l 6.11,0 c 0.125,0, 0.236-0.069, 0.315-0.176l 0.002,0.002c 0.17-0.217, 0.17-0.569,0-0.786L 8.8,6.163z"></path></g></svg>