<?xml version="1.0" encoding="utf-8"?> <!-- Generator: IcoMoon.io --> <!DOCTYPE svg PUBLIC "-//W3C//DTD SVG 1.1//EN" "http://www.w3.org/Graphics/SVG/1.1/DTD/svg11.dtd"> <svg width="16.465002059936523" height="16.465002059936523" viewBox="0 0 16.465002059936523 16.465002059936523" xmlns="http://www.w3.org/2000/svg" xmlns:xlink="http://www.w3.org/1999/xlink" fill="#000000"><g><path d="M 3.197,3.197c-2.929,2.929-2.929,7.678,0,10.607c 2.929,2.929, 7.678,2.929, 10.607,0 c 2.929-2.929, 2.929-7.678,0-10.607C 10.874,0.268, 6.126,0.268, 3.197,3.197z M 12,11.5c0,0.001,0,0.001,0,0.002 c0,0.065-0.013,0.129-0.038,0.189c-0.051,0.122-0.148,0.22-0.27,0.27C 11.63,11.987, 11.565,12, 11.5,12L 7.257,12 c-0.276,0-0.5-0.224-0.5-0.5c0-0.276, 0.224-0.5, 0.5-0.5l 3.036,0 l-5.51-5.51c-0.195-0.195-0.195-0.512,0-0.707s 0.512-0.195, 0.707,0 l 5.51,5.51L 11,7.257 c0-0.276, 0.224-0.5, 0.5-0.5s 0.5,0.224, 0.5,0.5L 12,11.5 z"></path></g></svg>