<?xml version="1.0" encoding="utf-8"?> <!-- Generator: IcoMoon.io --> <!DOCTYPE svg PUBLIC "-//W3C//DTD SVG 1.1//EN" "http://www.w3.org/Graphics/SVG/1.1/DTD/svg11.dtd"> <svg width="16" height="16" viewBox="0 0 16 16" xmlns="http://www.w3.org/2000/svg" xmlns:xlink="http://www.w3.org/1999/xlink" fill="#000000"><g><path d="M 8.5,1C 4.358,1, 1,4.358, 1,8.5S 4.358,16, 8.5,16S 16,12.642, 16,8.5S 12.642,1, 8.5,1z M 11.854,9.854l-3,3 c-0.046,0.046-0.101,0.083-0.162,0.108c-0.122,0.051-0.26,0.051-0.382,0c-0.060-0.025-0.113-0.061-0.158-0.105 c-0.001-0.001-0.003-0.001-0.004-0.003l-3-3c-0.195-0.195-0.195-0.512,0-0.707c 0.195-0.195, 0.512-0.195, 0.707,0L 8,11.293L 8,3.5 C 8,3.224, 8.224,3, 8.5,3S 9,3.224, 9,3.5l0,7.793 l 2.146-2.146c 0.195-0.195, 0.512-0.195, 0.707,0C 12.049,9.342, 12.049,9.658, 11.854,9.854z "></path></g></svg>