<?xml version="1.0" encoding="utf-8"?> <!-- Generator: IcoMoon.io --> <!DOCTYPE svg PUBLIC "-//W3C//DTD SVG 1.1//EN" "http://www.w3.org/Graphics/SVG/1.1/DTD/svg11.dtd"> <svg width="16" height="16" viewBox="0 0 16 16" xmlns="http://www.w3.org/2000/svg" xmlns:xlink="http://www.w3.org/1999/xlink" fill="#000000"><g><path d="M 8.5,1C 4.358,1, 1,4.358, 1,8.5S 4.358,16, 8.5,16S 16,12.642, 16,8.5S 12.642,1, 8.5,1z M 10,11.545 c0,0.123-0.065,0.233-0.169,0.312c-0.002,0.002-0.002,0.004-0.004,0.005c-0.217,0.17-0.569,0.17-0.786,0L 5.183,8.808 c-0.006-0.005-0.014-0.006-0.020-0.011c-0.217-0.17-0.217-0.447,0-0.617L 9.040,5.118c 0.217-0.17, 0.569-0.17, 0.786,0L 9.824,5.12 C 9.931,5.199, 10,5.31, 10,5.435L 10,11.545 z"></path></g></svg>