<?xml version="1.0" encoding="utf-8"?> <!-- Generator: IcoMoon.io --> <!DOCTYPE svg PUBLIC "-//W3C//DTD SVG 1.1//EN" "http://www.w3.org/Graphics/SVG/1.1/DTD/svg11.dtd"> <svg width="16" height="16" viewBox="0 0 16 16" xmlns="http://www.w3.org/2000/svg" xmlns:xlink="http://www.w3.org/1999/xlink" fill="#000000"><g><path d="M 11.478,8.682l-2.996,2.65l-2.996-2.65c-0.196-0.196-0.515-0.196-0.711,0c-0.196,0.196-0.196,0.515,0,0.711 l 3.345,2.959c 0.1,0.1, 0.231,0.148, 0.362,0.146c 0.131,0.002, 0.263-0.046, 0.362-0.146l 3.345-2.959c 0.196-0.196, 0.196-0.515,0-0.711 S 11.674,8.486, 11.478,8.682zM 11.478,5.096l-2.996,2.65l-2.996-2.65C 5.289,4.9, 4.97,4.9, 4.774,5.096c-0.196,0.196-0.196,0.515,0,0.711 l 3.345,2.959c 0.1,0.1, 0.231,0.148, 0.362,0.146c 0.131,0.002, 0.263-0.046, 0.362-0.146l 3.345-2.959c 0.196-0.196, 0.196-0.515,0-0.711 S 11.674,4.9, 11.478,5.096zM 8.536,1.072c-4.122,0-7.464,3.342-7.464,7.464S 4.414,16, 8.536,16S 16,12.658, 16,8.536 S 12.658,1.072, 8.536,1.072z M 8.536,15c-3.564,0-6.464-2.9-6.464-6.464s 2.9-6.464, 6.464-6.464S 15,4.972, 15,8.536S 12.1,15, 8.536,15z"></path></g></svg>