<?xml version="1.0" encoding="utf-8"?> <!-- Generator: IcoMoon.io --> <!DOCTYPE svg PUBLIC "-//W3C//DTD SVG 1.1//EN" "http://www.w3.org/Graphics/SVG/1.1/DTD/svg11.dtd"> <svg width="16" height="16" viewBox="0 0 16 16" xmlns="http://www.w3.org/2000/svg" xmlns:xlink="http://www.w3.org/1999/xlink" fill="#000000"><g><path d="M 11.726,7.106L 8.381,4.147c-0.1-0.1-0.231-0.148-0.362-0.146C 7.887,3.999, 7.756,4.047, 7.656,4.147 L 4.311,7.106c-0.196,0.196-0.196,0.515,0,0.711c 0.196,0.196, 0.515,0.196, 0.711,0l 2.996-2.651l 2.996,2.651 c 0.196,0.196, 0.515,0.196, 0.711,0C 11.923,7.621, 11.923,7.303, 11.726,7.106zM 8.381,7.733c-0.1-0.1-0.231-0.148-0.362-0.146C 7.887,7.585, 7.756,7.633, 7.656,7.733l-3.345,2.959 c-0.196,0.196-0.196,0.515,0,0.711c 0.196,0.196, 0.515,0.196, 0.711,0l 2.996-2.65l 2.996,2.65c 0.196,0.196, 0.515,0.196, 0.711,0 c 0.196-0.196, 0.196-0.515,0-0.711L 8.381,7.733z"></path></g></svg>