<?xml version="1.0" encoding="utf-8"?> <!-- Generator: IcoMoon.io --> <!DOCTYPE svg PUBLIC "-//W3C//DTD SVG 1.1//EN" "http://www.w3.org/Graphics/SVG/1.1/DTD/svg11.dtd"> <svg width="16" height="16" viewBox="0 0 16 16" xmlns="http://www.w3.org/2000/svg" xmlns:xlink="http://www.w3.org/1999/xlink" fill="#000000"><g><path d="M 2.146,7.854l 3,3c 0.195,0.195, 0.512,0.195, 0.707,0c 0.195-0.195, 0.195-0.512,0-0.707L 3.707,8L 11,8 c 2,0, 3,1.846, 3,3.5c0,0.276, 0.224,0.5, 0.5,0.5s 0.5-0.224, 0.5-0.5C 15,9.294, 14,7, 11,7L 3.707,7 l 2.146-2.146 c 0.195-0.195, 0.195-0.512,0-0.707c-0.195-0.195-0.512-0.195-0.707,0l-3,3C 1.951,7.342, 1.951,7.658, 2.146,7.854z"></path></g></svg>