<?xml version="1.0" encoding="utf-8"?> <!-- Generator: IcoMoon.io --> <!DOCTYPE svg PUBLIC "-//W3C//DTD SVG 1.1//EN" "http://www.w3.org/Graphics/SVG/1.1/DTD/svg11.dtd"> <svg width="16.465002059936523" height="16.465002059936523" viewBox="0 0 16.465002059936523 16.465002059936523" xmlns="http://www.w3.org/2000/svg" xmlns:xlink="http://www.w3.org/1999/xlink" fill="#000000"><g><path d="M 3.197,3.197c-2.929,2.929-2.929,7.678,0,10.607c 2.929,2.929, 7.678,2.929, 10.607,0 c 2.929-2.929, 2.929-7.678,0-10.607C 10.874,0.268, 6.126,0.268, 3.197,3.197z M 12.218,12.218c-0.195,0.195-0.512,0.195-0.707,0 L 6,6.707l0,3.036 c0,0.276-0.224,0.5-0.5,0.5S 5,10.019, 5,9.743L 5,5.5 l0,0c0-0.065, 0.013-0.13, 0.039-0.191 c 0.024-0.059, 0.060-0.112, 0.104-0.157c 0.002-0.002, 0.002-0.004, 0.004-0.006C 5.148,5.145, 5.149,5.145, 5.15,5.144 c 0.045-0.044, 0.099-0.081, 0.158-0.105C 5.37,5.013, 5.435,5, 5.5,5l 4.243,0 c 0.276,0, 0.5,0.224, 0.5,0.5c0,0.276-0.224,0.5-0.5,0.5L 6.707,6 l 5.51,5.51C 12.413,11.706, 12.413,12.022, 12.218,12.218z"></path></g></svg>