<?xml version="1.0" encoding="utf-8"?> <!-- Generator: IcoMoon.io --> <!DOCTYPE svg PUBLIC "-//W3C//DTD SVG 1.1//EN" "http://www.w3.org/Graphics/SVG/1.1/DTD/svg11.dtd"> <svg width="16" height="16" viewBox="0 0 16 16" xmlns="http://www.w3.org/2000/svg" xmlns:xlink="http://www.w3.org/1999/xlink" fill="#000000"><g><path d="M 2.146,13.854c 0.195,0.195, 0.512,0.195, 0.707,0L 13,3.707L 13,7.5 C 13,7.776, 13.224,8, 13.5,8S 14,7.776, 14,7.5l0-5 l0,0c0-0.065-0.013-0.13-0.039-0.191c-0.051-0.122-0.148-0.22-0.27-0.27C 13.63,2.013, 13.565,2, 13.5,2l-5,0 C 8.224,2, 8,2.224, 8,2.5 C 8,2.776, 8.224,3, 8.5,3l 3.793,0 L 2.146,13.146C 1.951,13.342, 1.951,13.658, 2.146,13.854z"></path></g></svg>