<?xml version="1.0" encoding="utf-8"?> <!-- Generator: IcoMoon.io --> <!DOCTYPE svg PUBLIC "-//W3C//DTD SVG 1.1//EN" "http://www.w3.org/Graphics/SVG/1.1/DTD/svg11.dtd"> <svg width="16" height="16" viewBox="0 0 16 16" xmlns="http://www.w3.org/2000/svg" xmlns:xlink="http://www.w3.org/1999/xlink" fill="#000000"><g><path d="M 10.978,8.182l-2.996,2.65l-2.996-2.65c-0.196-0.196-0.515-0.196-0.711,0c-0.196,0.196-0.196,0.515,0,0.711 l 3.345,2.959c 0.1,0.1, 0.231,0.148, 0.362,0.146C 8.113,12, 8.244,11.953, 8.344,11.853l 3.345-2.959c 0.196-0.196, 0.196-0.515,0-0.711 S 11.174,7.986, 10.978,8.182zM 11.689,4.596c-0.196-0.196-0.515-0.196-0.711,0l-2.996,2.65l-2.996-2.65C 4.789,4.4, 4.47,4.4, 4.274,4.596 c-0.196,0.196-0.196,0.515,0,0.711l 3.345,2.959c 0.1,0.1, 0.231,0.148, 0.362,0.146c 0.131,0.002, 0.263-0.046, 0.362-0.146l 3.345-2.959 C 11.886,5.111, 11.886,4.793, 11.689,4.596z"></path></g></svg>