<?xml version="1.0" encoding="utf-8"?> <!-- Generator: IcoMoon.io --> <!DOCTYPE svg PUBLIC "-//W3C//DTD SVG 1.1//EN" "http://www.w3.org/Graphics/SVG/1.1/DTD/svg11.dtd"> <svg width="16" height="16" viewBox="0 0 16 16" xmlns="http://www.w3.org/2000/svg" xmlns:xlink="http://www.w3.org/1999/xlink" fill="#000000"><g><path d="M 11.853,7.656L 8.894,4.311c-0.196-0.196-0.515-0.196-0.711,0s-0.196,0.515,0,0.711l 2.65,2.996l-2.65,2.996 c-0.196,0.196-0.196,0.515,0,0.711s 0.515,0.196, 0.711,0l 2.959-3.345c 0.1-0.1, 0.148-0.231, 0.146-0.362 C 12,7.887, 11.953,7.756, 11.853,7.656zM 4.596,11.726c 0.196,0.196, 0.515,0.196, 0.711,0l 2.959-3.345c 0.1-0.1, 0.148-0.231, 0.146-0.362 c 0.002-0.131-0.046-0.263-0.146-0.362L 5.308,4.311c-0.196-0.196-0.515-0.196-0.711,0s-0.196,0.515,0,0.711l 2.65,2.996l-2.65,2.996 C 4.4,11.211, 4.4,11.53, 4.596,11.726z"></path></g></svg>