<?xml version="1.0" encoding="utf-8"?> <!-- Generator: IcoMoon.io --> <!DOCTYPE svg PUBLIC "-//W3C//DTD SVG 1.1//EN" "http://www.w3.org/Graphics/SVG/1.1/DTD/svg11.dtd"> <svg width="16" height="16" viewBox="0 0 16 16" xmlns="http://www.w3.org/2000/svg" xmlns:xlink="http://www.w3.org/1999/xlink" fill="#000000"><g><path d="M 2.779,11.781c 0.195-0.195, 0.195-0.512,0-0.707L 1.705,10L 10.5,10 c 0.276,0, 0.5-0.224, 0.5-0.5 C 11,9.224, 10.776,9, 10.5,9L 1.705,9 l 1.147-1.147c 0.195-0.195, 0.195-0.512,0-0.707c-0.195-0.195-0.512-0.195-0.707,0L 0.146,9.145 C 0.048,9.243,0,9.371,0,9.5c0,0.129, 0.048,0.257, 0.146,0.355l 1.926,1.926C 2.268,11.977, 2.584,11.977, 2.779,11.781zM 15.854,6.155l-1.926-1.926c-0.195-0.195-0.512-0.195-0.707,0s-0.195,0.512,0,0.707l 1.074,1.074L 5.5,6.010 C 5.224,6.010, 5,6.234, 5,6.51s 0.224,0.5, 0.5,0.5l 8.795,0 l-1.147,1.147c-0.195,0.195-0.195,0.512,0,0.707 c 0.195,0.195, 0.512,0.195, 0.707,0l 1.999-1.999C 15.952,6.767, 16,6.639, 16,6.51C 16,6.381, 15.952,6.253, 15.854,6.155z"></path></g></svg>