<?xml version="1.0" encoding="utf-8"?> <!-- Generator: IcoMoon.io --> <!DOCTYPE svg PUBLIC "-//W3C//DTD SVG 1.1//EN" "http://www.w3.org/Graphics/SVG/1.1/DTD/svg11.dtd"> <svg width="16" height="16" viewBox="0 0 16 16" xmlns="http://www.w3.org/2000/svg" xmlns:xlink="http://www.w3.org/1999/xlink" fill="#000000"><g><path d="M 14.961,1.309c-0.051-0.122-0.148-0.22-0.27-0.27C 14.63,1.013, 14.565,1, 14.5,1l-4,0 C 10.224,1, 10,1.224, 10,1.5 C 10,1.776, 10.224,2, 10.5,2l 2.793,0 L 9.146,6.146c-0.195,0.195-0.195,0.512,0,0.707c 0.195,0.195, 0.512,0.195, 0.707,0L 14,2.707L 14,5.5 C 14,5.776, 14.224,6, 14.5,6S 15,5.776, 15,5.5l0-4 l0,0C 15,1.435, 14.987,1.37, 14.961,1.309zM 1.5,10C 1.224,10, 1,10.224, 1,10.5l0,4 c0,0.001,0,0.001,0,0.002c0,0.065, 0.013,0.129, 0.038,0.189 c 0.024,0.059, 0.060,0.112, 0.104,0.157c 0.002,0.002, 0.002,0.004, 0.004,0.006c 0.001,0.001, 0.003,0.001, 0.004,0.003 c 0.045,0.044, 0.099,0.081, 0.158,0.105C 1.37,14.987, 1.435,15, 1.5,15l 4,0 C 5.776,15, 6,14.776, 6,14.5C 6,14.224, 5.776,14, 5.5,14L 2.707,14 l 4.146-4.146c 0.195-0.195, 0.195-0.512,0-0.707c-0.195-0.195-0.512-0.195-0.707,0L 2,13.293L 2,10.5 C 2,10.224, 1.776,10, 1.5,10z"></path></g></svg>