<?xml version="1.0" encoding="utf-8"?> <!-- Generator: IcoMoon.io --> <!DOCTYPE svg PUBLIC "-//W3C//DTD SVG 1.1//EN" "http://www.w3.org/Graphics/SVG/1.1/DTD/svg11.dtd"> <svg width="16" height="16" viewBox="0 0 16 16" xmlns="http://www.w3.org/2000/svg" xmlns:xlink="http://www.w3.org/1999/xlink" fill="#000000"><g><path d="M 8.5,1C 4.358,1, 1,4.358, 1,8.5S 4.358,16, 8.5,16S 16,12.642, 16,8.5S 12.642,1, 8.5,1z M 12.226,11.904 c-0.196,0.196-0.515,0.196-0.711,0l-2.996-2.65l-2.996,2.65c-0.196,0.196-0.515,0.196-0.711,0c-0.196-0.196-0.196-0.515,0-0.711 l 3.345-2.959c 0.1-0.1, 0.231-0.148, 0.362-0.146C 8.65,8.085, 8.781,8.133, 8.881,8.233l 3.345,2.959 C 12.423,11.389, 12.423,11.707, 12.226,11.904z M 12.226,8.318c-0.196,0.196-0.515,0.196-0.711,0L 8.518,5.667L 5.522,8.318 c-0.196,0.196-0.515,0.196-0.711,0c-0.196-0.196-0.196-0.515,0-0.711l 3.345-2.959c 0.1-0.1, 0.231-0.148, 0.362-0.146 C 8.65,4.499, 8.781,4.547, 8.881,4.647l 3.345,2.959C 12.423,7.803, 12.423,8.121, 12.226,8.318z"></path></g></svg>