<?xml version="1.0" encoding="utf-8"?> <!-- Generator: IcoMoon.io --> <!DOCTYPE svg PUBLIC "-//W3C//DTD SVG 1.1//EN" "http://www.w3.org/Graphics/SVG/1.1/DTD/svg11.dtd"> <svg width="16" height="16" viewBox="0 0 16 16" xmlns="http://www.w3.org/2000/svg" xmlns:xlink="http://www.w3.org/1999/xlink" fill="#000000"><g><path d="M 15,0L 1,0 C 0.448,0,0,0.448,0,1l0,14 c0,0.552, 0.448,1, 1,1l 14,0 c 0.552,0, 1-0.448, 1-1L 16,1 C 16,0.448, 15.552,0, 15,0z M 6.5,13C 6.776,13, 7,13.224, 7,13.5C 7,13.776, 6.776,14, 6.5,14l-4,0 c-0.065,0-0.13-0.013-0.191-0.039 c-0.060-0.025-0.113-0.061-0.158-0.105c-0.001-0.001-0.003-0.001-0.004-0.003c-0.002-0.002-0.002-0.004-0.004-0.006 c-0.044-0.045-0.080-0.098-0.104-0.157C 2.014,13.63, 2,13.566, 2,13.502c0-0.001,0-0.001,0-0.002l0-4 C 2,9.224, 2.224,9, 2.5,9 S 3,9.224, 3,9.5l0,2.793 l 3.146-3.146c 0.195-0.195, 0.512-0.195, 0.707,0c 0.195,0.195, 0.195,0.512,0,0.707L 3.707,13L 6.5,13 z M 14,2.5l0,4 C 14,6.776, 13.776,7, 13.5,7S 13,6.776, 13,6.5L 13,3.707 L 9.854,6.854c-0.195,0.195-0.512,0.195-0.707,0c-0.195-0.195-0.195-0.512,0-0.707 L 12.293,3L 9.5,3 C 9.224,3, 9,2.776, 9,2.5C 9,2.224, 9.224,2, 9.5,2l 4,0 c 0.065,0, 0.13,0.013, 0.191,0.039c 0.122,0.051, 0.22,0.148, 0.27,0.27 C 13.987,2.37, 14,2.435, 14,2.5L 14,2.5z"></path></g></svg>