<?xml version="1.0" encoding="utf-8"?> <!-- Generator: IcoMoon.io --> <!DOCTYPE svg PUBLIC "-//W3C//DTD SVG 1.1//EN" "http://www.w3.org/Graphics/SVG/1.1/DTD/svg11.dtd"> <svg width="16" height="16" viewBox="0 0 16 16" xmlns="http://www.w3.org/2000/svg" xmlns:xlink="http://www.w3.org/1999/xlink" fill="#000000"><g><path d="M 2,7.5C 2,7.776, 2.224,8, 2.5,8l 9.793,0 l-2.146,2.146c-0.195,0.195-0.195,0.512,0,0.707 c 0.195,0.195, 0.512,0.195, 0.707,0l 3-3c 0.046-0.046, 0.083-0.101, 0.108-0.162C 13.986,7.63, 14,7.566, 14,7.502c0-0.001,0-0.001,0-0.002 l0,0c0-0.065-0.013-0.13-0.039-0.191c-0.025-0.061-0.062-0.116-0.108-0.162l-3-3c-0.195-0.195-0.512-0.195-0.707,0 c-0.195,0.195-0.195,0.512,0,0.707L 12.293,7L 2.5,7 C 2.224,7, 2,7.224, 2,7.5z"></path></g></svg>