<?xml version="1.0" encoding="utf-8"?> <!-- Generator: IcoMoon.io --> <!DOCTYPE svg PUBLIC "-//W3C//DTD SVG 1.1//EN" "http://www.w3.org/Graphics/SVG/1.1/DTD/svg11.dtd"> <svg width="16" height="16" viewBox="0 0 16 16" xmlns="http://www.w3.org/2000/svg" xmlns:xlink="http://www.w3.org/1999/xlink" fill="#000000"><g><path d="M 8.5,2C 8.224,2, 8,2.224, 8,2.5l0,9.793 l-2.146-2.146c-0.195-0.195-0.512-0.195-0.707,0 c-0.195,0.195-0.195,0.512,0,0.707l 3,3c 0.001,0.001, 0.003,0.001, 0.004,0.003c 0.045,0.044, 0.099,0.081, 0.158,0.105 c 0.122,0.051, 0.26,0.051, 0.382,0c 0.061-0.025, 0.116-0.062, 0.162-0.108l 3-3c 0.195-0.195, 0.195-0.512,0-0.707 c-0.195-0.195-0.512-0.195-0.707,0L 9,12.293L 9,2.5 C 9,2.224, 8.776,2, 8.5,2z"></path></g></svg>