<?xml version="1.0" encoding="utf-8"?> <!-- Generator: IcoMoon.io --> <!DOCTYPE svg PUBLIC "-//W3C//DTD SVG 1.1//EN" "http://www.w3.org/Graphics/SVG/1.1/DTD/svg11.dtd"> <svg width="16" height="16" viewBox="0 0 16 16" xmlns="http://www.w3.org/2000/svg" xmlns:xlink="http://www.w3.org/1999/xlink" fill="#000000"><g><path d="M 8.5,1C 4.358,1, 1,4.358, 1,8.5S 4.358,16, 8.5,16S 16,12.642, 16,8.5S 12.642,1, 8.5,1z M 8.5,15 C 4.916,15, 2,12.084, 2,8.5S 4.916,2, 8.5,2S 15,4.916, 15,8.5S 12.084,15, 8.5,15zM 11.867,7.169C 11.788,7.065, 11.678,7, 11.555,7l-6.11,0 C 5.32,7, 5.209,7.069, 5.13,7.176L 5.128,7.174 c-0.17,0.217-0.17,0.569,0,0.786l 3.062,3.877c 0.17,0.217, 0.447,0.217, 0.617,0c 0.005-0.006, 0.006-0.014, 0.011-0.020l 3.055-3.857 c 0.17-0.217, 0.17-0.569,0-0.786C 11.871,7.172, 11.869,7.171, 11.867,7.169z"></path></g></svg>