<?xml version="1.0" encoding="utf-8"?> <!-- Generator: IcoMoon.io --> <!DOCTYPE svg PUBLIC "-//W3C//DTD SVG 1.1//EN" "http://www.w3.org/Graphics/SVG/1.1/DTD/svg11.dtd"> <svg width="16" height="16" viewBox="0 0 16 16" xmlns="http://www.w3.org/2000/svg" xmlns:xlink="http://www.w3.org/1999/xlink" fill="#000000"><g><path d="M 8.5,1C 4.358,1, 1,4.358, 1,8.5S 4.358,16, 8.5,16S 16,12.642, 16,8.5S 12.642,1, 8.5,1z M 11.837,8.8L 7.96,11.862 c-0.217,0.17-0.569,0.17-0.786,0l 0.002-0.002C 7.069,11.781, 7,11.67, 7,11.545l0-6.11 c0-0.123, 0.065-0.233, 0.169-0.312 C 7.171,5.122, 7.172,5.12, 7.174,5.118c 0.217-0.17, 0.569-0.17, 0.786,0l 3.857,3.055c 0.006,0.005, 0.014,0.006, 0.020,0.011 C 12.054,8.354, 12.054,8.63, 11.837,8.8z"></path></g></svg>