<?xml version="1.0" encoding="utf-8"?> <!-- Generator: IcoMoon.io --> <!DOCTYPE svg PUBLIC "-//W3C//DTD SVG 1.1//EN" "http://www.w3.org/Graphics/SVG/1.1/DTD/svg11.dtd"> <svg width="16" height="16" viewBox="0 0 16 16" xmlns="http://www.w3.org/2000/svg" xmlns:xlink="http://www.w3.org/1999/xlink" fill="#000000"><g><path d="M 8.536,1.072c-4.122,0-7.464,3.342-7.464,7.464S 4.414,16, 8.536,16S 16,12.658, 16,8.536 S 12.658,1.072, 8.536,1.072z M 5.096,12.226c-0.196-0.196-0.196-0.515,0-0.711l 2.65-2.996l-2.65-2.996 C 4.9,5.326, 4.9,5.007, 5.096,4.811s 0.515-0.196, 0.711,0l 2.959,3.345c 0.1,0.1, 0.148,0.231, 0.146,0.362 C 8.915,8.65, 8.867,8.781, 8.767,8.881l-2.959,3.345C 5.611,12.423, 5.293,12.423, 5.096,12.226z M 12.353,8.881l-2.959,3.345 c-0.196,0.196-0.515,0.196-0.711,0s-0.196-0.515,0-0.711l 2.65-2.996l-2.65-2.996c-0.196-0.196-0.196-0.515,0-0.711 s 0.515-0.196, 0.711,0l 2.959,3.345c 0.1,0.1, 0.148,0.231, 0.146,0.362C 12.5,8.65, 12.453,8.781, 12.353,8.881z"></path></g></svg>