<?xml version="1.0" encoding="utf-8"?> <!-- Generator: IcoMoon.io --> <!DOCTYPE svg PUBLIC "-//W3C//DTD SVG 1.1//EN" "http://www.w3.org/Graphics/SVG/1.1/DTD/svg11.dtd"> <svg width="16" height="16" viewBox="0 0 16 16" xmlns="http://www.w3.org/2000/svg" xmlns:xlink="http://www.w3.org/1999/xlink" fill="#000000"><g><path d="M 8.881,4.647c-0.1-0.1-0.231-0.148-0.362-0.146C 8.387,4.499, 8.256,4.547, 8.156,4.647L 4.811,7.606 c-0.196,0.196-0.196,0.515,0,0.711c 0.196,0.196, 0.515,0.196, 0.711,0l 2.996-2.651l 2.996,2.651c 0.196,0.196, 0.515,0.196, 0.711,0 c 0.196-0.196, 0.196-0.515,0-0.711L 8.881,4.647zM 8.881,8.233c-0.1-0.1-0.231-0.148-0.362-0.146C 8.387,8.085, 8.256,8.133, 8.156,8.233l-3.345,2.959 c-0.196,0.196-0.196,0.515,0,0.711c 0.196,0.196, 0.515,0.196, 0.711,0l 2.996-2.65l 2.996,2.65c 0.196,0.196, 0.515,0.196, 0.711,0 c 0.196-0.196, 0.196-0.515,0-0.711L 8.881,8.233zM 8.536,1.072c-4.122,0-7.464,3.342-7.464,7.464S 4.414,16, 8.536,16S 16,12.658, 16,8.536 S 12.658,1.072, 8.536,1.072z M 8.536,15c-3.564,0-6.464-2.9-6.464-6.464s 2.9-6.464, 6.464-6.464S 15,4.972, 15,8.536S 12.1,15, 8.536,15z"></path></g></svg>