<?xml version="1.0" encoding="utf-8"?> <!-- Generator: IcoMoon.io --> <!DOCTYPE svg PUBLIC "-//W3C//DTD SVG 1.1//EN" "http://www.w3.org/Graphics/SVG/1.1/DTD/svg11.dtd"> <svg width="16" height="16" viewBox="0 0 16 16" xmlns="http://www.w3.org/2000/svg" xmlns:xlink="http://www.w3.org/1999/xlink" fill="#000000"><g><path d="M 8.533,1.067c-4.124,0-7.467,3.343-7.467,7.467S 4.41,16, 8.533,16S 16,12.657, 16,8.533 S 12.657,1.067, 8.533,1.067z M 12.189,9.394l-3.345,2.959c-0.1,0.1-0.231,0.148-0.362,0.146C 8.35,12.5, 8.219,12.453, 8.119,12.353 L 4.774,9.394c-0.196-0.196-0.196-0.515,0-0.711c 0.196-0.196, 0.515-0.196, 0.711,0l 2.996,2.65l 2.996-2.65 c 0.196-0.196, 0.515-0.196, 0.711,0S 12.386,9.197, 12.189,9.394z M 12.189,5.808L 8.844,8.767c-0.1,0.1-0.231,0.148-0.362,0.146 C 8.35,8.914, 8.219,8.867, 8.119,8.767L 4.774,5.808c-0.196-0.196-0.196-0.515,0-0.711C 4.97,4.9, 5.289,4.9, 5.485,5.096l 2.996,2.65 l 2.996-2.65c 0.196-0.196, 0.515-0.196, 0.711,0S 12.386,5.611, 12.189,5.808z"></path></g></svg>