<?xml version="1.0" encoding="utf-8"?> <!-- Generator: IcoMoon.io --> <!DOCTYPE svg PUBLIC "-//W3C//DTD SVG 1.1//EN" "http://www.w3.org/Graphics/SVG/1.1/DTD/svg11.dtd"> <svg width="16" height="16.024999618530273" viewBox="0 0 16 16.024999618530273" xmlns="http://www.w3.org/2000/svg" xmlns:xlink="http://www.w3.org/1999/xlink" fill="#000000"><g><path d="M 10.146,2.854c 0.195,0.195, 0.512,0.195, 0.707,0c 0.195-0.195, 0.195-0.512,0-0.707l-2-2 C 8.807,0.1, 8.752,0.064, 8.691,0.039c-0.122-0.051-0.26-0.051-0.382,0C 8.249,0.063, 8.196,0.099, 8.15,0.144 C 8.149,0.145, 8.148,0.145, 8.146,0.146l-2,2c-0.195,0.195-0.195,0.512,0,0.707c 0.195,0.195, 0.512,0.195, 0.707,0L 8,1.707l0,12.586 l-1.146-1.146c-0.195-0.195-0.512-0.195-0.707,0c-0.195,0.195-0.195,0.512,0,0.707l 2,2c 0.001,0.001, 0.003,0.001, 0.004,0.003 c 0.045,0.044, 0.099,0.081, 0.158,0.105c 0.122,0.051, 0.26,0.051, 0.382,0c 0.061-0.025, 0.116-0.062, 0.162-0.108l 2-2 c 0.195-0.195, 0.195-0.512,0-0.707c-0.195-0.195-0.512-0.195-0.707,0L 9,14.293L 9,1.707 L 10.146,2.854z"></path></g></svg>