<?xml version="1.0" encoding="utf-8"?> <!-- Generator: IcoMoon.io --> <!DOCTYPE svg PUBLIC "-//W3C//DTD SVG 1.1//EN" "http://www.w3.org/Graphics/SVG/1.1/DTD/svg11.dtd"> <svg width="16" height="16" viewBox="0 0 16 16" xmlns="http://www.w3.org/2000/svg" xmlns:xlink="http://www.w3.org/1999/xlink" fill="#000000"><g><path d="M 15.961,8.309c-0.025-0.061-0.062-0.116-0.108-0.162l-2-2c-0.195-0.195-0.512-0.195-0.707,0 c-0.195,0.195-0.195,0.512,0,0.707L 14.293,8L 1.707,8 l 1.146-1.146c 0.195-0.195, 0.195-0.512,0-0.707c-0.195-0.195-0.512-0.195-0.707,0 l-2,2C 0.145,8.148, 0.144,8.151, 0.143,8.152C 0.099,8.197, 0.063,8.25, 0.039,8.309C 0.013,8.37,0,8.435,0,8.5l0,0 c0,0.001,0,0.001,0,0.002C0,8.566, 0.014,8.63, 0.039,8.691c 0.024,0.059, 0.060,0.112, 0.104,0.157C 0.144,8.85, 0.145,8.852, 0.146,8.854 l 2,2c 0.195,0.195, 0.512,0.195, 0.707,0c 0.195-0.195, 0.195-0.512,0-0.707L 1.707,9l 12.586,0 l-1.146,1.146 c-0.195,0.195-0.195,0.512,0,0.707c 0.195,0.195, 0.512,0.195, 0.707,0l 2-2c 0.046-0.046, 0.083-0.101, 0.108-0.162 C 15.986,8.63, 16,8.566, 16,8.502c0-0.001,0-0.001,0-0.002l0,0C 16,8.435, 15.987,8.37, 15.961,8.309z"></path></g></svg>