<?xml version="1.0" encoding="utf-8"?> <!-- Generator: IcoMoon.io --> <!DOCTYPE svg PUBLIC "-//W3C//DTD SVG 1.1//EN" "http://www.w3.org/Graphics/SVG/1.1/DTD/svg11.dtd"> <svg width="16" height="16" viewBox="0 0 16 16" xmlns="http://www.w3.org/2000/svg" xmlns:xlink="http://www.w3.org/1999/xlink" fill="#000000"><g><path d="M 10.1,4.902c-0.195-0.195-0.512-0.195-0.707,0L 6.15,8.145C 6.052,8.243, 6.004,8.371, 6.004,8.5 c0,0.129, 0.048,0.257, 0.146,0.355l 3.243,3.243c 0.195,0.195, 0.512,0.195, 0.707,0c 0.195-0.195, 0.195-0.512,0-0.707L 7.209,8.5 L 10.1,5.609C 10.295,5.414, 10.295,5.097, 10.1,4.902zM 8.5,1C 4.358,1, 1,4.358, 1,8.5S 4.358,16, 8.5,16S 16,12.642, 16,8.5S 12.642,1, 8.5,1z M 8.5,15 C 4.916,15, 2,12.084, 2,8.5S 4.916,2, 8.5,2S 15,4.916, 15,8.5S 12.084,15, 8.5,15z"></path></g></svg>