<?xml version="1.0" encoding="utf-8"?> <!-- Generator: IcoMoon.io --> <!DOCTYPE svg PUBLIC "-//W3C//DTD SVG 1.1//EN" "http://www.w3.org/Graphics/SVG/1.1/DTD/svg11.dtd"> <svg width="16" height="16" viewBox="0 0 16 16" xmlns="http://www.w3.org/2000/svg" xmlns:xlink="http://www.w3.org/1999/xlink" fill="#000000"><g><path d="M 13.5,8C 13.224,8, 13,8.224, 13,8.5l0,3.793 L 2.854,2.146c-0.195-0.195-0.512-0.195-0.707,0 c-0.195,0.195-0.195,0.512,0,0.707L 12.293,13L 8.5,13 C 8.224,13, 8,13.224, 8,13.5C 8,13.776, 8.224,14, 8.5,14l 5,0 c 0.065,0, 0.13-0.013, 0.191-0.039c 0.122-0.051, 0.22-0.148, 0.27-0.27C 13.986,13.63, 14,13.566, 14,13.502c0-0.001,0-0.001,0-0.002l0-5 C 14,8.224, 13.776,8, 13.5,8z"></path></g></svg>