<?xml version="1.0" encoding="utf-8"?> <!-- Generator: IcoMoon.io --> <!DOCTYPE svg PUBLIC "-//W3C//DTD SVG 1.1//EN" "http://www.w3.org/Graphics/SVG/1.1/DTD/svg11.dtd"> <svg width="16" height="16" viewBox="0 0 16 16" xmlns="http://www.w3.org/2000/svg" xmlns:xlink="http://www.w3.org/1999/xlink" fill="#000000"><g><path d="M 10.85,8.145L 7.607,4.902c-0.195-0.195-0.512-0.195-0.707,0c-0.195,0.195-0.195,0.512,0,0.707L 9.791,8.5 L 6.9,11.391c-0.195,0.195-0.195,0.512,0,0.707c 0.195,0.195, 0.512,0.195, 0.707,0l 3.243-3.243c 0.098-0.098, 0.147-0.227, 0.146-0.355 C 10.996,8.371, 10.948,8.243, 10.85,8.145zM 8.536,1.072c-4.122,0-7.464,3.342-7.464,7.464S 4.414,16, 8.536,16S 16,12.658, 16,8.536 S 12.658,1.072, 8.536,1.072z M 8.536,15c-3.564,0-6.464-2.9-6.464-6.464s 2.9-6.464, 6.464-6.464S 15,4.972, 15,8.536S 12.1,15, 8.536,15z"></path></g></svg>