<?xml version="1.0" encoding="utf-8"?> <!-- Generator: IcoMoon.io --> <!DOCTYPE svg PUBLIC "-//W3C//DTD SVG 1.1//EN" "http://www.w3.org/Graphics/SVG/1.1/DTD/svg11.dtd"> <svg width="16" height="16" viewBox="0 0 16 16" xmlns="http://www.w3.org/2000/svg" xmlns:xlink="http://www.w3.org/1999/xlink" fill="#000000"><g><path d="M 12.353,8.156L 9.394,4.811c-0.196-0.196-0.515-0.196-0.711,0s-0.196,0.515,0,0.711l 2.65,2.996l-2.65,2.996 c-0.196,0.196-0.196,0.515,0,0.711s 0.515,0.196, 0.711,0l 2.959-3.345c 0.1-0.1, 0.148-0.231, 0.146-0.362 C 12.5,8.387, 12.453,8.256, 12.353,8.156zM 8.913,8.518c 0.002-0.131-0.046-0.263-0.146-0.362L 5.808,4.811c-0.196-0.196-0.515-0.196-0.711,0 s-0.196,0.515,0,0.711l 2.65,2.996l-2.65,2.996c-0.196,0.196-0.196,0.515,0,0.711s 0.515,0.196, 0.711,0l 2.959-3.345 C 8.867,8.781, 8.915,8.65, 8.913,8.518zM 8.5,1C 4.358,1, 1,4.358, 1,8.5S 4.358,16, 8.5,16S 16,12.642, 16,8.5S 12.642,1, 8.5,1z M 8.5,15 C 4.916,15, 2,12.084, 2,8.5S 4.916,2, 8.5,2S 15,4.916, 15,8.5S 12.084,15, 8.5,15z"></path></g></svg>