<?xml version="1.0" encoding="utf-8"?> <!-- Generator: IcoMoon.io --> <!DOCTYPE svg PUBLIC "-//W3C//DTD SVG 1.1//EN" "http://www.w3.org/Graphics/SVG/1.1/DTD/svg11.dtd"> <svg width="16" height="16" viewBox="0 0 16 16" xmlns="http://www.w3.org/2000/svg" xmlns:xlink="http://www.w3.org/1999/xlink" fill="#000000"><g><path d="M 2,7.5C 2,7.776, 2.224,8, 2.5,8S 3,7.776, 3,7.5L 3,3.707 l 10.146,10.146c 0.195,0.195, 0.512,0.195, 0.707,0 c 0.195-0.195, 0.195-0.512,0-0.707L 3.707,3L 7.5,3 C 7.776,3, 8,2.776, 8,2.5C 8,2.224, 7.776,2, 7.5,2l-5,0 C 2.435,2, 2.37,2.013, 2.309,2.039 C 2.249,2.063, 2.196,2.099, 2.15,2.144C 2.149,2.145, 2.148,2.145, 2.146,2.146C 2.145,2.148, 2.144,2.151, 2.143,2.152 C 2.099,2.197, 2.063,2.25, 2.039,2.309C 2.013,2.37, 2,2.435, 2,2.5l0,0L 2,7.5 z"></path></g></svg>