<?xml version="1.0" encoding="utf-8"?> <!-- Generator: IcoMoon.io --> <!DOCTYPE svg PUBLIC "-//W3C//DTD SVG 1.1//EN" "http://www.w3.org/Graphics/SVG/1.1/DTD/svg11.dtd"> <svg width="16" height="16" viewBox="0 0 16 16" xmlns="http://www.w3.org/2000/svg" xmlns:xlink="http://www.w3.org/1999/xlink" fill="#000000"><g><path d="M 8.5,1C 4.358,1, 1,4.358, 1,8.5S 4.358,16, 8.5,16S 16,12.642, 16,8.5S 12.642,1, 8.5,1z M 11.854,7.854 c-0.195,0.195-0.512,0.195-0.707,0L 9,5.707L 9,13.5 C 9,13.776, 8.776,14, 8.5,14S 8,13.776, 8,13.5L 8,5.707 L 5.854,7.854 c-0.195,0.195-0.512,0.195-0.707,0c-0.195-0.195-0.195-0.512,0-0.707l 3-3C 8.148,4.145, 8.149,4.145, 8.15,4.144 c 0.045-0.044, 0.099-0.081, 0.158-0.105c 0.122-0.051, 0.26-0.051, 0.382,0C 8.752,4.064, 8.807,4.1, 8.854,4.146l 3,3 C 12.049,7.342, 12.049,7.658, 11.854,7.854z"></path></g></svg>