<?xml version="1.0" encoding="utf-8"?> <!-- Generator: IcoMoon.io --> <!DOCTYPE svg PUBLIC "-//W3C//DTD SVG 1.1//EN" "http://www.w3.org/Graphics/SVG/1.1/DTD/svg11.dtd"> <svg width="16" height="16" viewBox="0 0 16 16" xmlns="http://www.w3.org/2000/svg" xmlns:xlink="http://www.w3.org/1999/xlink" fill="#000000"><g><path d="M 8.536,1.071c-4.122,0-7.464,3.342-7.464,7.464C 1.071,12.658, 4.413,16, 8.536,16 C 12.658,16, 16,12.658, 16,8.536C 16,4.413, 12.658,1.071, 8.536,1.071z M 8.318,12.189c-0.196,0.196-0.515,0.196-0.711,0L 4.647,8.844 c-0.1-0.1-0.148-0.232-0.146-0.363C 4.5,8.35, 4.547,8.219, 4.647,8.119l 2.959-3.345c 0.196-0.196, 0.515-0.196, 0.711,0 s 0.196,0.515,0,0.711l-2.65,2.996l 2.65,2.996C 8.514,11.674, 8.514,11.993, 8.318,12.189z M 11.904,11.478 c 0.196,0.196, 0.196,0.515,0,0.711s-0.515,0.196-0.711,0L 8.233,8.844c-0.1-0.1-0.148-0.232-0.146-0.363 C 8.086,8.35, 8.133,8.219, 8.233,8.119l 2.959-3.345c 0.196-0.196, 0.515-0.196, 0.711,0s 0.196,0.515,0,0.711l-2.65,2.996L 11.904,11.478z "></path></g></svg>