<?xml version="1.0" encoding="utf-8"?> <!-- Generator: IcoMoon.io --> <!DOCTYPE svg PUBLIC "-//W3C//DTD SVG 1.1//EN" "http://www.w3.org/Graphics/SVG/1.1/DTD/svg11.dtd"> <svg width="16" height="16" viewBox="0 0 16 16" xmlns="http://www.w3.org/2000/svg" xmlns:xlink="http://www.w3.org/1999/xlink" fill="#000000"><g><path d="M 4.147,8.344l 2.959,3.345c 0.196,0.196, 0.515,0.196, 0.711,0s 0.196-0.515,0-0.711l-2.65-2.996l 2.65-2.996 c 0.196-0.196, 0.196-0.515,0-0.711s-0.515-0.196-0.711,0L 4.147,7.619C 4.047,7.719, 4,7.85, 4.001,7.981 C 4,8.112, 4.047,8.244, 4.147,8.344zM 11.404,4.274c-0.196-0.196-0.515-0.196-0.711,0L 7.733,7.619c-0.1,0.1-0.148,0.231-0.146,0.362 C 7.586,8.112, 7.633,8.244, 7.733,8.344l 2.959,3.345c 0.196,0.196, 0.515,0.196, 0.711,0s 0.196-0.515,0-0.711l-2.65-2.996l 2.65-2.996 C 11.6,4.789, 11.6,4.47, 11.404,4.274z"></path></g></svg>