<?xml version="1.0" encoding="utf-8"?> <!-- Generator: IcoMoon.io --> <!DOCTYPE svg PUBLIC "-//W3C//DTD SVG 1.1//EN" "http://www.w3.org/Graphics/SVG/1.1/DTD/svg11.dtd"> <svg width="16" height="16" viewBox="0 0 16 16" xmlns="http://www.w3.org/2000/svg" xmlns:xlink="http://www.w3.org/1999/xlink" fill="#000000"><g><path d="M 14.854,1.146c-0.195-0.195-0.512-0.195-0.707,0L 10,5.293L 10,2.5 C 10,2.224, 9.776,2, 9.5,2S 9,2.224, 9,2.5l0,4 c0,0.001,0,0.001,0,0.002C 9,6.566, 9.014,6.63, 9.039,6.691c 0.024,0.059, 0.060,0.112, 0.104,0.157C 9.144,6.85, 9.145,6.852, 9.146,6.854 C 9.148,6.855, 9.149,6.855, 9.15,6.856c 0.045,0.044, 0.099,0.081, 0.158,0.105C 9.37,6.987, 9.435,7, 9.5,7l 4,0 C 13.776,7, 14,6.776, 14,6.5 C 14,6.224, 13.776,6, 13.5,6l-2.793,0 l 4.146-4.146C 15.049,1.658, 15.049,1.342, 14.854,1.146zM 1.146,14.854c 0.195,0.195, 0.512,0.195, 0.707,0L 6,10.707L 6,13.5 C 6,13.776, 6.224,14, 6.5,14S 7,13.776, 7,13.5l0-4 l0,0c0-0.065-0.013-0.13-0.039-0.191c-0.051-0.122-0.148-0.22-0.27-0.27C 6.63,9.013, 6.565,9, 6.5,9l-4,0 C 2.224,9, 2,9.224, 2,9.5 C 2,9.776, 2.224,10, 2.5,10l 2.793,0 l-4.146,4.146C 0.951,14.342, 0.951,14.658, 1.146,14.854z"></path></g></svg>