<?xml version="1.0" encoding="utf-8"?> <!-- Generator: IcoMoon.io --> <!DOCTYPE svg PUBLIC "-//W3C//DTD SVG 1.1//EN" "http://www.w3.org/Graphics/SVG/1.1/DTD/svg11.dtd"> <svg width="16" height="16" viewBox="0 0 16 16" xmlns="http://www.w3.org/2000/svg" xmlns:xlink="http://www.w3.org/1999/xlink" fill="#000000"><g><path d="M 2,7.502C 2,7.566, 2.014,7.63, 2.039,7.691c 0.024,0.059, 0.060,0.112, 0.104,0.157 C 2.144,7.85, 2.145,7.852, 2.146,7.854l 3,3c 0.195,0.195, 0.512,0.195, 0.707,0c 0.195-0.195, 0.195-0.512,0-0.707L 3.707,8L 13.5,8 C 13.776,8, 14,7.776, 14,7.5C 14,7.224, 13.776,7, 13.5,7L 3.707,7 l 2.146-2.146c 0.195-0.195, 0.195-0.512,0-0.707 c-0.195-0.195-0.512-0.195-0.707,0l-3,3C 2.145,7.148, 2.144,7.151, 2.143,7.152C 2.099,7.197, 2.063,7.25, 2.039,7.309 C 2.013,7.37, 2,7.435, 2,7.5l0,0C 2,7.501, 2,7.501, 2,7.502z"></path></g></svg>