<?xml version="1.0" encoding="utf-8"?> <!-- Generator: IcoMoon.io --> <!DOCTYPE svg PUBLIC "-//W3C//DTD SVG 1.1//EN" "http://www.w3.org/Graphics/SVG/1.1/DTD/svg11.dtd"> <svg width="16" height="16" viewBox="0 0 16 16" xmlns="http://www.w3.org/2000/svg" xmlns:xlink="http://www.w3.org/1999/xlink" fill="#000000"><g><path d="M 8.5,1C 4.358,1, 1,4.358, 1,8.5S 4.358,16, 8.5,16S 16,12.642, 16,8.5S 12.642,1, 8.5,1z M 8.5,15 C 4.916,15, 2,12.084, 2,8.5S 4.916,2, 8.5,2S 15,4.916, 15,8.5S 12.084,15, 8.5,15zM 11.817,8.173L 7.96,5.118c-0.217-0.17-0.569-0.17-0.786,0C 7.172,5.12, 7.171,5.122, 7.169,5.123 C 7.065,5.202, 7,5.312, 7,5.435l0,6.11 c0,0.125, 0.069,0.236, 0.176,0.315l-0.002,0.002c 0.217,0.17, 0.569,0.17, 0.786,0L 11.837,8.8 c 0.217-0.17, 0.217-0.447,0-0.617C 11.831,8.178, 11.823,8.177, 11.817,8.173z"></path></g></svg>