<?xml version="1.0" encoding="utf-8"?> <!-- Generator: IcoMoon.io --> <!DOCTYPE svg PUBLIC "-//W3C//DTD SVG 1.1//EN" "http://www.w3.org/Graphics/SVG/1.1/DTD/svg11.dtd"> <svg width="16" height="16" viewBox="0 0 16 16" xmlns="http://www.w3.org/2000/svg" xmlns:xlink="http://www.w3.org/1999/xlink" fill="#000000"><g><path d="M 8.5,1C 4.358,1, 1,4.358, 1,8.5S 4.358,16, 8.5,16S 16,12.642, 16,8.5S 12.642,1, 8.5,1z M 11.862,9.826 l-0.002-0.002C 11.781,9.931, 11.67,10, 11.545,10l-6.11,0 c-0.123,0-0.233-0.065-0.312-0.169C 5.122,9.829, 5.12,9.828, 5.118,9.826 c-0.17-0.217-0.17-0.569,0-0.786l 3.055-3.857c 0.004-0.006, 0.006-0.014, 0.011-0.020c 0.17-0.217, 0.447-0.217, 0.617,0l 3.062,3.877 C 12.033,9.257, 12.033,9.609, 11.862,9.826z"></path></g></svg>