<?xml version="1.0" encoding="utf-8"?> <!-- Generator: IcoMoon.io --> <!DOCTYPE svg PUBLIC "-//W3C//DTD SVG 1.1//EN" "http://www.w3.org/Graphics/SVG/1.1/DTD/svg11.dtd"> <svg width="16.465002059936523" height="16.465002059936523" viewBox="0 0 16.465002059936523 16.465002059936523" xmlns="http://www.w3.org/2000/svg" xmlns:xlink="http://www.w3.org/1999/xlink" fill="#000000"><g><path d="M 3.197,3.197c-2.929,2.929-2.929,7.678,0,10.607c 2.929,2.929, 7.678,2.929, 10.607,0 c 2.929-2.929, 2.929-7.678,0-10.607C 10.874,0.268, 6.126,0.268, 3.197,3.197z M 12,5.5l0,4.243 c0,0.276-0.224,0.5-0.5,0.5 s-0.5-0.224-0.5-0.5L 11,6.707 l-5.51,5.51c-0.195,0.195-0.512,0.195-0.707,0c-0.195-0.195-0.195-0.512,0-0.707L 10.293,6L 7.257,6 c-0.276,0-0.5-0.224-0.5-0.5c0-0.276, 0.224-0.5, 0.5-0.5L 11.5,5 c 0.065,0, 0.13,0.013, 0.191,0.039c 0.122,0.051, 0.22,0.148, 0.27,0.27 C 11.987,5.37, 12,5.435, 12,5.5L 12,5.5z"></path></g></svg>