<?xml version="1.0" encoding="utf-8"?> <!-- Generator: IcoMoon.io --> <!DOCTYPE svg PUBLIC "-//W3C//DTD SVG 1.1//EN" "http://www.w3.org/Graphics/SVG/1.1/DTD/svg11.dtd"> <svg width="16" height="16" viewBox="0 0 16 16" xmlns="http://www.w3.org/2000/svg" xmlns:xlink="http://www.w3.org/1999/xlink" fill="#000000"><g><path d="M 15.961,8.309c-0.025-0.061-0.062-0.116-0.108-0.162l-2-2c-0.195-0.195-0.512-0.195-0.707,0 c-0.195,0.195-0.195,0.512,0,0.707L 14.293,8L 9,8 L 9,2.707 l 1.146,1.146c 0.195,0.195, 0.512,0.195, 0.707,0c 0.195-0.195, 0.195-0.512,0-0.707 l-2-2C 8.852,1.145, 8.849,1.144, 8.848,1.143C 8.803,1.099, 8.75,1.063, 8.691,1.039C 8.63,1.013, 8.565,1, 8.5,1C 8.499,1, 8.499,1, 8.498,1 C 8.434,1, 8.37,1.014, 8.309,1.039C 8.25,1.063, 8.197,1.099, 8.152,1.143C 8.15,1.144, 8.148,1.145, 8.146,1.146l-2,2 c-0.195,0.195-0.195,0.512,0,0.707c 0.195,0.195, 0.512,0.195, 0.707,0L 8,2.707L 8,8 L 2.707,8 l 1.146-1.146c 0.195-0.195, 0.195-0.512,0-0.707 c-0.195-0.195-0.512-0.195-0.707,0l-2,2C 1.145,8.148, 1.144,8.151, 1.143,8.152C 1.099,8.197, 1.063,8.25, 1.039,8.309 C 1.013,8.37, 1,8.435, 1,8.5c0,0.001,0,0.001,0,0.002C 1,8.566, 1.014,8.63, 1.039,8.691c 0.024,0.059, 0.060,0.112, 0.104,0.157 C 1.144,8.85, 1.145,8.852, 1.146,8.854l 2,2c 0.195,0.195, 0.512,0.195, 0.707,0c 0.195-0.195, 0.195-0.512,0-0.707L 2.707,9L 8,9 l0,5.293 l-1.146-1.146c-0.195-0.195-0.512-0.195-0.707,0c-0.195,0.195-0.195,0.512,0,0.707l 2,2c 0.046,0.046, 0.101,0.083, 0.162,0.108 C 8.37,15.986, 8.434,16, 8.498,16c 0.001,0, 0.001,0, 0.002,0c 0.065,0, 0.13-0.013, 0.191-0.039c 0.061-0.025, 0.116-0.062, 0.162-0.108l 2-2 c 0.195-0.195, 0.195-0.512,0-0.707c-0.195-0.195-0.512-0.195-0.707,0L 9,14.293L 9,9 l 5.293,0 l-1.146,1.146 c-0.195,0.195-0.195,0.512,0,0.707c 0.195,0.195, 0.512,0.195, 0.707,0l 2-2c 0.046-0.046, 0.083-0.101, 0.108-0.162 C 15.986,8.63, 16,8.566, 16,8.502c0-0.001,0-0.001,0-0.002C 16,8.435, 15.987,8.37, 15.961,8.309z"></path></g></svg>