<?xml version="1.0" encoding="utf-8"?> <!-- Generator: IcoMoon.io --> <!DOCTYPE svg PUBLIC "-//W3C//DTD SVG 1.1//EN" "http://www.w3.org/Graphics/SVG/1.1/DTD/svg11.dtd"> <svg width="16" height="16" viewBox="0 0 16 16" xmlns="http://www.w3.org/2000/svg" xmlns:xlink="http://www.w3.org/1999/xlink" fill="#000000"><g><path d="M 8.5,1C 4.358,1, 1,4.358, 1,8.5S 4.358,16, 8.5,16S 16,12.642, 16,8.5S 12.642,1, 8.5,1z M 13,8.5 c0,0.001,0,0.001,0,0.002c0,0.065-0.013,0.129-0.038,0.189c-0.025,0.061-0.062,0.116-0.108,0.162l-3,3 c-0.195,0.195-0.512,0.195-0.707,0c-0.195-0.195-0.195-0.512,0-0.707L 11.293,9L 3.5,9 C 3.224,9, 3,8.776, 3,8.5C 3,8.224, 3.224,8, 3.5,8 l 7.793,0 L 9.146,5.854c-0.195-0.195-0.195-0.512,0-0.707c 0.195-0.195, 0.512-0.195, 0.707,0l 3,3c 0.046,0.046, 0.083,0.101, 0.108,0.162 C 12.987,8.37, 13,8.435, 13,8.5L 13,8.5z"></path></g></svg>