<?xml version="1.0" encoding="utf-8"?> <!-- Generator: IcoMoon.io --> <!DOCTYPE svg PUBLIC "-//W3C//DTD SVG 1.1//EN" "http://www.w3.org/Graphics/SVG/1.1/DTD/svg11.dtd"> <svg width="16" height="16" viewBox="0 0 16 16" xmlns="http://www.w3.org/2000/svg" xmlns:xlink="http://www.w3.org/1999/xlink" fill="#000000"><g><path d="M 8.5,1C 4.358,1, 1,4.358, 1,8.5S 4.358,16, 8.5,16S 16,12.642, 16,8.5S 12.642,1, 8.5,1z M 12.098,7.607L 8.855,10.85 c-0.098,0.098-0.227,0.147-0.355,0.146c-0.129,0-0.257-0.048-0.355-0.146L 4.902,7.607c-0.195-0.195-0.195-0.512,0-0.707 c 0.195-0.195, 0.512-0.195, 0.707,0L 8.5,9.791L 11.391,6.9c 0.195-0.195, 0.512-0.195, 0.707,0C 12.293,7.095, 12.293,7.412, 12.098,7.607z"></path></g></svg>