<?xml version="1.0" encoding="utf-8"?> <!-- Generator: IcoMoon.io --> <!DOCTYPE svg PUBLIC "-//W3C//DTD SVG 1.1//EN" "http://www.w3.org/Graphics/SVG/1.1/DTD/svg11.dtd"> <svg width="16" height="16" viewBox="0 0 16 16" xmlns="http://www.w3.org/2000/svg" xmlns:xlink="http://www.w3.org/1999/xlink" fill="#000000"><g><path d="M 8.5,1C 4.358,1, 1,4.358, 1,8.5S 4.358,16, 8.5,16S 16,12.642, 16,8.5S 12.642,1, 8.5,1z M 14,8.5 C 14,8.776, 13.776,9, 13.5,9L 5.707,9 l 2.146,2.146c 0.195,0.195, 0.195,0.512,0,0.707c-0.195,0.195-0.512,0.195-0.707,0l-3-3 C 4.145,8.852, 4.144,8.85, 4.143,8.848C 4.099,8.803, 4.063,8.75, 4.039,8.691C 4.014,8.63, 4,8.566, 4,8.502C 4,8.501, 4,8.501, 4,8.5l0,0 c0-0.065, 0.013-0.13, 0.039-0.191c 0.024-0.059, 0.060-0.112, 0.104-0.157c 0.002-0.002, 0.002-0.004, 0.004-0.006l 3-3 c 0.195-0.195, 0.512-0.195, 0.707,0c 0.195,0.195, 0.195,0.512,0,0.707L 5.707,8L 13.5,8 C 13.776,8, 14,8.224, 14,8.5z"></path></g></svg>