<?xml version="1.0" encoding="utf-8"?> <!-- Generator: IcoMoon.io --> <!DOCTYPE svg PUBLIC "-//W3C//DTD SVG 1.1//EN" "http://www.w3.org/Graphics/SVG/1.1/DTD/svg11.dtd"> <svg width="16" height="16" viewBox="0 0 16 16" xmlns="http://www.w3.org/2000/svg" xmlns:xlink="http://www.w3.org/1999/xlink" fill="#000000"><g><path d="M 2,7.5C 2,7.776, 2.224,8, 2.5,8S 3,7.776, 3,7.5L 3,3.707 L 12.293,13L 8.5,13 C 8.224,13, 8,13.224, 8,13.5 C 8,13.776, 8.224,14, 8.5,14l 5,0 c 0.065,0, 0.13-0.013, 0.191-0.039c 0.122-0.051, 0.22-0.148, 0.27-0.27C 13.986,13.63, 14,13.566, 14,13.502 c0-0.001,0-0.001,0-0.002l0-5 C 14,8.224, 13.776,8, 13.5,8S 13,8.224, 13,8.5l0,3.793 L 3.707,3L 7.5,3 C 7.776,3, 8,2.776, 8,2.5 C 8,2.224, 7.776,2, 7.5,2l-5,0 C 2.435,2, 2.37,2.013, 2.309,2.039C 2.249,2.063, 2.196,2.099, 2.15,2.144 C 2.149,2.145, 2.148,2.145, 2.146,2.146C 2.145,2.148, 2.144,2.151, 2.143,2.152C 2.099,2.197, 2.063,2.25, 2.039,2.309 C 2.013,2.37, 2,2.435, 2,2.5l0,0L 2,7.5 z"></path></g></svg>