<?xml version="1.0" encoding="utf-8"?> <!-- Generator: IcoMoon.io --> <!DOCTYPE svg PUBLIC "-//W3C//DTD SVG 1.1//EN" "http://www.w3.org/Graphics/SVG/1.1/DTD/svg11.dtd"> <svg width="16" height="16" viewBox="0 0 16 16" xmlns="http://www.w3.org/2000/svg" xmlns:xlink="http://www.w3.org/1999/xlink" fill="#000000"><g><path d="M 8.5,16c 4.142,0, 7.5-3.358, 7.5-7.5S 12.642,1, 8.5,1S 1,4.358, 1,8.5S 4.358,16, 8.5,16z M 4.902,9.393L 8.145,6.15 C 8.243,6.052, 8.371,6.004, 8.5,6.004c 0.129,0, 0.257,0.048, 0.355,0.146l 3.243,3.243c 0.195,0.195, 0.195,0.512,0,0.707 c-0.195,0.195-0.512,0.195-0.707,0L 8.5,7.209L 5.609,10.1c-0.195,0.195-0.512,0.195-0.707,0C 4.707,9.905, 4.707,9.588, 4.902,9.393z"></path></g></svg>