<?xml version="1.0" encoding="utf-8"?> <!-- Generator: IcoMoon.io --> <!DOCTYPE svg PUBLIC "-//W3C//DTD SVG 1.1//EN" "http://www.w3.org/Graphics/SVG/1.1/DTD/svg11.dtd"> <svg width="16" height="16" viewBox="0 0 16 16" xmlns="http://www.w3.org/2000/svg" xmlns:xlink="http://www.w3.org/1999/xlink" fill="#000000"><g><path d="M 6.894,12.794c 0.020,0.016, 0.032,0.038, 0.053,0.053c 0.030,0.020, 0.064,0.024, 0.096,0.038 c 0.038,0.018, 0.075,0.035, 0.115,0.046c 0.039,0.010, 0.077,0.015, 0.117,0.018c 0.057,0.006, 0.112,0.006, 0.168-0.002 c 0.023-0.004, 0.045-0.010, 0.068-0.016c 0.069-0.017, 0.133-0.044, 0.196-0.082c 0.011-0.007, 0.020-0.015, 0.031-0.022 c 0.041-0.028, 0.085-0.049, 0.12-0.087c 0.025-0.027, 0.036-0.062, 0.056-0.092c 0.001-0.001, 0.003-0.002, 0.003-0.003l 5.959-9.551 c 0.212-0.323, 0.121-0.757-0.203-0.969s-0.757-0.121-0.969,0.203l-5.504,8.821L 4.156,8.188C 3.872,7.925, 3.43,7.942, 3.167,8.226 C 2.905,8.51, 2.922,8.953, 3.206,9.215l 3.662,3.563C 6.875,12.785, 6.885,12.787, 6.894,12.794z"></path></g></svg>