<?xml version="1.0" encoding="utf-8"?> <!-- Generator: IcoMoon.io --> <!DOCTYPE svg PUBLIC "-//W3C//DTD SVG 1.1//EN" "http://www.w3.org/Graphics/SVG/1.1/DTD/svg11.dtd"> <svg width="16" height="16" viewBox="0 0 16 16" xmlns="http://www.w3.org/2000/svg" xmlns:xlink="http://www.w3.org/1999/xlink" fill="#000000"><g><path d="M 11.607,0.293C 11.419,0.105, 11.165,0, 10.899,0L 5.101,0 c-0.265,0-0.52,0.105-0.707,0.293l-4.1,4.101 C 0.105,4.581,0,4.835,0,5.101l0,5.799 c0,0.265, 0.105,0.52, 0.293,0.707l 4.1,4.101C 4.581,15.895, 4.835,16, 5.101,16l 5.799,0 c 0.265,0, 0.52-0.105, 0.707-0.293l 4.1-4.101C 15.895,11.419, 16,11.165, 16,10.899L 16,5.101 c0-0.265-0.105-0.52-0.293-0.707L 11.607,0.293z M 8,10c-0.552,0-1-0.448-1-1L 7,3 c0-0.552, 0.448-1, 1-1s 1,0.448, 1,1l0,6 C 9,9.552, 8.552,10, 8,10z M 9,13c0,0.552-0.448,1-1,1s-1-0.448-1-1 c0-0.552, 0.448-1, 1-1S 9,12.448, 9,13z"></path></g></svg>