<?xml version="1.0" encoding="utf-8"?> <!-- Generator: IcoMoon.io --> <!DOCTYPE svg PUBLIC "-//W3C//DTD SVG 1.1//EN" "http://www.w3.org/Graphics/SVG/1.1/DTD/svg11.dtd"> <svg width="16" height="16" viewBox="0 0 16 16" xmlns="http://www.w3.org/2000/svg" xmlns:xlink="http://www.w3.org/1999/xlink" fill="#000000"><g><path d="M 4.345,8.886C 4.132,9.128, 4.049,9.458, 4.121,9.772c 0.072,0.314, 0.292,0.574, 0.589,0.698 c 0.71,0.297, 1.917,0.485, 3.291,0.523C 8.001,10.995, 8,10.997, 8,11l0,3 c0,0.552, 0.224,2, 0.5,2S 9,14.552, 9,14l0-3 c0-0.003-0.001-0.005-0.001-0.008c 1.374-0.037, 2.581-0.226, 3.291-0.523c 0.297-0.124, 0.517-0.384, 0.589-0.698 c 0.072-0.314-0.011-0.644-0.224-0.885C 12.245,8.421, 11.529,8.164, 11,8.030l0-5.18 l0,0c 0.523-0.177, 0.967-0.399, 1.318-0.658 c 0.3-0.221, 0.452-0.592, 0.394-0.96s-0.316-0.674-0.67-0.793C 11.554,0.275, 10.444,0, 8.5,0C 6.445,0, 5.31,0.317, 4.917,0.453 c-0.349,0.121-0.603,0.425-0.66,0.79C 4.2,1.607, 4.349,1.974, 4.644,2.197C 5,2.464, 5.455,2.69, 5.999,2.868l 0.001,0L 6,8.030 C 5.472,8.163, 4.755,8.42, 4.345,8.886z M 6.311,1.918C 5.789,1.747, 5.45,1.552, 5.245,1.397C 5.777,1.213, 6.854,1, 8.5,1 c 1.614,0, 2.683,0.205, 3.225,0.387c-0.212,0.156-0.548,0.347-1.046,0.516L 10,2.133l0,6.675 l 0.754,0.191 c 0.553,0.14, 0.971,0.344, 1.15,0.548C 11.441,9.74, 10.316,10, 8.5,10S 5.559,9.74, 5.096,9.547c 0.18-0.204, 0.598-0.408, 1.15-0.548 L 7,8.808L 7,2.143 L 6.311,1.918z"></path></g></svg>