<?xml version="1.0" encoding="utf-8"?> <!-- Generator: IcoMoon.io --> <!DOCTYPE svg PUBLIC "-//W3C//DTD SVG 1.1//EN" "http://www.w3.org/Graphics/SVG/1.1/DTD/svg11.dtd"> <svg width="16.391000747680664" height="16.391000747680664" viewBox="0 0 16.391000747680664 16.391000747680664" xmlns="http://www.w3.org/2000/svg" xmlns:xlink="http://www.w3.org/1999/xlink" fill="#000000"><g><path d="M 3.254,3.254c-2.916,2.916-2.916,7.644,0,10.559s 7.644,2.916, 10.559,0c 2.916-2.916, 2.916-7.644,0-10.559 C 10.897,0.338, 6.169,0.338, 3.254,3.254z M 12.5,9L 8.52,9 C 8.513,9, 8.507,9.004, 8.5,9.004c-0.276,0-0.5-0.224-0.5-0.5L 8,3.5 C 8,3.224, 8.224,3, 8.5,3S 9,3.224, 9,3.5L 9,8 l 3.5,0 C 12.776,8, 13,8.224, 13,8.5C 13,8.776, 12.776,9, 12.5,9z"></path></g></svg>