<?xml version="1.0" encoding="utf-8"?> <!-- Generator: IcoMoon.io --> <!DOCTYPE svg PUBLIC "-//W3C//DTD SVG 1.1//EN" "http://www.w3.org/Graphics/SVG/1.1/DTD/svg11.dtd"> <svg width="16" height="16" viewBox="0 0 16 16" xmlns="http://www.w3.org/2000/svg" xmlns:xlink="http://www.w3.org/1999/xlink" fill="#000000"><g><path d="M 1.272,12.328c 0.24,0.373, 0.744,0.817, 1.784,0.817c 0.654,0, 1.491-0.191, 2.423-0.524 C 5.882,14.397, 6.623,16, 8,16c 1.4,0, 2.144-1.658, 2.542-3.471c 0.934,0.316, 1.774,0.498, 2.431,0.498c 1.1,0, 1.616-0.468, 1.856-0.86 c 0.776-1.272-0.435-2.887-1.897-4.222c 0.27-0.26, 0.524-0.52, 0.747-0.773c 1.264-1.439, 1.617-2.616, 1.049-3.5 c-0.24-0.373-0.744-0.817-1.784-0.817l0,0 c-0.654,0-1.491,0.191-2.423,0.524C 10.118,1.603, 9.377,0, 8,0C 6.6,0, 5.856,1.658, 5.458,3.471 C 4.524,3.154, 3.684,2.973, 3.027,2.973l0,0 c-1.1,0-1.617,0.468-1.856,0.86C 0.395,5.105, 1.606,6.72, 3.068,8.055 c-0.27,0.261-0.524,0.52-0.747,0.773C 1.057,10.267, 0.704,11.445, 1.272,12.328z M 8,15c-0.647,0-1.221-1.081-1.587-2.75 c 0.526-0.227, 1.070-0.492, 1.627-0.795c 0.534,0.274, 1.056,0.513, 1.562,0.721C 9.238,13.887, 8.657,15, 8,15z M 6,8 c0-0.367, 0.011-0.725, 0.026-1.077c 0.288-0.204, 0.583-0.406, 0.892-0.605C 7.273,6.090, 7.624,5.88, 7.972,5.68 c 0.353,0.192, 0.709,0.393, 1.069,0.612c 0.322,0.197, 0.631,0.398, 0.931,0.6C 9.989,7.254, 10,7.622, 10,8 c0,0.367-0.011,0.725-0.026,1.077C 9.686,9.281, 9.391,9.483, 9.082,9.682C 8.727,9.91, 8.376,10.12, 8.028,10.32 c-0.353-0.192-0.709-0.393-1.069-0.612c-0.322-0.197-0.631-0.398-0.931-0.6C 6.011,8.746, 6,8.378, 6,8z M 5.005,8.376 C 4.858,8.264, 4.714,8.152, 4.576,8.041C 4.714,7.924, 4.857,7.807, 5.003,7.69C 5.001,7.824, 5,7.937, 5,8 C 5,8.073, 5.002,8.211, 5.005,8.376z M 6.117,5.654C 6.146,5.37, 6.18,5.095, 6.219,4.829C 6.447,4.926, 6.68,5.033, 6.918,5.145 c-0.18,0.11-0.36,0.215-0.541,0.331C 6.287,5.535, 6.206,5.596, 6.117,5.654z M 9.015,5.12c 0.258-0.13, 0.51-0.251, 0.757-0.362 C 9.814,5.041, 9.85,5.336, 9.881,5.639c-0.139-0.089-0.256-0.162-0.318-0.2C 9.38,5.327, 9.197,5.226, 9.015,5.12z M 10.995,7.624 c 0.147,0.112, 0.291,0.224, 0.429,0.335c-0.138,0.117-0.281,0.233-0.428,0.351C 10.999,8.176, 11,8.063, 11,8 C 11,7.927, 10.998,7.789, 10.995,7.624z M 9.883,10.346c-0.029,0.284-0.062,0.56-0.101,0.825c-0.228-0.097-0.462-0.204-0.699-0.316 c 0.18-0.11, 0.36-0.215, 0.541-0.331C 9.713,10.465, 9.794,10.404, 9.883,10.346z M 6.437,10.561c 0.183,0.112, 0.365,0.213, 0.548,0.319 c-0.258,0.13-0.51,0.251-0.757,0.362c-0.042-0.282-0.078-0.577-0.109-0.881C 6.258,10.449, 6.375,10.523, 6.437,10.561z M 13.975,11.646c-0.158,0.258-0.508,0.381-1.002,0.381c-0.577,0-1.356-0.176-2.244-0.488c 0.106-0.686, 0.172-1.356, 0.211-1.928 c 0.447-0.33, 0.86-0.664, 1.251-1C 13.602,9.892, 14.336,11.055, 13.975,11.646z M 12.944,3.855c 0.458,0, 0.787,0.115, 0.943,0.358 c 0.375,0.583-0.333,1.764-1.715,3.079c-0.43-0.35-0.854-0.67-1.236-0.941c-0.041-0.59-0.109-1.278-0.222-1.981 C 11.601,4.041, 12.376,3.855, 12.944,3.855z M 8,1c 0.647,0, 1.221,1.081, 1.587,2.75c-0.526,0.227-1.070,0.492-1.627,0.795 C 7.425,4.271, 6.903,4.031, 6.398,3.824C 6.762,2.113, 7.343,1, 8,1z M 2.025,4.354c 0.158-0.258, 0.508-0.381, 1.002-0.381 c 0.577,0, 1.356,0.176, 2.244,0.488C 5.164,5.147, 5.099,5.816, 5.060,6.389c-0.447,0.33-0.86,0.664-1.251,1 C 2.398,6.108, 1.664,4.945, 2.025,4.354z M 5.063,9.648c 0.041,0.59, 0.109,1.278, 0.222,1.981c-0.886,0.329-1.661,0.515-2.229,0.515 c-0.458,0-0.787-0.115-0.943-0.358c-0.375-0.583, 0.333-1.764, 1.715-3.079C 4.257,9.057, 4.681,9.378, 5.063,9.648z"></path></g></svg>