<?xml version="1.0" encoding="utf-8"?> <!-- Generator: IcoMoon.io --> <!DOCTYPE svg PUBLIC "-//W3C//DTD SVG 1.1//EN" "http://www.w3.org/Graphics/SVG/1.1/DTD/svg11.dtd"> <svg width="16" height="16" viewBox="0 0 16 16" xmlns="http://www.w3.org/2000/svg" xmlns:xlink="http://www.w3.org/1999/xlink" fill="#000000"><g><path d="M 2,14l 1,0 l0,1 c0,0.552, 0.448,1, 1,1l 10,0 c 0.552,0, 1-0.448, 1-1L 15,3 c0-0.552-0.448-1-1-1l-1,0 L 13,1 c0-0.552-0.448-1-1-1L 2,0 C 1.448,0, 1,0.448, 1,1l0,12 C 1,13.552, 1.448,14, 2,14z M 12,13L 2,13 L 2,1 l 10,0 L 12,13 z M 14,3l0,12 L 4,15 l0-1 l 8,0 c 0.552,0, 1-0.448, 1-1L 13,3 L 14,3 zM 5,3.5C 5,3.776, 5.224,4, 5.5,4l 5,0 C 10.776,4, 11,3.776, 11,3.5C 11,3.224, 10.776,3, 10.5,3l-5,0 C 5.224,3, 5,3.224, 5,3.5zM 3.5,7l 7,0 C 10.776,7, 11,6.776, 11,6.5C 11,6.224, 10.776,6, 10.5,6l-7,0 C 3.224,6, 3,6.224, 3,6.5 C 3,6.776, 3.224,7, 3.5,7zM 3.5,9l 7,0 C 10.776,9, 11,8.776, 11,8.5C 11,8.224, 10.776,8, 10.5,8l-7,0 C 3.224,8, 3,8.224, 3,8.5 C 3,8.776, 3.224,9, 3.5,9zM 3.5,11l 7,0 c 0.276,0, 0.5-0.224, 0.5-0.5c0-0.276-0.224-0.5-0.5-0.5l-7,0 C 3.224,10, 3,10.224, 3,10.5 C 3,10.776, 3.224,11, 3.5,11z"></path></g></svg>