<?xml version="1.0" encoding="utf-8"?> <!-- Generator: IcoMoon.io --> <!DOCTYPE svg PUBLIC "-//W3C//DTD SVG 1.1//EN" "http://www.w3.org/Graphics/SVG/1.1/DTD/svg11.dtd"> <svg width="16" height="16" viewBox="0 0 16 16" xmlns="http://www.w3.org/2000/svg" xmlns:xlink="http://www.w3.org/1999/xlink" fill="#000000"><g><path d="M 15,10L 15,8 c0-4.596-3.521-7-7-7C 4.606,1, 1,3.453, 1,8l0,2 c-0.552,0-1,0.448-1,1l0,2 c0,0.552, 0.448,1, 1,1 c0,0.552, 0.448,1, 1,1s 1-0.448, 1-1l0-4 c0-0.552-0.448-1-1-1L 2,8 c0-3.939, 3.019-6, 6-6c 2.89,0, 6,1.877, 6,6l0,1 c-0.552,0-1,0.448-1,1l0,4 c0,0.552, 0.448,1, 1,1s 1-0.448, 1-1c 0.552,0, 1-0.448, 1-1l0-2 C 16,10.448, 15.552,10, 15,10z"></path></g></svg>