<?xml version="1.0" encoding="utf-8"?> <!-- Generator: IcoMoon.io --> <!DOCTYPE svg PUBLIC "-//W3C//DTD SVG 1.1//EN" "http://www.w3.org/Graphics/SVG/1.1/DTD/svg11.dtd"> <svg width="16" height="16" viewBox="0 0 16 16" xmlns="http://www.w3.org/2000/svg" xmlns:xlink="http://www.w3.org/1999/xlink" fill="#000000"><g><path d="M 6.887,13.014A1.030,1.030 720 1 0 8.947,13.014A1.030,1.030 720 1 0 6.887,13.014zM 9.732,9.126c 1.449-0.798, 2.185-1.955, 2.185-3.438c0-2.547-2.009-3.688-4-3.688c-1.939,0-4,1.409-4,4.021 c0,0.552, 0.447,1, 1,1s 1-0.448, 1-1c0-1.389, 1.037-2.021, 2-2.021c 0.747,0, 2,0.219, 2,1.688c0,0.521-0.137,1.129-1.149,1.687 C 8.080,7.752, 6.917,8.731, 6.917,10c0,0.552, 0.447,1, 1,1s 1-0.448, 1-1C 8.917,9.814, 9.312,9.357, 9.732,9.126z"></path></g></svg>