<?xml version="1.0" encoding="utf-8"?> <!-- Generator: IcoMoon.io --> <!DOCTYPE svg PUBLIC "-//W3C//DTD SVG 1.1//EN" "http://www.w3.org/Graphics/SVG/1.1/DTD/svg11.dtd"> <svg width="16" height="16" viewBox="0 0 16 16" xmlns="http://www.w3.org/2000/svg" xmlns:xlink="http://www.w3.org/1999/xlink" fill="#000000"><g><path d="M 13.5,3L 12,3 c0-0.552-0.448-1-1-1l-1,0 C 9.448,2, 9,2.448, 9,3L 2.5,3 C 2.224,3, 2,3.224, 2,3.5C 2,3.776, 2.224,4, 2.5,4L 9,4 c0,0.552, 0.448,1, 1,1l 1,0 c 0.552,0, 1-0.448, 1-1l 1.5,0 C 13.776,4, 14,3.776, 14,3.5C 14,3.224, 13.776,3, 13.5,3z M 11,4l-1,0 L 10,3 l 1,0 L 11,4 zM 13.5,7L 7,7 c0-0.552-0.448-1-1-1L 5,6 C 4.448,6, 4,6.448, 4,7L 2.5,7 C 2.224,7, 2,7.224, 2,7.5C 2,7.776, 2.224,8, 2.5,8L 4,8 c0,0.552, 0.448,1, 1,1l 1,0 c 0.552,0, 1-0.448, 1-1l 6.5,0 C 13.776,8, 14,7.776, 14,7.5C 14,7.224, 13.776,7, 13.5,7z M 6,8L 5,8 L 5,7 l 1,0 L 6,8 zM 13.5,11L 10,11 c0-0.552-0.448-1-1-1L 8,10 c-0.552,0-1,0.448-1,1L 2.5,11 C 2.224,11, 2,11.224, 2,11.5 C 2,11.776, 2.224,12, 2.5,12L 7,12 c0,0.552, 0.448,1, 1,1l 1,0 c 0.552,0, 1-0.448, 1-1l 3.5,0 c 0.276,0, 0.5-0.224, 0.5-0.5 C 14,11.224, 13.776,11, 13.5,11z M 9,12L 8,12 l0-1 l 1,0 L 9,12 z"></path></g></svg>