<?xml version="1.0" encoding="utf-8"?> <!-- Generator: IcoMoon.io --> <!DOCTYPE svg PUBLIC "-//W3C//DTD SVG 1.1//EN" "http://www.w3.org/Graphics/SVG/1.1/DTD/svg11.dtd"> <svg width="16.000999450683594" height="16" viewBox="0 0 16.000999450683594 16" xmlns="http://www.w3.org/2000/svg" xmlns:xlink="http://www.w3.org/1999/xlink" fill="#000000"><g><path d="M 1.031,16l 13.906,0 c 0.351,0, 0.677-0.184, 0.858-0.486c 0.181-0.301, 0.19-0.675, 0.025-0.985l-6.938-13 C 8.709,1.204, 8.37,1, 8.001,1L 8,1 C 7.631,1, 7.293,1.203, 7.119,1.528l-6.969,13c-0.166,0.31-0.157,0.684, 0.023,0.986 C 0.354,15.815, 0.68,16, 1.031,16z M 8,12c 0.552,0, 1,0.448, 1,1c0,0.552-0.448,1-1,1s-1-0.448-1-1C 7,12.448, 7.448,12, 8,12z M 7,10.016 l0-4 c0-0.552, 0.448-1, 1-1s 1,0.448, 1,1l0,4 c0,0.552-0.448,1-1,1S 7,10.568, 7,10.016z"></path></g></svg>