<?xml version="1.0" encoding="utf-8"?> <!-- Generator: IcoMoon.io --> <!DOCTYPE svg PUBLIC "-//W3C//DTD SVG 1.1//EN" "http://www.w3.org/Graphics/SVG/1.1/DTD/svg11.dtd"> <svg width="16" height="16" viewBox="0 0 16 16" xmlns="http://www.w3.org/2000/svg" xmlns:xlink="http://www.w3.org/1999/xlink" fill="#000000"><g><path d="M 5.5,8l 8,0 C 13.776,8, 14,7.776, 14,7.5C 14,7.224, 13.776,7, 13.5,7l-8,0 C 5.224,7, 5,7.224, 5,7.5 C 5,7.776, 5.224,8, 5.5,8zM 5.5,4l 8,0 C 13.776,4, 14,3.776, 14,3.5C 14,3.224, 13.776,3, 13.5,3l-8,0 C 5.224,3, 5,3.224, 5,3.5 C 5,3.776, 5.224,4, 5.5,4zM 5.5,12l 8,0 c 0.276,0, 0.5-0.224, 0.5-0.5c0-0.276-0.224-0.5-0.5-0.5l-8,0 C 5.224,11, 5,11.224, 5,11.5 C 5,11.776, 5.224,12, 5.5,12zM 2,3.5A0.5,0.5 720 1 0 3,3.5A0.5,0.5 720 1 0 2,3.5zM 2,7.5A0.5,0.5 720 1 0 3,7.5A0.5,0.5 720 1 0 2,7.5zM 2,11.5A0.5,0.5 720 1 0 3,11.5A0.5,0.5 720 1 0 2,11.5z"></path></g></svg>