<?xml version="1.0" encoding="utf-8"?> <!-- Generator: IcoMoon.io --> <!DOCTYPE svg PUBLIC "-//W3C//DTD SVG 1.1//EN" "http://www.w3.org/Graphics/SVG/1.1/DTD/svg11.dtd"> <svg width="16" height="16" viewBox="0 0 16 16" xmlns="http://www.w3.org/2000/svg" xmlns:xlink="http://www.w3.org/1999/xlink" fill="#000000"><g><path d="M 8,16c 2.579,0, 4.867-1.226, 6.33-3.121L 8,8L 8,0 C 3.582,0,0,3.582,0,8S 3.582,16, 8,16z M 7,1.071L 7,8 c0,0.31, 0.144,0.603, 0.389,0.792l 5.482,4.226C 11.572,14.288, 9.843,15, 8,15c-3.86,0-7-3.14-7-7C 1,4.48, 3.612,1.558, 7,1.071zM 9.375,0.134l0,7.155 l 5.712,4.403C 15.667,10.587, 16,9.334, 16,8C 16,4.052, 13.136,0.787, 9.375,0.134z"></path></g></svg>