<?xml version="1.0" encoding="utf-8"?> <!-- Generator: IcoMoon.io --> <!DOCTYPE svg PUBLIC "-//W3C//DTD SVG 1.1//EN" "http://www.w3.org/Graphics/SVG/1.1/DTD/svg11.dtd"> <svg width="16.118000030517578" height="16" viewBox="0 0 16.118000030517578 16" xmlns="http://www.w3.org/2000/svg" xmlns:xlink="http://www.w3.org/1999/xlink" fill="#000000"><g><path d="M 15.942,6.473c-0.118-0.362-0.431-0.626-0.807-0.681l-4.31-0.626L 8.897,1.261 C 8.728,0.919, 8.381,0.703, 8,0.703S 7.272,0.919, 7.103,1.261L 5.176,5.166l-4.31,0.626c-0.377,0.055-0.69,0.319-0.807,0.681 c-0.118,0.362-0.020,0.759, 0.253,1.025l 3.119,3.040l-0.736,4.293c-0.064,0.375, 0.090,0.754, 0.398,0.978C 3.266,15.936, 3.472,16, 3.68,16 c 0.159,0, 0.319-0.038, 0.465-0.115L 8,13.858l 3.855,2.027C 12.001,15.962, 12.161,16, 12.32,16c 0.207,0, 0.414-0.064, 0.588-0.191 c 0.308-0.224, 0.462-0.603, 0.398-0.978l-0.736-4.293l 3.119-3.040C 15.961,7.233, 16.059,6.835, 15.942,6.473z M 11.495,10.189L 12.32,15 L 8,12.729L 3.68,15l 0.825-4.811L 1.010,6.782L 5.84,6.080L 8,1.703l 2.16,4.377l 4.83,0.702L 11.495,10.189z"></path></g></svg>