<?xml version="1.0" encoding="utf-8"?> <!-- Generator: IcoMoon.io --> <!DOCTYPE svg PUBLIC "-//W3C//DTD SVG 1.1//EN" "http://www.w3.org/Graphics/SVG/1.1/DTD/svg11.dtd"> <svg width="16.03499984741211" height="16.790000915527344" viewBox="0 0 16.03499984741211 16.790000915527344" xmlns="http://www.w3.org/2000/svg" xmlns:xlink="http://www.w3.org/1999/xlink" fill="#000000"><g><path d="M 3.77,7.885c 0.639,0.639, 1.579,0.863, 2.434,0.608L 1.48,3.77C 1.326,3.616, 1.245,3.393, 1.245,3.127 c0-0.44, 0.23-1.002, 0.535-1.307c 0.4-0.4, 1.485-0.843, 1.99-0.341l 4.723,4.724c 0.069-0.231, 0.104-0.471, 0.104-0.711 c0-0.652-0.253-1.263-0.712-1.723L 4.682,0.567C 3.72-0.395, 1.808-0.034, 0.867,0.907C 0.321,1.453-0.018,2.299-0.018,3.115 c0,0.634, 0.208,1.191, 0.585,1.568L 3.77,7.885zM 12.23,8.115c-0.639-0.639-1.579-0.863-2.434-0.608l 4.724,4.724c 0.154,0.154, 0.235,0.376, 0.235,0.643 c0,0.44-0.23,1.002-0.535,1.307c-0.4,0.4-1.485,0.843-1.99,0.341L 7.507,9.797c-0.069,0.231-0.104,0.471-0.104,0.711 c0,0.652, 0.253,1.263, 0.712,1.723l 3.202,3.202c 0.962,0.962, 2.874,0.601, 3.815-0.34c 0.546-0.546, 0.885-1.392, 0.885-2.208 c0-0.634-0.208-1.191-0.585-1.568L 12.23,8.115zM 4.582,4.581C 4.454,4.708, 4.384,4.878, 4.384,5.058s 0.070,0.349, 0.197,0.476l 5.884,5.885 c 0.263,0.262, 0.69,0.262, 0.953,0c 0.128-0.127, 0.197-0.297, 0.197-0.477s-0.070-0.349-0.197-0.476L 5.534,4.581 C 5.272,4.319, 4.844,4.319, 4.582,4.581z"></path></g></svg>