<?xml version="1.0" encoding="utf-8"?> <!-- Generator: IcoMoon.io --> <!DOCTYPE svg PUBLIC "-//W3C//DTD SVG 1.1//EN" "http://www.w3.org/Graphics/SVG/1.1/DTD/svg11.dtd"> <svg width="16" height="16.61400032043457" viewBox="0 0 16 16.61400032043457" xmlns="http://www.w3.org/2000/svg" xmlns:xlink="http://www.w3.org/1999/xlink" fill="#000000"><g><path d="M 7,2.5C 7,1.162, 5.838,0, 4.5,0S 2,1.162, 2,2.5C 2,3.838, 3.162,5, 4.5,5S 7,3.838, 7,2.5zM 8.75,12c0-4-2.076-6-4.375-6S0,8,0,12C0,14.74, 8.75,14.74, 8.75,12zM 11.75,6.945c 1.338,0, 2.5-1.162, 2.5-2.5s-1.162-2.5-2.5-2.5s-2.5,1.162-2.5,2.5S 10.412,6.945, 11.75,6.945zM 11.625,7.945c-0.691,0-1.353,0.203-1.953,0.565c 0.363,0.976, 0.578,2.133, 0.578,3.49 c0,1.347-0.898,2.396-2.439,2.996C 9.722,16.614, 16,16.269, 16,13.945C 16,9.945, 13.924,7.945, 11.625,7.945z"></path></g></svg>