<?xml version="1.0" encoding="utf-8"?> <!-- Generator: IcoMoon.io --> <!DOCTYPE svg PUBLIC "-//W3C//DTD SVG 1.1//EN" "http://www.w3.org/Graphics/SVG/1.1/DTD/svg11.dtd"> <svg width="16" height="16" viewBox="0 0 16 16" xmlns="http://www.w3.org/2000/svg" xmlns:xlink="http://www.w3.org/1999/xlink" fill="#000000"><g><path d="M 15.941,2.812C 15.815,2.405, 15.449,2.104, 15,2.104l-1,0 l0,1 l0,0.552 c0,0.827-0.673,1.5-1.5,1.5S 11,4.483, 11,3.656 L 11,3.104 l0-1 L 4.995,2.104 l0,1 l0,0.552 c0,0.827-0.673,1.5-1.5,1.5c-0.827,0-1.5-0.673-1.5-1.5L 1.995,3.104 l0-1 L 1,2.104 c-0.449,0-0.815,0.301-0.941,0.708L0,2.812 l0,0.292 l0,3.115 L0,15 c0,0.552, 0.448,1, 1,1l 14,0 c 0.552,0, 1-0.448, 1-1L 16,6.219 L 16,3.104 L 16,2.812 L 15.941,2.812 z M 15,15L 1,15 L 1,7 l 14,0 L 15,15 zM 3.495,4.156c 0.276,0, 0.5-0.224, 0.5-0.5L 3.995,0.5 c0-0.276-0.224-0.5-0.5-0.5s-0.5,0.224-0.5,0.5l0,3.156 C 2.995,3.932, 3.219,4.156, 3.495,4.156zM 12.5,4.156c 0.276,0, 0.5-0.224, 0.5-0.5L 13,0.5 C 13,0.224, 12.776,0, 12.5,0S 12,0.224, 12,0.5l0,3.156 C 12,3.932, 12.224,4.156, 12.5,4.156z"></path></g></svg>