<?xml version="1.0" encoding="utf-8"?> <!-- Generator: IcoMoon.io --> <!DOCTYPE svg PUBLIC "-//W3C//DTD SVG 1.1//EN" "http://www.w3.org/Graphics/SVG/1.1/DTD/svg11.dtd"> <svg width="16" height="16" viewBox="0 0 16 16" xmlns="http://www.w3.org/2000/svg" xmlns:xlink="http://www.w3.org/1999/xlink" fill="#000000"><g><path d="M 15,2L 1,2 C 0.448,2,0,2.448,0,3l0,2 l 16,0 L 16,3 C 16,2.448, 15.552,2, 15,2zM 1,15c0,0.552, 0.448,1, 1,1l 12,0 c 0.552,0, 1-0.448, 1-1L 15,6 L 1,6 L 1,15 z M 6,8l 4,0 c 0.552,0, 1,0.448, 1,1c0,0.552-0.448,1-1,1 L 6,10 c-0.552,0-1-0.448-1-1C 5,8.448, 5.448,8, 6,8z"></path></g></svg>