<?xml version="1.0" encoding="utf-8"?> <!-- Generator: IcoMoon.io --> <!DOCTYPE svg PUBLIC "-//W3C//DTD SVG 1.1//EN" "http://www.w3.org/Graphics/SVG/1.1/DTD/svg11.dtd"> <svg width="16" height="16" viewBox="0 0 16 16" xmlns="http://www.w3.org/2000/svg" xmlns:xlink="http://www.w3.org/1999/xlink" fill="#000000"><g><path d="M 14,2c-0.281-0.625-0.791-1-1.344-1L 3.25,1 C 2.698,1, 2.25,1.375, 2,2l-2,8l0,0.016 l0,0.5 l0,0.5 l0,0.536 l0,0.016 l0,2.948 c0,0.276, 0.224,0.5, 0.5,0.5l 15,0 c 0.276,0, 0.5-0.224, 0.5-0.5L 16,11.52 l0-0.016 l0-0.488 l0-0.5 l0-0.454 l-0.013-0.046L 14,2z M 2.945,2.333 C 2.991,2.23, 3.108,2, 3.25,2l 9.406,0 c 0.137,0, 0.295,0.141, 0.406,0.356l 1.761,7.157c0,0.002-0.003,0-0.003,0.002 c0,0.276-0.224,0.5-0.5,0.5c-0.001,0-0.001,0.001-0.002,0.001L 13,10.016 l-2.5,0 c-0.276,0-0.5,0.224-0.5,0.5L 10,11.5 c0,0.276-0.224,0.5-0.5,0.5 c-0.010,0-0.020,0.013-0.030,0.016L 6.517,12.016 C 6.51,12.013, 6.51,12, 6.5,12C 6.224,12, 6,11.776, 6,11.5l0-0.984 c0-0.276-0.224-0.5-0.5-0.5L 2,10.016 L 1.682,10.016 c-0.001,0-0.001-0.001-0.002-0.001c-0.276,0-0.508-0.224-0.508-0.5c0-0.007-0.008-0.002-0.010-0.007L 2.945,2.333z"></path></g></svg>