<?xml version="1.0" encoding="utf-8"?> <!-- Generator: IcoMoon.io --> <!DOCTYPE svg PUBLIC "-//W3C//DTD SVG 1.1//EN" "http://www.w3.org/Graphics/SVG/1.1/DTD/svg11.dtd"> <svg width="16" height="16" viewBox="0 0 16 16" xmlns="http://www.w3.org/2000/svg" xmlns:xlink="http://www.w3.org/1999/xlink" fill="#000000"><g><path d="M 15,1L 2,1 C 1.448,1, 1,1.448, 1,2l0,13 c0,0.552, 0.448,1, 1,1l 13,0 c 0.552,0, 1-0.448, 1-1L 16,2 C 16,1.448, 15.552,1, 15,1z M 15,15L 2,15 L 2,2 l 13,0 L 15,15 zM 4.5,9l 8,0 C 12.776,9, 13,8.776, 13,8.5C 13,8.224, 12.776,8, 12.5,8l-8,0 C 4.224,8, 4,8.224, 4,8.5 C 4,8.776, 4.224,9, 4.5,9zM 4.5,6l 8,0 C 12.776,6, 13,5.776, 13,5.5C 13,5.224, 12.776,5, 12.5,5l-8,0 C 4.224,5, 4,5.224, 4,5.5 C 4,5.776, 4.224,6, 4.5,6zM 4.5,12l 8,0 c 0.276,0, 0.5-0.224, 0.5-0.5c0-0.276-0.224-0.5-0.5-0.5l-8,0 C 4.224,11, 4,11.224, 4,11.5 C 4,11.776, 4.224,12, 4.5,12z"></path></g></svg>