<?xml version="1.0" encoding="utf-8"?> <!-- Generator: IcoMoon.io --> <!DOCTYPE svg PUBLIC "-//W3C//DTD SVG 1.1//EN" "http://www.w3.org/Graphics/SVG/1.1/DTD/svg11.dtd"> <svg width="16.124000549316406" height="16.124000549316406" viewBox="0 0 16.124000549316406 16.124000549316406" xmlns="http://www.w3.org/2000/svg" xmlns:xlink="http://www.w3.org/1999/xlink" fill="#000000"><g><path d="M 10.586,10.586L 9.695,7.896L 4.555,2.756L 2.756,4.555L 7.896,9.695 zM 0.373,0.373c-0.497,0.497-0.497,1.302,0,1.799l 1.324,1.324l 1.799-1.799L 2.172,0.373 C 1.675-0.124, 0.87-0.124, 0.373,0.373zM 15,3L 7.911,3 l 1,1L 15,4 l0,11 L 4,15 L 4,8.911 l-1-1L 3,15 c0,0.552, 0.448,1, 1,1l 11,0 c 0.552,0, 1-0.448, 1-1L 16,4 C 16,3.448, 15.552,3, 15,3z"></path></g></svg>