<?xml version="1.0" encoding="utf-8"?> <!-- Generator: IcoMoon.io --> <!DOCTYPE svg PUBLIC "-//W3C//DTD SVG 1.1//EN" "http://www.w3.org/Graphics/SVG/1.1/DTD/svg11.dtd"> <svg width="16.066999435424805" height="16.066999435424805" viewBox="0 0 16.066999435424805 16.066999435424805" xmlns="http://www.w3.org/2000/svg" xmlns:xlink="http://www.w3.org/1999/xlink" fill="#000000"><g><path d="M 9.5,0C 5.91,0, 3,2.91, 3,6.5c0,1.545, 0.541,2.961, 1.441,4.077l-4.237,4.237 c-0.271,0.271-0.271,0.711,0,0.982c 0.271,0.271, 0.711,0.271, 0.982,0l 4.237-4.237C 6.539,12.459, 7.955,13, 9.5,13 c 3.59,0, 6.5-2.91, 6.5-6.5S 13.090,0, 9.5,0z M 9.5,12C 6.467,12, 4,9.533, 4,6.5S 6.467,1, 9.5,1S 15,3.467, 15,6.5S 12.533,12, 9.5,12zM 12.5,6l-6,0 C 6.224,6, 6,6.224, 6,6.5C 6,6.776, 6.224,7, 6.5,7l 6,0 C 12.776,7, 13,6.776, 13,6.5 C 13,6.224, 12.776,6, 12.5,6z"></path></g></svg>