<?xml version="1.0" encoding="utf-8"?> <!-- Generator: IcoMoon.io --> <!DOCTYPE svg PUBLIC "-//W3C//DTD SVG 1.1//EN" "http://www.w3.org/Graphics/SVG/1.1/DTD/svg11.dtd"> <svg width="16.059999465942383" height="16" viewBox="0 0 16.059999465942383 16" xmlns="http://www.w3.org/2000/svg" xmlns:xlink="http://www.w3.org/1999/xlink" fill="#000000"><g><path d="M 1,12.127l 2.291,0 c 0.181,0.18, 4.351,3.69, 4.351,3.69C 7.859,15.949, 8.048,16, 8.213,16 c 0.025,0, 0.050-0.001, 0.074-0.003c 0.37-0.035, 0.634-0.345, 0.713-0.672L 9,0.676 C 8.922,0.348, 8.657,0.038, 8.287,0.003 C 8.263,0.001, 8.239,0, 8.213,0C 8.048,0, 7.859,0.051, 7.642,0.182c0,0-4.17,3.638-4.351,3.818L 1,4 C 0.448,4,0,4.448,0,5l0,0.127 L0,11 l0,0.127 C0,11.68, 0.448,12.127, 1,12.127z M 1,11L 1,5.127 L 1,5 l 2.291,0 c 0.256,0, 0.512-0.107, 0.697-0.283C 4.17,4.544, 6.43,2.567, 8,1.197l0,13.615 c-1.56-1.314-3.82-3.223-4.004-3.393c-0.187-0.187-0.441-0.291-0.706-0.291L 1,11.128 L 1,11 zM 15.821,5.411c-0.238-0.238-0.625-0.238-0.863,0l-1.726,1.726l-1.726-1.726 c-0.238-0.238-0.625-0.238-0.863,0c-0.238,0.238-0.238,0.625,0,0.863L 12.369,8l-1.726,1.726c-0.238,0.238-0.238,0.625,0,0.863 c 0.238,0.238, 0.625,0.238, 0.863,0l 1.726-1.726l 1.726,1.726c 0.238,0.238, 0.625,0.238, 0.863,0c 0.238-0.238, 0.238-0.625,0-0.863 L 14.095,8l 1.726-1.726C 16.060,6.036, 16.060,5.649, 15.821,5.411z"></path></g></svg>