<?xml version="1.0" encoding="utf-8"?> <!-- Generator: IcoMoon.io --> <!DOCTYPE svg PUBLIC "-//W3C//DTD SVG 1.1//EN" "http://www.w3.org/Graphics/SVG/1.1/DTD/svg11.dtd"> <svg width="16" height="16" viewBox="0 0 16 16" xmlns="http://www.w3.org/2000/svg" xmlns:xlink="http://www.w3.org/1999/xlink" fill="#000000"><g><path d="M 14.529,1.005c-0.009,0-0.018,0-0.027,0c-0.008,0-0.015-0.001-0.023,0L 8.192,1.005 C 8.039,1.012, 7.691,1.251, 7.646,1.296L 0.292,8.65c-0.39,0.39-0.39,1.022,0,1.412l 5.646,5.646C 6.134,15.903, 6.389,16, 6.644,16 c 0.255,0, 0.511-0.097, 0.706-0.292l 7.354-7.354C 14.749,8.309, 15,8, 15,7.808L 15,1.501 C 15.014,1.222, 14.803,1.005, 14.529,1.005z M 13.5,3 C 13.224,3, 13,2.776, 13,2.5C 13,2.224, 13.224,2, 13.5,2S 14,2.224, 14,2.5C 14,2.776, 13.776,3, 13.5,3z"></path></g></svg>