<?xml version="1.0" encoding="utf-8"?> <!-- Generator: IcoMoon.io --> <!DOCTYPE svg PUBLIC "-//W3C//DTD SVG 1.1//EN" "http://www.w3.org/Graphics/SVG/1.1/DTD/svg11.dtd"> <svg width="16" height="16" viewBox="0 0 16 16" xmlns="http://www.w3.org/2000/svg" xmlns:xlink="http://www.w3.org/1999/xlink" fill="#000000"><g><path d="M 13,1l-2,0 c0-0.552-0.448-1-1-1L 7,0 C 6.448,0, 6,0.448, 6,1L 4,1 C 3.448,1, 3,1.448, 3,2l 11,0 C 14,1.448, 13.552,1, 13,1zM 3,15c0,0.552, 0.448,1, 1,1l 9,0 c 0.552,0, 1-0.448, 1-1L 14,3 L 3,3 L 3,15 z M 11,5.5C 11,5.224, 11.224,5, 11.5,5 S 12,5.224, 12,5.5l0,8 c0,0.276-0.224,0.5-0.5,0.5S 11,13.776, 11,13.5L 11,5.5 z M 8,5.5C 8,5.224, 8.224,5, 8.5,5S 9,5.224, 9,5.5l0,8 C 9,13.776, 8.776,14, 8.5,14S 8,13.776, 8,13.5L 8,5.5 z M 5,5.5C 5,5.224, 5.224,5, 5.5,5S 6,5.224, 6,5.5l0,8 C 6,13.776, 5.776,14, 5.5,14 S 5,13.776, 5,13.5L 5,5.5 z"></path></g></svg>