<?xml version="1.0" encoding="utf-8"?> <!-- Generator: IcoMoon.io --> <!DOCTYPE svg PUBLIC "-//W3C//DTD SVG 1.1//EN" "http://www.w3.org/Graphics/SVG/1.1/DTD/svg11.dtd"> <svg width="16" height="16" viewBox="0 0 16 16" xmlns="http://www.w3.org/2000/svg" xmlns:xlink="http://www.w3.org/1999/xlink" fill="#000000"><g><path d="M 13,8c-0.035,0-0.068,0.009-0.102,0.010C 12.965,7.684, 13,7.346, 13,7c0-2.761-2.239-5-5-5S 3,4.239, 3,7 c0,0.017, 0.005,0.033, 0.005,0.050C 1.309,7.292,0,8.737,0,10.5C0,12.433, 1.567,14, 3.5,14l 2.508,0 C 6.556,14, 7,13.556, 7,13.008L 7,10 L 4.878,10 L 8,6l 3.122,4L 9,10 l0,3.008 C 9,13.556, 9.444,14, 9.992,14L 13,14 c 1.657,0, 3-1.343, 3-3S 14.657,8, 13,8z"></path></g></svg>