<?xml version="1.0" encoding="utf-8"?> <!-- Generator: IcoMoon.io --> <!DOCTYPE svg PUBLIC "-//W3C//DTD SVG 1.1//EN" "http://www.w3.org/Graphics/SVG/1.1/DTD/svg11.dtd"> <svg width="16" height="16" viewBox="0 0 16 16" xmlns="http://www.w3.org/2000/svg" xmlns:xlink="http://www.w3.org/1999/xlink" fill="#000000"><g><path d="M 13,0L 1,0 C 0.448,0,0,0.448,0,1l0,14 c0,0.552, 0.448,1, 1,1l 12,0 c 0.552,0, 1-0.448, 1-1L 14,1 C 14,0.448, 13.552,0, 13,0z M 1,1l 2,0 l0,14 L 1,15 L 1,1 z M 13,15L 4,15 L 4,1 l 9,0 L 13,15 zM 6.931,5.367A1.514,1.514 720 1 0 9.959,5.367A1.514,1.514 720 1 0 6.931,5.367zM 8.476,7.486C 7.109,7.486, 6,8.973, 6,10.807s 4.953,1.834, 4.953,0S 9.844,7.486, 8.476,7.486zM 15,1L 16,1L 16,4L 15,4zM 15,5L 16,5L 16,8L 15,8zM 15,9L 16,9L 16,12L 15,12z"></path></g></svg>