<?xml version="1.0" encoding="utf-8"?> <!-- Generator: IcoMoon.io --> <!DOCTYPE svg PUBLIC "-//W3C//DTD SVG 1.1//EN" "http://www.w3.org/Graphics/SVG/1.1/DTD/svg11.dtd"> <svg width="16" height="16" viewBox="0 0 16 16" xmlns="http://www.w3.org/2000/svg" xmlns:xlink="http://www.w3.org/1999/xlink" fill="#000000"><g><path d="M 8.5,1C 4.358,1, 1,4.358, 1,8.5S 4.358,16, 8.5,16S 16,12.642, 16,8.5S 12.642,1, 8.5,1z M 12.5,12l-8,0 C 4.224,12, 4,11.776, 4,11.5C 4,11.224, 4.224,11, 4.5,11l 8,0 c 0.276,0, 0.5,0.224, 0.5,0.5C 13,11.776, 12.776,12, 12.5,12z M 12.5,9l-8,0 C 4.224,9, 4,8.776, 4,8.5C 4,8.224, 4.224,8, 4.5,8l 8,0 C 12.776,8, 13,8.224, 13,8.5C 13,8.776, 12.776,9, 12.5,9z M 12.5,6l-8,0 C 4.224,6, 4,5.776, 4,5.5C 4,5.224, 4.224,5, 4.5,5l 8,0 C 12.776,5, 13,5.224, 13,5.5C 13,5.776, 12.776,6, 12.5,6z"></path></g></svg>