<?xml version="1.0" encoding="utf-8"?> <!-- Generator: IcoMoon.io --> <!DOCTYPE svg PUBLIC "-//W3C//DTD SVG 1.1//EN" "http://www.w3.org/Graphics/SVG/1.1/DTD/svg11.dtd"> <svg width="16" height="16" viewBox="0 0 16 16" xmlns="http://www.w3.org/2000/svg" xmlns:xlink="http://www.w3.org/1999/xlink" fill="#000000"><g><path d="M 15,5l-2,0 c0,0-0.578,0-1-1c-0.215-0.509-0.448-1-1-1L 7,3 C 6.448,3, 6.208,3.488, 6,4C 5.594,5, 5,5, 5,5L 4,5 c0-0.552-0.448-1-1-1L 2,4 C 1.448,4, 1,4.448, 1,5C 0.448,5,0,5.448,0,6l0,8 c0,0.552, 0.448,1, 1,1l 14,0 c 0.552,0, 1-0.448, 1-1L 16,9.875 L 16,9 L 16,6 C 16,5.448, 15.552,5, 15,5z M 15,14L 1,14 l0-4 l 4.55,0 c 0.245,1.694, 1.688,3, 3.45,3c 1.805,0, 3.273-1.371, 3.462-3.125L 15,9.875 L 15,14 z M 6.5,9.5 C 6.5,8.121, 7.622,7, 9,7s 2.5,1.121, 2.5,2.5c0,1.378-1.122,2.5-2.5,2.5S 6.5,10.878, 6.5,9.5z M 12.45,9C 12.205,7.306, 10.762,6, 9,6 S 5.795,7.306, 5.55,9L 1,9 L 1,6 l 1,0 l 1,0 l 2,0 c 0.584,0, 1.44-0.425, 1.926-1.624C 7.009,4.173, 7.065,4.061, 7.102,4l 3.792,0 c 0.067,0.11, 0.153,0.313, 0.185,0.389C 11.726,5.922, 12.793,6, 13,6l 2,0 l0,3 L 12.45,9 zM 2,7.51A0.5,0.5 720 1 0 3,7.51A0.5,0.5 720 1 0 2,7.51z"></path></g></svg>