<?xml version="1.0" encoding="utf-8"?> <!-- Generator: IcoMoon.io --> <!DOCTYPE svg PUBLIC "-//W3C//DTD SVG 1.1//EN" "http://www.w3.org/Graphics/SVG/1.1/DTD/svg11.dtd"> <svg width="17.562000274658203" height="16" viewBox="0 0 17.562000274658203 16" xmlns="http://www.w3.org/2000/svg" xmlns:xlink="http://www.w3.org/1999/xlink" fill="#000000"><g><path d="M 8,0C 5.953,0, 3.905,0.781, 2.343,2.343c-3.124,3.124-3.124,8.19,0,11.314C 3.905,15.219, 5.953,16, 8,16 s 4.095-0.781, 5.657-2.343c 3.124-3.124, 3.124-8.19,0-11.314C 12.095,0.781, 10.047,0, 8,0z M 5.172,10.828C 4.416,10.073, 4,9.068, 4,8 c0-1.068, 0.416-2.073, 1.172-2.828C 5.927,4.416, 6.932,4, 8,4s 2.073,0.416, 2.828,1.172C 11.584,5.927, 12,6.932, 12,8 c0,1.068-0.416,2.073-1.172,2.828C 10.073,11.584, 9.068,12, 8,12S 5.927,11.584, 5.172,10.828z M 11.093,1.725L 9.55,3.268 C 9.046,3.103, 8.525,3, 8,3C 7.522,3, 7.049,3.091, 6.586,3.227l-1.56-1.56C 5.946,1.236, 6.954,1, 8,1C 9.092,1, 10.142,1.255, 11.093,1.725z M 1.668,5.027l 1.56,1.56c-0.286,0.97-0.274,2, 0.040,2.964l-1.543,1.543C 1.255,10.142, 1,9.092, 1,8C 1,6.954, 1.236,5.946, 1.668,5.027z M 3.050,12.949L 3.050,12.949C 3.050,12.95, 3.050,12.95, 3.050,12.949L 3.050,12.949z M 5.147,14.389l 1.576-1.576C 7.142,12.924, 7.569,13, 8,13 c 0.478,0, 0.951-0.091, 1.414-0.228l 1.56,1.56C 10.054,14.764, 9.046,15, 8,15C 6.999,15, 6.034,14.785, 5.147,14.389z M 14.33,10.971 l-1.557-1.557c 0.259-0.879, 0.274-1.806, 0.040-2.691l 1.573-1.573C 15.209,7.001, 15.19,9.133, 14.33,10.971z"></path></g></svg>