<?xml version="1.0" encoding="utf-8"?> <!-- Generator: IcoMoon.io --> <!DOCTYPE svg PUBLIC "-//W3C//DTD SVG 1.1//EN" "http://www.w3.org/Graphics/SVG/1.1/DTD/svg11.dtd"> <svg width="16" height="16" viewBox="0 0 16 16" xmlns="http://www.w3.org/2000/svg" xmlns:xlink="http://www.w3.org/1999/xlink" fill="#000000"><g><path d="M 15,2L 1,2 C 0.448,2,0,2.448,0,3l0,2 l 16,0 L 16,3 C 16,2.448, 15.552,2, 15,2z M 15,4L 1,4 L 1,3 l 14,0 L 15,4 zM 1,15c0,0.552, 0.448,1, 1,1l 12,0 c 0.552,0, 1-0.448, 1-1L 15,6 L 1,6 L 1,15 z M 2,7l 12,0 l0,8 L 2,15 L 2,7 zM 10.5,8l-5,0 C 5.224,8, 5,8.224, 5,8.5C 5,8.776, 5.224,9, 5.5,9l 5,0 C 10.776,9, 11,8.776, 11,8.5 C 11,8.224, 10.776,8, 10.5,8z"></path></g></svg>