<?xml version="1.0" encoding="utf-8"?> <!-- Generator: IcoMoon.io --> <!DOCTYPE svg PUBLIC "-//W3C//DTD SVG 1.1//EN" "http://www.w3.org/Graphics/SVG/1.1/DTD/svg11.dtd"> <svg width="16" height="16" viewBox="0 0 16 16" xmlns="http://www.w3.org/2000/svg" xmlns:xlink="http://www.w3.org/1999/xlink" fill="#000000"><g><path d="M 8,0C 3.582,0,0,3.582,0,8s 3.582,8, 8,8s 8-3.582, 8-8S 12.418,0, 8,0z M 7,7c0-0.552, 0.448-1, 1-1s 1,0.448, 1,1l0,5 c0,0.552-0.448,1-1,1s-1-0.448-1-1L 7,7 z M 8,5.016c-0.552,0-1-0.448-1-1c0-0.552, 0.448-1, 1-1s 1,0.448, 1,1C 9,4.568, 8.552,5.016, 8,5.016 z"></path></g></svg>