<?xml version="1.0" encoding="utf-8"?> <!-- Generator: IcoMoon.io --> <!DOCTYPE svg PUBLIC "-//W3C//DTD SVG 1.1//EN" "http://www.w3.org/Graphics/SVG/1.1/DTD/svg11.dtd"> <svg width="16" height="16" viewBox="0 0 16 16" xmlns="http://www.w3.org/2000/svg" xmlns:xlink="http://www.w3.org/1999/xlink" fill="#000000"><g><path d="M 13.026,7.999c-0.043,0-0.085,0-0.126,0.001C 12.966,7.671, 13,7.335, 13,7c0-2.757-2.243-5-5-5 C 5.245,2, 3,4.221, 2.997,6.949c0,0.001, 0.008,0.101, 0.008,0.101l0,0 C 1.292,7.295,0,8.778,0,10.5c0,1.746, 1.258,3.248, 3,3.5l 2.5,0 C 5.776,14, 6,13.776, 6,13.5S 5.776,13, 5.5,13l-2.427,0.005C 1.911,12.834, 1,11.733, 1,10.5c0-1.228, 0.922-2.285, 2.146-2.46l 0.43-0.062 c 0.246-0.035, 0.429-0.246, 0.429-0.495L 3.997,6.951C 4,4.772, 5.795,3, 8,3c 2.206,0, 4,1.794, 4,4c0,0.271-0.027,0.544-0.082,0.809 l-0.132,0.636c-0.033,0.159, 0.014,0.323, 0.124,0.442c 0.11,0.118, 0.268,0.179, 0.432,0.154c 0.011-0.001, 0.324-0.042, 0.684-0.042 C 14.115,8.999, 15,9.896, 15,11c0,1.103-0.897,2-2,2L 9.5,13 c-1.4,0-1.495-0.839-1.5-1L 8,8.682 l 1.183,1.182 c 0.195,0.195, 0.512,0.195, 0.707,0c 0.195-0.195, 0.195-0.512,0-0.707L 7.878,7.146C 7.78,7.048, 7.651,7, 7.522,7 C 7.514,7, 7.508,6.996, 7.5,6.996c-0.144,0-0.271,0.062-0.362,0.159L 5.124,9.167c-0.195,0.195-0.195,0.512,0,0.707 c 0.195,0.195, 0.512,0.195, 0.707,0L 7,8.706L 7,12 c0,0.691, 0.522,2, 2.5,2L 13,14 c 1.654,0, 3-1.346, 3-3S 14.666,7.999, 13.026,7.999z"></path></g></svg>