<?xml version="1.0" encoding="utf-8"?> <!-- Generator: IcoMoon.io --> <!DOCTYPE svg PUBLIC "-//W3C//DTD SVG 1.1//EN" "http://www.w3.org/Graphics/SVG/1.1/DTD/svg11.dtd"> <svg width="16" height="16" viewBox="0 0 16 16" xmlns="http://www.w3.org/2000/svg" xmlns:xlink="http://www.w3.org/1999/xlink" fill="#000000"><g><path d="M 5.5,12.5c0-0.297-0.064-0.584-0.19-0.851C 4.982,10.951, 4.271,10.5, 3.5,10.5c-1.103,0-2,0.897-2,2 c0,0.197, 0.037,0.383, 0.090,0.563c 0.335,0.552, 0.795,1.012, 1.347,1.347c 0.18,0.053, 0.366,0.090, 0.563,0.090 C 4.603,14.5, 5.5,13.603, 5.5,12.5z M 3.5,11.5c 0.386,0, 0.741,0.226, 0.906,0.575C 4.468,12.208, 4.5,12.351, 4.5,12.5 c0,0.551-0.449,1-1,1s-1-0.449-1-1S 2.949,11.5, 3.5,11.5zM 15.5,0l-2.164,0 c-0.118,0-0.232,0.042-0.323,0.118L 5.933,6.097C 5.607,6.032, 5.3,6, 5,6c-2.757,0-5,2.243-5,5 s 2.243,5, 5,5s 5-2.243, 5-5c0-0.526-0.084-1.046-0.25-1.55l 1.522-0.989c 0.142-0.092, 0.228-0.25, 0.228-0.419L 11.5,6.225 l 1.901-0.1 c 0.248-0.013, 0.448-0.206, 0.471-0.453l 0.182-1.926l 1.661-0.794C 15.89,2.868, 16,2.692, 16,2.5l0-2 C 16,0.224, 15.776,0, 15.5,0z M 15,2.185l-1.632,0.78c-0.158,0.076-0.266,0.229-0.282,0.404l-0.168,1.779L 10.974,5.25C 10.708,5.265, 10.5,5.484, 10.5,5.75l0,2.020 L 8.868,8.831C 8.665,8.963, 8.585,9.222, 8.68,9.445C 8.893,9.946, 9,10.469, 9,11c0,2.206-1.794,4-4,4c-0.757,0-1.458-0.223-2.063-0.59 c-0.552-0.335-1.012-0.795-1.347-1.347C 1.223,12.458, 1,11.757, 1,11c0-2.206, 1.794-4, 4-4c 0.295,0, 0.605,0.041, 0.948,0.124 c 0.155,0.038, 0.319,0, 0.441-0.104L 13.519,1L 15,1 L 15,2.185 z"></path></g></svg>