<?xml version="1.0" encoding="utf-8"?> <!-- Generator: IcoMoon.io --> <!DOCTYPE svg PUBLIC "-//W3C//DTD SVG 1.1//EN" "http://www.w3.org/Graphics/SVG/1.1/DTD/svg11.dtd"> <svg width="16" height="16" viewBox="0 0 16 16" xmlns="http://www.w3.org/2000/svg" xmlns:xlink="http://www.w3.org/1999/xlink" fill="#000000"><g><path d="M 10.31,12.109L 13,13L 12.109,10.31L 6.969,5.17L 5.17,6.969 zM 4.111,5.91L 5.91,4.111L 4.586,2.787c-0.497-0.497-1.302-0.497-1.799,0c-0.497,0.497-0.497,1.302,0,1.799 L 4.111,5.91zM 15,0L 1,0 C 0.448,0,0,0.448,0,1l0,14 c0,0.552, 0.448,1, 1,1l 14,0 c 0.552,0, 1-0.448, 1-1L 16,1 C 16,0.448, 15.552,0, 15,0z M 15,15L 1,15 L 1,1 l 14,0 L 15,15 z"></path></g></svg>