<?xml version="1.0" encoding="utf-8"?> <!-- Generator: IcoMoon.io --> <!DOCTYPE svg PUBLIC "-//W3C//DTD SVG 1.1//EN" "http://www.w3.org/Graphics/SVG/1.1/DTD/svg11.dtd"> <svg width="16" height="16.384998321533203" viewBox="0 0 16 16.384998321533203" xmlns="http://www.w3.org/2000/svg" xmlns:xlink="http://www.w3.org/1999/xlink" fill="#000000"><g><path d="M 0.399,15.228c 0.748,0.971, 2.293,1.034, 3.451,0.142c 0.471-0.363, 0.797-0.829, 0.978-1.318 C 4.932,13.846, 5,13.554, 5,13.22L 5,5.747 l 9-1.701l0,3.946 c0,1.392-1.065,1.712-1.442,1.783c-0.033,0.004-0.065,0.012-0.098,0.018 c-0.017,0.002-0.042,0.005-0.042,0.005L 12.424,9.8c-0.446,0.081-0.895,0.268-1.298,0.578c-1.158,0.892-1.491,2.402-0.743,3.373 c 0.748,0.971, 2.293,1.035, 3.451,0.143c 0.586-0.452, 0.959-1.062, 1.089-1.68C 14.968,12.064, 15,11.899, 15,11.712L 15,2.006 c0-0.061-0.012-0.113-0.017-0.171C 14.985,1.805, 15,1.771, 15,1.741l0-1 c0-0.552-0.448-0.864-1-0.695L 5,1.747 C 4.448,1.915, 4,2.5, 4,3.052l0,1 c0,0.014, 0.007,0.024, 0.008,0.037C 4.007,4.119, 4,4.145, 4,4.175l0,5.294 c0,1.394-1.068,1.713-1.444,1.783 c-0.019,0.003-0.038,0.009-0.058,0.012c-0.049,0.008-0.081,0.011-0.081,0.011l 0.011,0.005c-0.442,0.083-0.887,0.268-1.286,0.575 C-0.016,12.747-0.348,14.257, 0.399,15.228z"></path></g></svg>