<?xml version="1.0" encoding="utf-8"?> <!-- Generator: IcoMoon.io --> <!DOCTYPE svg PUBLIC "-//W3C//DTD SVG 1.1//EN" "http://www.w3.org/Graphics/SVG/1.1/DTD/svg11.dtd"> <svg width="16" height="16" viewBox="0 0 16 16" xmlns="http://www.w3.org/2000/svg" xmlns:xlink="http://www.w3.org/1999/xlink" fill="#000000"><g><path d="M 10.213,0c-0.165,0-0.354,0.051-0.571,0.182c0,0-4.17,3.638-4.351,3.818L 3,4 C 2.448,4, 2,4.448, 2,5l0,0.127 L 2,11 l0,0.127 c0,0.552, 0.448,1, 1,1l 2.291,0 c 0.181,0.18, 4.351,3.69, 4.351,3.69C 9.859,15.949, 10.048,16, 10.213,16 c 0.025,0, 0.050-0.001, 0.074-0.003c 0.37-0.035, 0.634-0.345, 0.713-0.672L 11,0.676 c-0.078-0.328-0.343-0.638-0.713-0.672 C 10.263,0.001, 10.239,0, 10.213,0z M 10,14.812c-1.56-1.314-3.82-3.223-4.004-3.393c-0.187-0.187-0.441-0.291-0.706-0.291L 3,11.128 L 3,11 L 3,5.127 L 3,5 l 2.291,0 c 0.256,0, 0.512-0.107, 0.697-0.283C 6.17,4.544, 8.43,2.567, 10,1.197L 10,14.812 zM 12.541,9.747c-0.247,0.125-0.346,0.425-0.222,0.672c 0.088,0.174, 0.264,0.275, 0.446,0.275 c 0.076,0, 0.152-0.017, 0.225-0.053C 14.001,10.131, 14.629,9.12, 14.629,8s-0.628-2.131-1.639-2.641 c-0.247-0.125-0.547-0.025-0.671,0.222c-0.124,0.247-0.025,0.547, 0.222,0.672C 13.212,6.591, 13.629,7.26, 13.629,8 S 13.212,9.409, 12.541,9.747z"></path></g></svg>