<?xml version="1.0" encoding="utf-8"?> <!-- Generator: IcoMoon.io --> <!DOCTYPE svg PUBLIC "-//W3C//DTD SVG 1.1//EN" "http://www.w3.org/Graphics/SVG/1.1/DTD/svg11.dtd"> <svg width="16" height="16" viewBox="0 0 16 16" xmlns="http://www.w3.org/2000/svg" xmlns:xlink="http://www.w3.org/1999/xlink" fill="#000000"><g><path d="M 15,3l-1,0 L 14,1 c0-0.552-0.448-1-1-1L 1,0 C 0.448,0,0,0.448,0,1l0,11 c0,0.552, 0.448,1, 1,1l 1,0 l0,2 c0,0.552, 0.448,1, 1,1l 12,0 c 0.552,0, 1-0.448, 1-1L 16,4 C 16,3.448, 15.552,3, 15,3z M 1,12L 1,1 l 12,0 l0,11 L 1,12 z M 15,15L 3,15 l0-2 l 1,0 l0,1 l 1,0 l 8,0 l 1,0 l0-1 l0-1 L 14,9 L 14,4 l 1,0 L 15,15 zM 7.395,4.094A1.391,1.391 720 1 0 10.177,4.094A1.391,1.391 720 1 0 7.395,4.094zM 5,5L 2,7L 2,9L 2,10L 2,11L 3,11L 11,11L 12,11L 12,10L 12,9L 12,6L 8,8 z"></path></g></svg>