<?xml version="1.0" encoding="utf-8"?> <!-- Generator: IcoMoon.io --> <!DOCTYPE svg PUBLIC "-//W3C//DTD SVG 1.1//EN" "http://www.w3.org/Graphics/SVG/1.1/DTD/svg11.dtd"> <svg width="16" height="16" viewBox="0 0 16 16" xmlns="http://www.w3.org/2000/svg" xmlns:xlink="http://www.w3.org/1999/xlink" fill="#000000"><g><path d="M 8,0C 3.582,0,0,3.582,0,8s 3.582,8, 8,8s 8-3.582, 8-8S 12.418,0, 8,0z M 8,15c-3.86,0-7-3.14-7-7s 3.14-7, 7-7 s 7,3.14, 7,7S 11.86,15, 8,15zM 11.235,4.076L 9.374,5.238L 8.131,6.013c 0.998,0.066, 1.79,0.857, 1.856,1.856l 0.775-1.242l 1.162-1.862 c 0.124-0.197, 0.095-0.454-0.070-0.618C 11.688,3.981, 11.43,3.953, 11.235,4.076zM 6.013,8.131L 5.238,9.374l-1.162,1.862c-0.124,0.197-0.095,0.454, 0.070,0.618C 4.243,11.95, 4.371,12, 4.5,12 c 0.092,0, 0.184-0.025, 0.265-0.076l 1.861-1.162l 1.243-0.775C 6.871,9.921, 6.079,9.129, 6.013,8.131zM 8.131,6.013C 8.087,6.010, 8.045,6, 8,6C 6.895,6, 6,6.895, 6,8c0,0.045, 0.010,0.087, 0.013,0.131 c 0.066,0.998, 0.858,1.79, 1.856,1.856C 7.913,9.99, 7.955,10, 8,10c 1.105,0, 2-0.895, 2-2c0-0.045-0.010-0.087-0.013-0.131 C 9.921,6.871, 9.129,6.079, 8.131,6.013z M 7,8c0-0.551, 0.449-1, 1-1s 1,0.449, 1,1S 8.551,9, 8,9S 7,8.551, 7,8z"></path></g></svg>