<?xml version="1.0" encoding="utf-8"?> <!-- Generator: IcoMoon.io --> <!DOCTYPE svg PUBLIC "-//W3C//DTD SVG 1.1//EN" "http://www.w3.org/Graphics/SVG/1.1/DTD/svg11.dtd"> <svg width="16" height="16.413999557495117" viewBox="0 0 16 16.413999557495117" xmlns="http://www.w3.org/2000/svg" xmlns:xlink="http://www.w3.org/1999/xlink" fill="#000000"><g><path d="M 4,9.757c0,0.767, 1.93,1.174, 4.001,1.231C 8.001,10.992, 8,10.996, 8,11l0,3 c0,0.552, 0.224,2, 0.5,2 S 9,14.552, 9,14l0-3 c0-0.004-0.001-0.008-0.001-0.012C 11.070,10.931, 13,10.524, 13,9.757c0-0.814-0.737-1.408-2-1.728L 11,2.85 c 1.263-0.428, 2-1.117, 2-1.607c0-1.657-9-1.657-9,0c0,0.539, 0.737,1.213, 2,1.625l0,5.161 C 4.737,8.35, 4,8.943, 4,9.757z"></path></g></svg>