<?xml version="1.0" encoding="utf-8"?> <!-- Generator: IcoMoon.io --> <!DOCTYPE svg PUBLIC "-//W3C//DTD SVG 1.1//EN" "http://www.w3.org/Graphics/SVG/1.1/DTD/svg11.dtd"> <svg width="16.000999450683594" height="16" viewBox="0 0 16.000999450683594 16" xmlns="http://www.w3.org/2000/svg" xmlns:xlink="http://www.w3.org/1999/xlink" fill="#000000"><g><path d="M 15.82,14.529l-6.938-13C 8.709,1.204, 8.37,1, 8.001,1L 8,1 C 7.631,1, 7.293,1.203, 7.119,1.528l-6.969,13 c-0.166,0.31-0.157,0.684, 0.023,0.986C 0.354,15.815, 0.68,16, 1.031,16l 13.906,0 c 0.351,0, 0.677-0.184, 0.858-0.486 C 15.976,15.213, 15.985,14.839, 15.82,14.529z M 1.031,15L 8,2l 6.938,13L 1.031,15 zM 7,7.016l0,3 c0,0.552, 0.448,1, 1,1s 1-0.448, 1-1l0-3 c0-0.552-0.448-1-1-1S 7,6.463, 7,7.016zM 7,13A1,1 720 1 0 9,13A1,1 720 1 0 7,13z"></path></g></svg>