<?xml version="1.0" encoding="utf-8"?> <!-- Generator: IcoMoon.io --> <!DOCTYPE svg PUBLIC "-//W3C//DTD SVG 1.1//EN" "http://www.w3.org/Graphics/SVG/1.1/DTD/svg11.dtd"> <svg width="16" height="16" viewBox="0 0 16 16" xmlns="http://www.w3.org/2000/svg" xmlns:xlink="http://www.w3.org/1999/xlink" fill="#000000"><g><path d="M 13.521,0L 9.009,0 L 4.5,0 L 2.521,0 C 1.141,0, 0.024,1.109, 0.004,2.484L0,2.479l0,2.083 L0,6 l0,5.479 l0,1.237 l0,0.763 C0,14.871, 1.129,16, 2.521,16l 0.456,0 L 7,16 l 1.375,0 l 0.669,0 l 1.977,0 C 11.573,16, 12,15.552, 12,15L 12,4.5 C 12,4.224, 11.797,4, 11.521,4l-9,0 C 1.682,4, 1,3.359, 1,2.521C 1,1.682, 1.682,1, 2.521,1L 4.5,1 l 4.66,0 L 13,1 l0,11.5 c0,0.276, 0.245,0.5, 0.521,0.5S 14,12.776, 14,12.5l0-12 C 14,0.224, 13.797,0, 13.521,0z M 2.521,5l 8.48,0 l 0.020,10L 9.044,15 L 8.375,15 L 7,15 L 2.977,15 L 2.521,15 C 1.682,15, 1,14.318, 1,13.479l0-0.763 l0-1.237 L 1,6 L 1,4.562 L 1,4.511 C 1.42,4.819, 1.945,5, 2.521,5z"></path></g></svg>