<?xml version="1.0" encoding="utf-8"?> <!-- Generator: IcoMoon.io --> <!DOCTYPE svg PUBLIC "-//W3C//DTD SVG 1.1//EN" "http://www.w3.org/Graphics/SVG/1.1/DTD/svg11.dtd"> <svg width="16" height="16" viewBox="0 0 16 16" xmlns="http://www.w3.org/2000/svg" xmlns:xlink="http://www.w3.org/1999/xlink" fill="#000000"><g><path d="M 12.483,10l-0.379-1l-1.070,0 L 4.966,9 l-1.070,0 l-0.379,1L 2,14l 12,0 L 12.483,10z M 4.587,10l 6.827,0 l 1.138,3L 3.449,13 L 4.587,10zM 10.276,7l 1.070,0 l-0.379-1L 8.933,0.639C 8.784,0.254, 8.413,0, 8,0S 7.216,0.254, 7.067,0.639L 5.034,6L 4.655,7 l 1.070,0 L 10.276,7 z M 8,1l 1.896,5L 6.104,6 L 8,1zM 15.492,15L 0.508,15 C 0.227,15,0,15.212,0,15.492S 0.227,16, 0.508,16l 14.984,0 C 15.773,16, 16,15.773, 16,15.492 S 15.773,15, 15.492,15z"></path></g></svg>