<?xml version="1.0" encoding="utf-8"?> <!-- Generator: IcoMoon.io --> <!DOCTYPE svg PUBLIC "-//W3C//DTD SVG 1.1//EN" "http://www.w3.org/Graphics/SVG/1.1/DTD/svg11.dtd"> <svg width="16" height="16" viewBox="0 0 16 16" xmlns="http://www.w3.org/2000/svg" xmlns:xlink="http://www.w3.org/1999/xlink" fill="#000000"><g><path d="M 0.949,14.691c 0.082,0.176, 0.259,0.288, 0.453,0.288c 1.435,0, 2.649-0.349, 4.028-1.162 C 6.099,13.923, 7.42,14.054, 8,14.054c 4.378,0, 7.939-2.923, 7.939-6.517S 12.378,1.021, 8,1.021S 0.061,3.943, 0.061,7.537 c0,1.694, 0.817,3.331, 2.255,4.544c-0.326,0.74-0.761,1.438-1.297,2.077C 0.895,14.308, 0.867,14.516, 0.949,14.691z M 1.061,7.537 c0-3.042, 3.113-5.517, 6.939-5.517s 6.939,2.475, 6.939,5.517S 11.826,13.054, 8,13.054c-0.574,0-2.068-0.154-2.573-0.252 c-0.122-0.022-0.249,0.001-0.355,0.064C 4.14,13.436, 3.327,13.762, 2.457,13.9c 0.375-0.568, 0.687-1.168, 0.93-1.793 c 0.081-0.209, 0.015-0.445-0.164-0.58C 1.828,10.471, 1.061,9.053, 1.061,7.537z"></path></g></svg>