<?xml version="1.0" encoding="utf-8"?> <!-- Generator: IcoMoon.io --> <!DOCTYPE svg PUBLIC "-//W3C//DTD SVG 1.1//EN" "http://www.w3.org/Graphics/SVG/1.1/DTD/svg11.dtd"> <svg width="16" height="16" viewBox="0 0 16 16" xmlns="http://www.w3.org/2000/svg" xmlns:xlink="http://www.w3.org/1999/xlink" fill="#000000"><g><path d="M 15,0L 1,0 C 0.448,0,0,0.448,0,1l0,14 c0,0.552, 0.448,1, 1,1l 14,0 c 0.552,0, 1-0.448, 1-1L 16,1 C 16,0.448, 15.552,0, 15,0z M 3,9l0,2 L 1,11 L 1,9 L 3,9 z M 1,7L 1,5 l 2,0 l0,2 L 1,7 z M 4,10l 8,0 l0,5 L 4,15 L 4,10 z M 12,9L 4,9 L 4,1 l 8,0 L 12,9 z M 13,9l 2,0 l0,2 l-2,0 L 13,9 z M 13,7L 13,5 l 2,0 l0,2 L 13,7 z M 13,3L 13,1 l 2,0 l0,2 L 13,3 z M 3,3L 1,3 L 1,1 l 2,0 L 3,3 z M 1,13l 2,0 l0,2 L 1,15 L 1,13 z M 13,13l 2,0 l0,2 l-2,0 L 13,13 z"></path></g></svg>