<?xml version="1.0" encoding="utf-8"?> <!-- Generator: IcoMoon.io --> <!DOCTYPE svg PUBLIC "-//W3C//DTD SVG 1.1//EN" "http://www.w3.org/Graphics/SVG/1.1/DTD/svg11.dtd"> <svg width="16" height="16" viewBox="0 0 16 16" xmlns="http://www.w3.org/2000/svg" xmlns:xlink="http://www.w3.org/1999/xlink" fill="#000000"><g><path d="M 15,1L 1,1 C 0.448,1,0,1.448,0,2l0,9 c0,0.552, 0.448,1, 1,1l 4.999,0 c-0.002,0.723-0.031,1.662-0.305,2L 5.492,14 C 5.22,14, 5,14.224, 5,14.5C 5,14.776, 5.22,15, 5.492,15l 5.015,0 C 10.78,15, 11,14.776, 11,14.5c0-0.276-0.22-0.5-0.492-0.5l-0.202,0 c-0.275-0.338-0.303-1.277-0.305-2L 15,12 c 0.552,0, 1-0.448, 1-1L 16,2 C 16,1.448, 15.552,1, 15,1z M 7,12l-0.001,0.002 C 6.999,12.001, 6.999,12.001, 7,12L 7,12z M 9.001,12.002L 9,12l 0.001,0 C 9.001,12.001, 9.001,12.001, 9.001,12.002z M 15,10L 1,10 L 1,2 l 14,0 L 15,10 z"></path></g></svg>