<?xml version="1.0" encoding="utf-8"?> <!-- Generator: IcoMoon.io --> <!DOCTYPE svg PUBLIC "-//W3C//DTD SVG 1.1//EN" "http://www.w3.org/Graphics/SVG/1.1/DTD/svg11.dtd"> <svg width="16" height="16" viewBox="0 0 16 16" xmlns="http://www.w3.org/2000/svg" xmlns:xlink="http://www.w3.org/1999/xlink" fill="#000000"><g><path d="M 7.636,15.729c 0.084,0.093, 0.165,0.153, 0.243,0.195c 0.001,0.001, 0.003,0.001, 0.004,0.002 c 0.054,0.028, 0.107,0.049, 0.157,0.049c 0.050,0, 0.103-0.021, 0.157-0.049c 0.001-0.001, 0.003-0.001, 0.004-0.002 c 0.078-0.042, 0.159-0.102, 0.243-0.195c0,0, 4.648-5.055, 5.115-9.435c 0.028-0.226, 0.047-0.455, 0.047-0.688C 13.606,2.51, 11.096,0, 8,0 S 2.394,2.51, 2.394,5.606c0,0.237, 0.019,0.468, 0.048,0.697C 2.921,10.681, 7.636,15.729, 7.636,15.729z M 8,2 c 1.988,0, 3.606,1.618, 3.606,3.606c0,1.988-1.618,3.606-3.606,3.606S 4.394,7.594, 4.394,5.606C 4.394,3.618, 6.012,2, 8,2z"></path></g></svg>