<?xml version="1.0" encoding="utf-8"?> <!-- Generator: IcoMoon.io --> <!DOCTYPE svg PUBLIC "-//W3C//DTD SVG 1.1//EN" "http://www.w3.org/Graphics/SVG/1.1/DTD/svg11.dtd"> <svg width="16" height="16" viewBox="0 0 16 16" xmlns="http://www.w3.org/2000/svg" xmlns:xlink="http://www.w3.org/1999/xlink" fill="#000000"><g><path d="M 2,16l 12.042,0 c 0.552,0, 1-0.448, 1-1L 15.042,1 c0-0.552-0.448-1-1-1L 2,0 C 1.448,0, 1,0.448, 1,1l0,14 C 1,15.552, 1.448,16, 2,16z M 7.5,3l 4.042,0 c 0.276,0, 0.5,0.224, 0.5,0.5c0,0.276-0.224,0.5-0.5,0.5L 7.5,4 C 7.224,4, 7,3.776, 7,3.5C 7,3.224, 7.224,3, 7.5,3z M 4.5,6 l 7.042,0 c 0.276,0, 0.5,0.224, 0.5,0.5c0,0.276-0.224,0.5-0.5,0.5L 4.5,7 C 4.224,7, 4,6.776, 4,6.5C 4,6.224, 4.224,6, 4.5,6z M 4.5,9l 7.042,0 c 0.276,0, 0.5,0.224, 0.5,0.5c0,0.276-0.224,0.5-0.5,0.5L 4.5,10 C 4.224,10, 4,9.776, 4,9.5C 4,9.224, 4.224,9, 4.5,9z M 4.5,12l 7.042,0 c 0.276,0, 0.5,0.224, 0.5,0.5c0,0.276-0.224,0.5-0.5,0.5L 4.5,13 C 4.224,13, 4,12.776, 4,12.5C 4,12.224, 4.224,12, 4.5,12z"></path></g></svg>