<?xml version="1.0" encoding="utf-8"?> <!-- Generator: IcoMoon.io --> <!DOCTYPE svg PUBLIC "-//W3C//DTD SVG 1.1//EN" "http://www.w3.org/Graphics/SVG/1.1/DTD/svg11.dtd"> <svg width="16.125" height="16" viewBox="0 0 16.125 16" xmlns="http://www.w3.org/2000/svg" xmlns:xlink="http://www.w3.org/1999/xlink" fill="#000000"><g><path d="M 0.812,8.891L 2,7.941L 2,15 c0,0.552, 0.448,1, 1,1l 3,0 c 0.552,0, 1-0.448, 1-1l0-4 l 2,0 l0,4 c0,0.552, 0.448,1, 1,1l 3,0 c 0.552,0, 1-0.448, 1-1L 14,7.941 l 1.188,0.95C 15.28,8.964, 15.39,9, 15.5,9c 0.147,0, 0.292-0.064, 0.391-0.188 c 0.172-0.216, 0.137-0.53-0.078-0.703l-7.5-6c-0.183-0.146-0.442-0.146-0.625,0L 5,4.259L 5,3 c0-0.552-0.448-1-1-1S 3,2.448, 3,3l0,2.859 l-2.812,2.25c-0.215,0.173-0.25,0.487-0.078,0.703C 0.282,9.028, 0.596,9.063, 0.812,8.891z M 8,3.14l 5,4L 13,15 l-3,0 l0-5 L 6,10 l0,5 L 3,15 L 3,7.141 L 8,3.14z "></path></g></svg>