<?xml version="1.0" encoding="utf-8"?> <!-- Generator: IcoMoon.io --> <!DOCTYPE svg PUBLIC "-//W3C//DTD SVG 1.1//EN" "http://www.w3.org/Graphics/SVG/1.1/DTD/svg11.dtd"> <svg width="16" height="16" viewBox="0 0 16 16" xmlns="http://www.w3.org/2000/svg" xmlns:xlink="http://www.w3.org/1999/xlink" fill="#000000"><g><path d="M 15,3l-4,0 c-0.552,0-1,0.448-1,1c0,0-0.13,0.917-1,1L 2,5 C 1.448,5, 1,5.448, 1,6l0,9 c0,0.552, 0.448,1, 1,1l 13,0 c 0.552,0, 1-0.448, 1-1L 16,4 C 16,3.448, 15.552,3, 15,3z M 11.5,11L 9,11 l0,2.5 C 9,13.776, 8.776,14, 8.5,14S 8,13.776, 8,13.5L 8,11 L 5.5,11 C 5.224,11, 5,10.776, 5,10.5C 5,10.224, 5.224,10, 5.5,10L 8,10 L 8,7.5 C 8,7.224, 8.224,7, 8.5,7S 9,7.224, 9,7.5L 9,10 l 2.5,0 c 0.276,0, 0.5,0.224, 0.5,0.5 C 12,10.776, 11.776,11, 11.5,11z"></path></g></svg>