<?xml version="1.0" encoding="utf-8"?> <!-- Generator: IcoMoon.io --> <!DOCTYPE svg PUBLIC "-//W3C//DTD SVG 1.1//EN" "http://www.w3.org/Graphics/SVG/1.1/DTD/svg11.dtd"> <svg width="16.118000030517578" height="16" viewBox="0 0 16.118000030517578 16" xmlns="http://www.w3.org/2000/svg" xmlns:xlink="http://www.w3.org/1999/xlink" fill="#000000"><g><path d="M 0.828,8.878L 8,2.662l 7.172,6.216C 15.267,8.96, 15.384,9, 15.5,9c 0.14,0, 0.279-0.059, 0.378-0.172 c 0.181-0.209, 0.158-0.524-0.050-0.706l-7.5-6.5c-0.188-0.163-0.467-0.163-0.655,0L 5,3.938L 5,3 c0-0.552-0.448-1-1-1S 3,2.448, 3,3l0,2.671 L 0.172,8.122c-0.208,0.181-0.231,0.497-0.050,0.706C 0.304,9.036, 0.619,9.059, 0.828,8.878zM 6,11l 4,0 l0,5 l 3,0 c 0.552,0, 1-0.448, 1-1l0-4.901 c0-0.3-0.134-0.583-0.366-0.773l-5-4.099C 8.45,5.076, 8.225,5, 8,5 C 7.775,5, 7.55,5.076, 7.366,5.227l-5,4.099C 2.134,9.515, 2,9.799, 2,10.099L 2,15 c0,0.552, 0.448,1, 1,1l 3,0 L 6,11 z"></path></g></svg>