<?xml version="1.0" encoding="utf-8"?> <!-- Generator: IcoMoon.io --> <!DOCTYPE svg PUBLIC "-//W3C//DTD SVG 1.1//EN" "http://www.w3.org/Graphics/SVG/1.1/DTD/svg11.dtd"> <svg width="16" height="16" viewBox="0 0 16 16" xmlns="http://www.w3.org/2000/svg" xmlns:xlink="http://www.w3.org/1999/xlink" fill="#000000"><g><path d="M 13.083,8c 0.934-2.145, 0.358-3.509-0.111-4.166c-0.712-0.997-2.009-1.544-3.148-1.325 C 7.844,2.887, 7,4.229, 7,7l0,2.314 L 5.842,8.156c-0.195-0.195-0.512-0.195-0.707,0s-0.195,0.512,0,0.707l 2.012,2.011 c 0.101,0.101, 0.234,0.147, 0.366,0.144c 0.132,0.003, 0.265-0.043, 0.366-0.144l 2.022-2.021c 0.195-0.195, 0.195-0.512,0-0.707 s-0.512-0.195-0.707,0L 8,9.339L 8,7 c0-2.884, 0.993-3.314, 2.010-3.509c 0.653-0.12, 1.598,0.154, 2.147,0.924 c 0.672,0.939, 0.543,2.332-0.363,3.92c-0.096,0.169-0.086,0.378, 0.026,0.536s 0.309,0.238, 0.496,0.204 c 0.121-0.021, 0.482-0.076, 0.71-0.076C 14.115,8.999, 15,9.896, 15,11c0,1.103-0.897,2-2,2l-9.927,0.006C 1.911,12.834, 1,11.733, 1,10.5 c0-1.228, 0.922-2.285, 2.146-2.46l 0.43-0.062c 0.246-0.035, 0.429-0.246, 0.429-0.495L 3.997,6.951C 4,5.16, 5.104,3.688, 6.625,3.451 C 6.897,3.408, 7.084,3.153, 7.042,2.88C 6.999,2.607, 6.75,2.422, 6.47,2.463C 4.46,2.776, 3,4.663, 2.997,6.949 c0,0.001, 0.008,0.101, 0.008,0.101l0,0 C 1.292,7.295,0,8.778,0,10.5c0,1.746, 1.258,3.248, 3,3.5l 10,0 c 1.654,0, 3-1.346, 3-3 C 16,9.364, 14.696,8.030, 13.083,8z"></path></g></svg>