<?xml version="1.0" encoding="utf-8"?> <!-- Generator: IcoMoon.io --> <!DOCTYPE svg PUBLIC "-//W3C//DTD SVG 1.1//EN" "http://www.w3.org/Graphics/SVG/1.1/DTD/svg11.dtd"> <svg width="16" height="16.006999969482422" viewBox="0 0 16 16.006999969482422" xmlns="http://www.w3.org/2000/svg" xmlns:xlink="http://www.w3.org/1999/xlink" fill="#000000"><g><path d="M 14.529,0c-0.009,0-0.018,0-0.027,0c-0.008,0-0.015-0.001-0.023,0L 9.192,0 C 9.039,0.008, 8.691,0.247, 8.646,0.292L 2.281,6.656c-0.39,0.39-0.39,1.022,0,1.412l 0.794,0.794L 2.281,9.656 c-0.39,0.39-0.39,1.022,0,1.412l 4.646,4.646c 0.195,0.195, 0.45,0.292, 0.706,0.292s 0.511-0.097, 0.706-0.292l 6.364-6.365 C 14.749,9.304, 15,8.996, 15,8.804l0-3 L 15,3.497 l0-3 C 15.014,0.218, 14.803,0, 14.529,0z M 13.5,0.996c 0.276,0, 0.5,0.224, 0.5,0.5 s-0.224,0.5-0.5,0.5S 13,1.772, 13,1.496S 13.224,0.996, 13.5,0.996z M 13.997,8.643l-6.362,6.365l-4.646-4.644l 0.794-0.794l 3.145,3.145 c 0.195,0.195, 0.45,0.292, 0.706,0.292s 0.511-0.097, 0.706-0.292L 14,7.054l0,1.581 C 13.997,8.64, 13.995,8.643, 13.997,8.643 C 13.996,8.643, 13.996,8.643, 13.997,8.643z"></path></g></svg>