<?xml version="1.0" encoding="utf-8"?> <!-- Generator: IcoMoon.io --> <!DOCTYPE svg PUBLIC "-//W3C//DTD SVG 1.1//EN" "http://www.w3.org/Graphics/SVG/1.1/DTD/svg11.dtd"> <svg width="16" height="16" viewBox="0 0 16 16" xmlns="http://www.w3.org/2000/svg" xmlns:xlink="http://www.w3.org/1999/xlink" fill="#000000"><g><path d="M 8,0C 3.582,0,0,3.582,0,8s 3.582,8, 8,8s 8-3.582, 8-8S 12.418,0, 8,0z M 8,15c-3.86,0-7-3.14-7-7s 3.14-7, 7-7 s 7,3.14, 7,7S 11.86,15, 8,15zM 10,5L 6,5 C 5.448,5, 5,5.448, 5,6l0,4 c0,0.552, 0.448,1, 1,1l 4,0 c 0.552,0, 1-0.448, 1-1L 11,6 C 11,5.448, 10.552,5, 10,5z"></path></g></svg>