<?xml version="1.0" encoding="utf-8"?> <!-- Generator: IcoMoon.io --> <!DOCTYPE svg PUBLIC "-//W3C//DTD SVG 1.1//EN" "http://www.w3.org/Graphics/SVG/1.1/DTD/svg11.dtd"> <svg width="16" height="16" viewBox="0 0 16 16" xmlns="http://www.w3.org/2000/svg" xmlns:xlink="http://www.w3.org/1999/xlink" fill="#000000"><g><path d="M 8,0C 3.582,0,0,3.582,0,8s 3.582,8, 8,8s 8-3.582, 8-8S 12.418,0, 8,0z M 11.924,4.765l-1.162,1.862L 9.987,7.869 C 9.99,7.913, 10,7.955, 10,8c0,1.105-0.895,2-2,2c-0.045,0-0.087-0.010-0.131-0.013l-1.243,0.775l-1.861,1.162 C 4.684,11.975, 4.592,12, 4.5,12c-0.129,0-0.257-0.050-0.354-0.146c-0.165-0.165-0.194-0.421-0.070-0.618l 1.162-1.862l 0.775-1.242 C 6.010,8.087, 6,8.045, 6,8c0-1.105, 0.895-2, 2-2c 0.045,0, 0.087,0.010, 0.131,0.013l 1.243-0.775l 1.861-1.162 c 0.194-0.123, 0.453-0.094, 0.618,0.071C 12.019,4.311, 12.048,4.567, 11.924,4.765zM 7,8A1,1 720 1 0 9,8A1,1 720 1 0 7,8z"></path></g></svg>