<?xml version="1.0" encoding="utf-8"?> <!-- Generator: IcoMoon.io --> <!DOCTYPE svg PUBLIC "-//W3C//DTD SVG 1.1//EN" "http://www.w3.org/Graphics/SVG/1.1/DTD/svg11.dtd"> <svg width="16" height="16" viewBox="0 0 16 16" xmlns="http://www.w3.org/2000/svg" xmlns:xlink="http://www.w3.org/1999/xlink" fill="#000000"><g><path d="M 1,0C 0.448,0,0,0.448,0,1l0,14 c0,0.552, 0.448,1, 1,1l 1,0 L 2,0 L 1,0 zM 13,0L 3,0 l0,16 l 10,0 c 0.552,0, 1-0.448, 1-1L 14,1 C 14,0.448, 13.552,0, 13,0z M 8.445,3.854 c 0.836,0, 1.513,0.678, 1.513,1.513c0,0.836-0.678,1.514-1.513,1.514c-0.836,0-1.514-0.678-1.514-1.514 C 6.931,4.531, 7.609,3.854, 8.445,3.854z M 6,10.807c0-1.834, 1.109-3.32, 2.476-3.32s 2.476,1.487, 2.476,3.32S 6,12.64, 6,10.807zM 15,1L 16,1L 16,4L 15,4zM 15,5L 16,5L 16,8L 15,8zM 15,9L 16,9L 16,12L 15,12z"></path></g></svg>