<?xml version="1.0" encoding="utf-8"?> <!-- Generator: IcoMoon.io --> <!DOCTYPE svg PUBLIC "-//W3C//DTD SVG 1.1//EN" "http://www.w3.org/Graphics/SVG/1.1/DTD/svg11.dtd"> <svg width="16" height="16" viewBox="0 0 16 16" xmlns="http://www.w3.org/2000/svg" xmlns:xlink="http://www.w3.org/1999/xlink" fill="#000000"><g><path d="M 15,4L 9.021,4 L 7,4 L 1,4 C 0.448,4,0,4.448,0,5l0,3 l 1,0 l0,7 c0,0.552, 0.448,1, 1,1l 5,0 l 2.021,0 L 14,16 c 0.552,0, 1-0.448, 1-1L 15,8 l 1,0 L 16,5 C 16,4.448, 15.552,4, 15,4z M 1,5l 6,0 l0,2 L 1,7 L 1,5 z M 2,15L 2,8 l 5,0 l0,7 L 2,15 z M 14,15L 9.021,15 L 9.021,8 L 14,8 L 14,15 z M 15,7L 9.021,7 L 9.021,5 L 15,5 L 15,7 zM 8,3c0-0.002-0.001-0.006-0.001-0.008l 0.003,0 C 8.001,2.994, 8,2.998, 8,3c0,0, 2.619,0, 4,0 c 1.381,0, 2-0.672, 2-1.5S 13.381,0, 12,0c-1.293,0-2.311,0.582-3,1.257C 8.698,1.078, 8.349,0.969, 7.971,0.969 c-0.362,0-0.697,0.102-0.991,0.268C 6.292,0.57, 5.28,0, 4,0C 2.619,0, 2,0.672, 2,1.5S 2.619,3, 4,3C 5.381,3, 8,3, 8,3z M 13,1.5 C 13,1.913, 12.456,2, 12,2L 9.729,2 C 9.721,1.986, 9.714,1.971, 9.706,1.958C 10.214,1.464, 10.984,1, 12,1C 12.456,1, 13,1.087, 13,1.5z M 3,1.5 C 3,1.087, 3.544,1, 4,1c 0.994,0, 1.748,0.445, 2.256,0.922C 6.24,1.947, 6.228,1.974, 6.213,2L 4,2 C 3.544,2, 3,1.913, 3,1.5z"></path></g></svg>