<?xml version="1.0" encoding="utf-8"?> <!-- Generator: IcoMoon.io --> <!DOCTYPE svg PUBLIC "-//W3C//DTD SVG 1.1//EN" "http://www.w3.org/Graphics/SVG/1.1/DTD/svg11.dtd"> <svg width="16" height="16" viewBox="0 0 16 16" xmlns="http://www.w3.org/2000/svg" xmlns:xlink="http://www.w3.org/1999/xlink" fill="#000000"><g><path d="M 13,6L 3.923,6 L 3.923,5.077 C 3.923,3.38, 5.303,2, 7,2c 1.118,0, 2.091,0.604, 2.629,1.499 c 0.005-0.006, 0.014-0.009, 0.020-0.015c 0.181,0.258, 0.466,0.438, 0.805,0.438c 0.552,0, 1-0.448, 1-1c0-0.135-0.028-0.264-0.077-0.382 c-0.004-0.007-0.007-0.015-0.011-0.022c-0.044-0.1-0.107-0.188-0.18-0.267C 10.276,0.9, 8.752,0, 7,0C 4.196,0, 1.923,2.273, 1.923,5.077 L 1.923,6 L 1,6 C 0.448,6,0,6.448,0,7l0,8 c0,0.552, 0.448,1, 1,1l 12,0 c 0.552,0, 1-0.448, 1-1L 14,7 C 14,6.448, 13.552,6, 13,6z M 7,13c-1.105,0-2-0.895-2-2 s 0.895-2, 2-2s 2,0.895, 2,2S 8.105,13, 7,13z"></path></g></svg>