<?xml version="1.0" encoding="utf-8"?> <!-- Generator: IcoMoon.io --> <!DOCTYPE svg PUBLIC "-//W3C//DTD SVG 1.1//EN" "http://www.w3.org/Graphics/SVG/1.1/DTD/svg11.dtd"> <svg width="16" height="16" viewBox="0 0 16 16" xmlns="http://www.w3.org/2000/svg" xmlns:xlink="http://www.w3.org/1999/xlink" fill="#000000"><g><path d="M 5,4L 5,2.5 C 5,2.224, 4.776,2, 4.5,2S 4,2.224, 4,2.5L 4,4 C 3.448,4, 3,4.448, 3,5l0,1 c0,0.552, 0.448,1, 1,1l0,6.5 C 4,13.776, 4.224,14, 4.5,14S 5,13.776, 5,13.5L 5,7 c 0.552,0, 1-0.448, 1-1L 6,5 C 6,4.448, 5.552,4, 5,4z M 4,5l 1,0 l0,1 L 4,6 L 4,5 zM 9,9L 9,2.5 C 9,2.224, 8.776,2, 8.5,2S 8,2.224, 8,2.5L 8,9 c-0.552,0-1,0.448-1,1l0,1 c0,0.552, 0.448,1, 1,1l0,1.5 C 8,13.776, 8.224,14, 8.5,14S 9,13.776, 9,13.5L 9,12 c 0.552,0, 1-0.448, 1-1l0-1 C 10,9.448, 9.552,9, 9,9z M 8,10l 1,0 l0,1 L 8,11 L 8,10 zM 13,6L 13,2.5 C 13,2.224, 12.776,2, 12.5,2S 12,2.224, 12,2.5L 12,6 c-0.552,0-1,0.448-1,1l0,1 c0,0.552, 0.448,1, 1,1l0,4.5 c0,0.276, 0.224,0.5, 0.5,0.5s 0.5-0.224, 0.5-0.5L 13,9 c 0.552,0, 1-0.448, 1-1L 14,7 C 14,6.448, 13.552,6, 13,6z M 12,7l 1,0 l0,1 l-1,0 L 12,7 z"></path></g></svg>