<?xml version="1.0" encoding="utf-8"?> <!-- Generator: IcoMoon.io --> <!DOCTYPE svg PUBLIC "-//W3C//DTD SVG 1.1//EN" "http://www.w3.org/Graphics/SVG/1.1/DTD/svg11.dtd"> <svg width="16.201000213623047" height="16" viewBox="0 0 16.201000213623047 16" xmlns="http://www.w3.org/2000/svg" xmlns:xlink="http://www.w3.org/1999/xlink" fill="#000000"><g><path d="M 15,4L 3,4 C 2.922,4, 2.854,4.027, 2.781,4.044L 2.393,2.386C 2.34,2.16, 2.139,2, 1.906,2L 0.471,2 c-0.276,0-0.5,0.224-0.5,0.5S 0.194,3, 0.471,3L 1.51,3 l 0.621,2.656L 3,10c0,0.036, 0.017,0.067, 0.021,0.102l-0.509,2.29 c-0.033,0.148, 0.003,0.303, 0.098,0.421C 2.705,12.932, 2.848,13, 3,13l 11.344,0 c 0.276,0, 0.5-0.224, 0.5-0.5s-0.224-0.5-0.5-0.5L 3.624,12 l 0.229-1.030C 3.903,10.978, 3.948,11, 4,11l 9.115,0 c 0.552,0, 0.885-0.109, 1.151-0.75l 1.624-4.982C 16.172,4.375, 15.553,4, 15,4zM 3,15A1,1 720 1 0 5,15A1,1 720 1 0 3,15zM 12,15A1,1 720 1 0 14,15A1,1 720 1 0 12,15z"></path></g></svg>