<?xml version="1.0" encoding="utf-8"?> <!-- Generator: IcoMoon.io --> <!DOCTYPE svg PUBLIC "-//W3C//DTD SVG 1.1//EN" "http://www.w3.org/Graphics/SVG/1.1/DTD/svg11.dtd"> <svg width="16" height="16" viewBox="0 0 16 16" xmlns="http://www.w3.org/2000/svg" xmlns:xlink="http://www.w3.org/1999/xlink" fill="#000000"><g><path d="M 15.484,12L 15,12 L 15,3 c0-0.552-0.448-1-1-1L 2,2 C 1.448,2, 1,2.448, 1,3l0,9 L 0.516,12 C 0.231,12,0,12.224,0,12.5 C0,12.776, 0.231,13, 0.516,13L 2,13 l 12,0 l 1.484,0 C 15.769,13, 16,12.776, 16,12.5C 16,12.224, 15.769,12, 15.484,12z M 14,3l0,7.958 L 2,10.958 L 2,3 L 14,3 z"></path></g></svg>