<?xml version="1.0" encoding="utf-8"?> <!-- Generator: IcoMoon.io --> <!DOCTYPE svg PUBLIC "-//W3C//DTD SVG 1.1//EN" "http://www.w3.org/Graphics/SVG/1.1/DTD/svg11.dtd"> <svg width="16" height="16" viewBox="0 0 16 16" xmlns="http://www.w3.org/2000/svg" xmlns:xlink="http://www.w3.org/1999/xlink" fill="#000000"><g><path d="M 13,16c 0.552,0, 1-0.448, 1-1L 14,1 c0-0.552-0.448-1-1-1L 3,0 C 2.448,0, 2,0.448, 2,1l0,14 c0,0.552, 0.448,1, 1,1L 13,16 z M 8,15.562c-0.311,0-0.562-0.252-0.562-0.562S 7.689,14.438, 8,14.438S 8.562,14.689, 8.562,15S 8.311,15.562, 8,15.562z M 4,2l 8,0 l0,12 L 4,14 L 4,2 z"></path></g></svg>