<?xml version="1.0" encoding="utf-8"?> <!-- Generator: IcoMoon.io --> <!DOCTYPE svg PUBLIC "-//W3C//DTD SVG 1.1//EN" "http://www.w3.org/Graphics/SVG/1.1/DTD/svg11.dtd"> <svg width="16" height="16" viewBox="0 0 16 16" xmlns="http://www.w3.org/2000/svg" xmlns:xlink="http://www.w3.org/1999/xlink" fill="#000000"><g><path d="M 3,16l 10,0 c 0.552,0, 1-0.448, 1-1L 14,4 c0-0.552-0.448-1-1-1l-2.005,0 C 10.971,1.339, 9.641,0, 8,0S 5.029,1.339, 5.005,3 L 3,3 C 2.448,3, 2,3.448, 2,4l0,11 C 2,15.552, 2.448,16, 3,16z M 13,4l0,11 L 3,15 L 3,4 L 13,4 z M 8,1c 1.087,0, 1.971,0.893, 1.995,2L 6.005,3 C 6.029,1.893, 6.913,1, 8,1zM 6.5,6l 3,0 C 9.776,6, 10,5.776, 10,5.5C 10,5.224, 9.776,5, 9.5,5l-3,0 C 6.224,5, 6,5.224, 6,5.5C 6,5.776, 6.224,6, 6.5,6z "></path></g></svg>