<?xml version="1.0" encoding="utf-8"?> <!-- Generator: IcoMoon.io --> <!DOCTYPE svg PUBLIC "-//W3C//DTD SVG 1.1//EN" "http://www.w3.org/Graphics/SVG/1.1/DTD/svg11.dtd"> <svg width="16" height="16" viewBox="0 0 16 16" xmlns="http://www.w3.org/2000/svg" xmlns:xlink="http://www.w3.org/1999/xlink" fill="#000000"><g><path d="M 15,5l-4,0 L 11,4 c0-0.552-0.448-1-1-1L 6,3 C 5.448,3, 5,3.448, 5,4l0,1 L 1,5 C 0.448,5,0,5.448,0,6l0,2 l 6,0 l 4,0 l 6,0 L 16,6 C 16,5.448, 15.552,5, 15,5z M 6,4l 4,0 l0,1 L 6,5 L 6,4 zM 6,9L 10,9L 10,10L 6,10zM 11,10c0,0.552-0.448,1-1,1L 6,11 c-0.552,0-1-0.448-1-1L 5,9 L0,9 l0,6 c0,0.552, 0.448,1, 1,1l 14,0 c 0.552,0, 1-0.448, 1-1L 16,9 l-5,0 L 11,10 z"></path></g></svg>