<?xml version="1.0" encoding="utf-8"?> <!-- Generator: IcoMoon.io --> <!DOCTYPE svg PUBLIC "-//W3C//DTD SVG 1.1//EN" "http://www.w3.org/Graphics/SVG/1.1/DTD/svg11.dtd"> <svg width="16" height="16" viewBox="0 0 16 16" xmlns="http://www.w3.org/2000/svg" xmlns:xlink="http://www.w3.org/1999/xlink" fill="#000000"><g><path d="M 8.5,1C 4.358,1, 1,4.358, 1,8.5S 4.358,16, 8.5,16S 16,12.642, 16,8.5S 12.642,1, 8.5,1z M 8.5,15 C 4.916,15, 2,12.084, 2,8.5S 4.916,2, 8.5,2S 15,4.916, 15,8.5S 12.084,15, 8.5,15zM 12.5,8l-8,0 C 4.224,8, 4,8.224, 4,8.5C 4,8.776, 4.224,9, 4.5,9l 8,0 C 12.776,9, 13,8.776, 13,8.5 C 13,8.224, 12.776,8, 12.5,8zM 12.5,5l-8,0 C 4.224,5, 4,5.224, 4,5.5C 4,5.776, 4.224,6, 4.5,6l 8,0 C 12.776,6, 13,5.776, 13,5.5 C 13,5.224, 12.776,5, 12.5,5zM 12.5,11l-8,0 C 4.224,11, 4,11.224, 4,11.5C 4,11.776, 4.224,12, 4.5,12l 8,0 c 0.276,0, 0.5-0.224, 0.5-0.5 C 13,11.224, 12.776,11, 12.5,11z"></path></g></svg>