<?xml version="1.0" encoding="utf-8"?> <!-- Generator: IcoMoon.io --> <!DOCTYPE svg PUBLIC "-//W3C//DTD SVG 1.1//EN" "http://www.w3.org/Graphics/SVG/1.1/DTD/svg11.dtd"> <svg width="16.124000549316406" height="16.124000549316406" viewBox="0 0 16.124000549316406 16.124000549316406" xmlns="http://www.w3.org/2000/svg" xmlns:xlink="http://www.w3.org/1999/xlink" fill="#000000"><g><path d="M 9.5,0C 5.91,0, 3,2.91, 3,6.5c0,1.545, 0.542,2.963, 1.442,4.079l-4.296,4.296c-0.27,0.27-0.27,0.709,0,0.979 c 0.27,0.27, 0.709,0.27, 0.979,0l 4.296-4.296C 6.537,12.458, 7.955,13, 9.5,13c 3.59,0, 6.5-2.91, 6.5-6.5S 13.090,0, 9.5,0z M 9.5,12 C 6.467,12, 4,9.533, 4,6.5S 6.467,1, 9.5,1S 15,3.467, 15,6.5S 12.533,12, 9.5,12z"></path></g></svg>