<?xml version="1.0" encoding="utf-8"?> <!-- Generator: IcoMoon.io --> <!DOCTYPE svg PUBLIC "-//W3C//DTD SVG 1.1//EN" "http://www.w3.org/Graphics/SVG/1.1/DTD/svg11.dtd"> <svg width="16" height="16" viewBox="0 0 16 16" xmlns="http://www.w3.org/2000/svg" xmlns:xlink="http://www.w3.org/1999/xlink" fill="#000000"><g><path d="M 8,0C 3.582,0,0,3.582,0,8s 3.582,8, 8,8s 8-3.582, 8-8S 12.418,0, 8,0z M 8,15c-3.86,0-7-3.14-7-7s 3.14-7, 7-7 s 7,3.14, 7,7S 11.86,15, 8,15zM 8,3C 7.448,3, 7,3.448, 7,4l0,5 c0,0.552, 0.448,1, 1,1s 1-0.448, 1-1L 9,4 C 9,3.448, 8.552,3, 8,3zM 7,11.984A1,1 720 1 0 9,11.984A1,1 720 1 0 7,11.984z"></path></g></svg>