<?xml version="1.0" encoding="utf-8"?> <!-- Generator: IcoMoon.io --> <!DOCTYPE svg PUBLIC "-//W3C//DTD SVG 1.1//EN" "http://www.w3.org/Graphics/SVG/1.1/DTD/svg11.dtd"> <svg width="16" height="16" viewBox="0 0 16 16" xmlns="http://www.w3.org/2000/svg" xmlns:xlink="http://www.w3.org/1999/xlink" fill="#000000"><g><path d="M 15,2l-5,0 C 9.448,2, 9,2.448, 9,3c0,0-0.13,0.917-1,1L 1,4 C 0.448,4,0,4.432,0,4.984L0,14 c0,0.552, 0.448,1, 1,1l 6.003,0 l0-5 L 4.881,10 l 3.122-4l 3.122,4L 9.003,10 l0,5 L 15,15 c 0.552,0, 1-0.448, 1-1L 16,6 L 16,4.984 L 16,3 C 16,2.448, 15.552,2, 15,2z"></path></g></svg>