<?xml version="1.0" encoding="utf-8"?> <!-- Generator: IcoMoon.io --> <!DOCTYPE svg PUBLIC "-//W3C//DTD SVG 1.1//EN" "http://www.w3.org/Graphics/SVG/1.1/DTD/svg11.dtd"> <svg width="16" height="16" viewBox="0 0 16 16" xmlns="http://www.w3.org/2000/svg" xmlns:xlink="http://www.w3.org/1999/xlink" fill="#000000"><g><path d="M 15,15L 15,7 c0-0.552-0.448-1-1-1L 3.995,6 L 4,5.576C 4,2.882, 5.664,1, 8.048,1c 1.745,0, 3.3,1.003, 4.059,2.618 c 0.117,0.25, 0.414,0.357, 0.665,0.239c 0.25-0.117, 0.357-0.415, 0.239-0.665C 12.086,1.224, 10.185,0, 8.048,0C 5.123,0, 3,2.345, 3,5.57 L 2.995,6L 2,6 C 1.448,6, 1,6.448, 1,7l0,8 c0,0.552, 0.448,1, 1,1l 12,0 C 14.552,16, 15,15.552, 15,15z M 2,7l 12,0 l0,8 L 2,15 L 2,7 zM 8,9c-1.105,0-2,0.895-2,2s 0.895,2, 2,2s 2-0.895, 2-2S 9.105,9, 8,9z M 8,12c-0.551,0-1-0.449-1-1s 0.449-1, 1-1 s 1,0.449, 1,1S 8.551,12, 8,12z"></path></g></svg>