<?xml version="1.0" encoding="utf-8"?> <!-- Generator: IcoMoon.io --> <!DOCTYPE svg PUBLIC "-//W3C//DTD SVG 1.1//EN" "http://www.w3.org/Graphics/SVG/1.1/DTD/svg11.dtd"> <svg width="16" height="16.0310001373291" viewBox="0 0 16 16.0310001373291" xmlns="http://www.w3.org/2000/svg" xmlns:xlink="http://www.w3.org/1999/xlink" fill="#000000"><g><path d="M 8,0C 4.692,0, 2,2.692, 2,6c0,1.934, 0.94,3.76, 2.516,4.885c 0.024,0.017, 0.049,0.033, 0.074,0.048 c 0.366,0.215, 0.402,0.908, 0.394,1.035c-0.001,0.021-0.002,0.042-0.002,0.062L 4.982,14 c0,0.376, 0.21,0.719, 0.545,0.89l 2.018,1.031 c 0.143,0.073, 0.299,0.11, 0.455,0.11c 0.155,0, 0.309-0.036, 0.451-0.107l 2.042-1.031c 0.337-0.17, 0.549-0.515, 0.549-0.893l0-1.958 c0-0.987, 0.603-1.313, 0.609-1.316c 0.080-0.037, 0.154-0.085, 0.221-0.142C 13.224,9.44, 14,7.77, 14,6C 14,2.692, 11.308,0, 8,0z M 5.982,12.031c0,0,0-0.020, 0.001-0.031l 4.062,0 c0,0.015-0.004,0.026-0.004,0.042c0,0.393,0,0.704,0,0.958L 5.982,13 L 5.982,12.031 z M 8,15.031 L 5.983,14l 4.059,0 L 8,15.031z M 11.226,9.82c0,0-0.67,0.315-1.002,1.18L 5.822,11 c-0.124-0.346-0.339-0.702-0.725-0.929 C 3.828,9.165, 3,7.679, 3,6c0-2.761, 2.239-5, 5-5s 5,2.239, 5,5C 13,7.532, 12.311,8.903, 11.226,9.82zM 8.5,2C 8.224,2, 8,2.224, 8,2.5S 8.224,3, 8.5,3C 9.625,3, 11,4.023, 11,5.547c0,0.276, 0.224,0.5, 0.5,0.5 s 0.5-0.224, 0.5-0.5C 12,3.266, 10.219,2, 8.5,2z"></path></g></svg>