<?xml version="1.0" encoding="utf-8"?> <!-- Generator: IcoMoon.io --> <!DOCTYPE svg PUBLIC "-//W3C//DTD SVG 1.1//EN" "http://www.w3.org/Graphics/SVG/1.1/DTD/svg11.dtd"> <svg width="16" height="16" viewBox="0 0 16 16" xmlns="http://www.w3.org/2000/svg" xmlns:xlink="http://www.w3.org/1999/xlink" fill="#000000"><g><path d="M 4,5l0,7 c0,0.552, 0.448,1, 1,1l 7,0 c 0.552,0, 1-0.448, 1-1L 13,5 c0-0.552-0.448-1-1-1L 5,4 C 4.448,4, 4,4.448, 4,5z M 12,12L 5,12 L 5,5 l 7,0 L 12,12 zM 6.5,9l 4,0 C 10.776,9, 11,8.776, 11,8.5C 11,8.224, 10.776,8, 10.5,8l-4,0 C 6.224,8, 6,8.224, 6,8.5 C 6,8.776, 6.224,9, 6.5,9z"></path></g></svg>