<?xml version="1.0" encoding="utf-8"?> <!-- Generator: IcoMoon.io --> <!DOCTYPE svg PUBLIC "-//W3C//DTD SVG 1.1//EN" "http://www.w3.org/Graphics/SVG/1.1/DTD/svg11.dtd"> <svg width="16" height="16.02699851989746" viewBox="0 0 16 16.02699851989746" xmlns="http://www.w3.org/2000/svg" xmlns:xlink="http://www.w3.org/1999/xlink" fill="#000000"><g><path d="M 1,12.127l 2.295,0 c 0.181,0.18, 4.351,3.69, 4.351,3.69c 0.251,0.152, 0.464,0.196, 0.646,0.179 c 0.37-0.035, 0.63-0.345, 0.709-0.672C 9.005,15.292, 9.005,0.708, 9,0.676C 8.922,0.348, 8.661,0.038, 8.292,0.003 C 8.11-0.014, 7.897,0.030, 7.646,0.182c0,0-4.17,3.638-4.351,3.818L 1,4 C 0.448,4,0,4.448,0,5l0,0.127 L0,11 l0,0.127 C0,11.68, 0.448,12.127, 1,12.127zM 10.541,9.747c-0.247,0.125-0.346,0.425-0.222,0.672c 0.088,0.174, 0.264,0.275, 0.446,0.275 c 0.076,0, 0.152-0.017, 0.225-0.053C 12.001,10.131, 12.629,9.12, 12.629,8s-0.628-2.131-1.639-2.641 c-0.247-0.125-0.546-0.025-0.671,0.222c-0.124,0.247-0.025,0.547, 0.222,0.672C 11.212,6.591, 11.629,7.26, 11.629,8 S 11.212,9.409, 10.541,9.747zM 9.853,13.739c 0.047,0.239, 0.256,0.404, 0.49,0.404c 0.032,0, 0.064-0.003, 0.097-0.009 C 13.372,13.562, 15.5,10.982, 15.5,8s-2.128-5.562-5.061-6.134C 10.172,1.812, 9.905,1.99, 9.853,2.261 C 9.8,2.532, 9.977,2.795, 10.248,2.848C 12.712,3.328, 14.5,5.495, 14.5,8s-1.788,4.672-4.252,5.152 C 9.977,13.205, 9.8,13.468, 9.853,13.739z"></path></g></svg>