<?xml version="1.0" encoding="utf-8"?> <!-- Generator: IcoMoon.io --> <!DOCTYPE svg PUBLIC "-//W3C//DTD SVG 1.1//EN" "http://www.w3.org/Graphics/SVG/1.1/DTD/svg11.dtd"> <svg width="16" height="16" viewBox="0 0 16 16" xmlns="http://www.w3.org/2000/svg" xmlns:xlink="http://www.w3.org/1999/xlink" fill="#000000"><g><path d="M 13.955,5.895c 0.088,0.396, 0.139,0.803, 0.139,1.221c0,3.228-2.74,5.919-6.348,6.497 c 0.763,0.308, 1.618,0.488, 2.529,0.488c 0.859,0, 1.67-0.158, 2.402-0.433c 0.927,0.316, 1.939,0.398, 2.776,0.398 c-0.435-0.522-0.737-1.034-0.953-1.484C 15.428,11.754, 16,10.657, 16,9.449C 16,8.021, 15.203,6.748, 13.955,5.895zM 12.594,7.116C 12.594,4.291, 9.775,2, 6.297,2S0,4.291,0,7.116c0,1.474, 0.771,2.798, 1.999,3.732 c-0.231,0.596-0.622,1.375-1.285,2.172c 1.258,0, 2.878-0.165, 4.125-0.931c 0.469,0.091, 0.956,0.144, 1.458,0.144 C 9.775,12.232, 12.594,9.942, 12.594,7.116z"></path></g></svg>