<?xml version="1.0" encoding="utf-8"?> <!-- Generator: IcoMoon.io --> <!DOCTYPE svg PUBLIC "-//W3C//DTD SVG 1.1//EN" "http://www.w3.org/Graphics/SVG/1.1/DTD/svg11.dtd"> <svg width="16" height="16" viewBox="0 0 16 16" xmlns="http://www.w3.org/2000/svg" xmlns:xlink="http://www.w3.org/1999/xlink" fill="#000000"><g><path d="M 7,12.904L 7,15 L 5.5,15 C 5.224,15, 5,15.224, 5,15.5C 5,15.776, 5.224,16, 5.5,16l 2.49,0 L 8.010,16 l 2.49,0 c 0.276,0, 0.5-0.224, 0.5-0.5c0-0.276-0.224-0.5-0.5-0.5L 9,15 l0-2.102 c 2.083-0.411, 4-2.097, 4-4.898L 13,6.5 C 13,6.224, 12.776,6, 12.5,6 S 12,6.224, 12,6.5L 12,8 c0,2.626-2.013,4-4,4c-1.927,0-4-1.252-4-4L 4,6.5 C 4,6.224, 3.776,6, 3.5,6S 3,6.224, 3,6.5L 3,8 C 3,10.84, 4.883,12.506, 7,12.904zM 8,10c 1.105,0, 2-0.895, 2-2L 10,2 c0-1.105-0.895-2-2-2S 6,0.895, 6,2l0,6 C 6,9.105, 6.895,10, 8,10z"></path></g></svg>