<?xml version="1.0" encoding="utf-8"?> <!-- Generator: IcoMoon.io --> <!DOCTYPE svg PUBLIC "-//W3C//DTD SVG 1.1//EN" "http://www.w3.org/Graphics/SVG/1.1/DTD/svg11.dtd"> <svg width="16" height="16.031999588012695" viewBox="0 0 16 16.031999588012695" xmlns="http://www.w3.org/2000/svg" xmlns:xlink="http://www.w3.org/1999/xlink" fill="#000000"><g><path d="M 13.588,8.078c 0.071-0.19, 0.13-0.386, 0.181-0.583c 0.009-0.034, 0.020-0.066, 0.028-0.1 c 0.045-0.185, 0.077-0.374, 0.104-0.564c 0.006-0.044, 0.017-0.088, 0.022-0.132C 13.95,6.468, 13.965,6.235, 13.965,6c0-3.308-2.692-6-6-6 s-6,2.692-6,6c0,0.235, 0.015,0.468, 0.043,0.698C 2.013,6.743, 2.023,6.786, 2.029,6.83c 0.027,0.19, 0.059,0.379, 0.104,0.564 c 0.008,0.034, 0.019,0.067, 0.028,0.1c 0.051,0.197, 0.11,0.393, 0.181,0.583c 0.007,0.018, 0.015,0.036, 0.021,0.054 c 0.079,0.205, 0.167,0.406, 0.268,0.601C 2.635,8.74, 2.639,8.747, 2.643,8.754c 0.105,0.202, 0.221,0.398, 0.349,0.588 c 0.004,0.006, 0.008,0.011, 0.011,0.017c 0.125,0.185, 0.261,0.362, 0.406,0.533c 0.012,0.014, 0.023,0.027, 0.035,0.041 c 0.132,0.153, 0.275,0.298, 0.423,0.438c 0.033,0.031, 0.064,0.062, 0.098,0.092c 0.044,0.039, 0.083,0.083, 0.129,0.121 c 0.027,0.023, 0.060,0.038, 0.090,0.057c 0.099,0.082, 0.193,0.168, 0.298,0.244c 0.042,0.030, 0.068,0.059, 0.104,0.089 C 5.276,11.547, 4.939,12, 5.707,12c 0.107,0, 3.508,0, 4.516,0c 0.767,0, 0.431-0.453, 1.122-1.026c 0.036-0.030, 0.062-0.058, 0.104-0.089 c 0.105-0.076, 0.199-0.162, 0.298-0.244c 0.029-0.020, 0.062-0.034, 0.090-0.057c 0.045-0.038, 0.085-0.082, 0.129-0.121 c 0.033-0.030, 0.065-0.062, 0.098-0.092c 0.148-0.14, 0.29-0.285, 0.423-0.438c 0.012-0.014, 0.023-0.027, 0.035-0.041 c 0.145-0.171, 0.281-0.348, 0.406-0.533c 0.004-0.006, 0.008-0.011, 0.011-0.017c 0.127-0.189, 0.243-0.385, 0.348-0.587 c 0.004-0.007, 0.008-0.015, 0.012-0.022c 0.101-0.195, 0.189-0.396, 0.268-0.601C 13.573,8.113, 13.581,8.096, 13.588,8.078z M 11.5,6.047 c-0.276,0-0.5-0.224-0.5-0.5C 11,4.023, 9.625,3, 8.5,3C 8.224,3, 8,2.776, 8,2.5S 8.224,2, 8.5,2C 10.219,2, 12,3.266, 12,5.547 C 12,5.823, 11.776,6.047, 11.5,6.047zM 7.904,15L 6.805,15 L 5.707,15 l 1.803,0.922c 0.143,0.073, 0.299,0.11, 0.455,0.11c 0.154,0, 0.309-0.036, 0.451-0.107 L 10.245,15L 9.136,15 L 8.027,15 L 7.904,15 zM 11,13.5c0-0.276-0.224-0.5-0.5-0.5l-5,0 C 5.224,13, 5,13.224, 5,13.5C 5,13.776, 5.224,14, 5.5,14l 5,0 C 10.776,14, 11,13.776, 11,13.5z"></path></g></svg>