<?xml version="1.0" encoding="utf-8"?> <!-- Generator: IcoMoon.io --> <!DOCTYPE svg PUBLIC "-//W3C//DTD SVG 1.1//EN" "http://www.w3.org/Graphics/SVG/1.1/DTD/svg11.dtd"> <svg width="16" height="16" viewBox="0 0 16 16" xmlns="http://www.w3.org/2000/svg" xmlns:xlink="http://www.w3.org/1999/xlink" fill="#000000"><g><path d="M 15,3l-4.516,0 C 9.932,3, 9.297,3.281, 9,4c0,0-0.13,0.917-1,1L 1,5 C 0.448,5,0,5.432,0,5.984L0,15 c0,0.552, 0.448,1, 1,1l 14,0 c 0.552,0, 1-0.448, 1-1L 16,7 L 16,5.984 L 16,4 C 16,3.448, 15.552,3, 15,3z M 15,5.984L 15,7 l0,8 L 1,15 L 1,6 l 7,0 c 0.032,0, 0.063-0.002, 0.095-0.005C 9.033,5.906, 9.613,5.25, 9.881,4.575C 10.141,3.922, 10.594,4, 10.594,4L 15,4 L 15,5.984 z"></path></g></svg>