<?xml version="1.0" encoding="utf-8"?> <!-- Generator: IcoMoon.io --> <!DOCTYPE svg PUBLIC "-//W3C//DTD SVG 1.1//EN" "http://www.w3.org/Graphics/SVG/1.1/DTD/svg11.dtd"> <svg width="16" height="16" viewBox="0 0 16 16" xmlns="http://www.w3.org/2000/svg" xmlns:xlink="http://www.w3.org/1999/xlink" fill="#000000"><g><path d="M 0.489,8.599l 1.735-0.064C 2.429,8.801, 2.666,9.043, 2.93,9.259l-0.114,1.737 c 0.19,0.108, 0.386,0.208, 0.592,0.297c 0.205,0.089, 0.413,0.162, 0.622,0.227l 1.185-1.275c 0.339,0.043, 0.677,0.049, 1.010,0.016 l 1.145,1.306c 0.427-0.117, 0.839-0.281, 1.229-0.489L 8.536,9.342C 8.801,9.137, 9.043,8.9, 9.259,8.636l 1.737,0.114 c 0.108-0.19, 0.208-0.386, 0.297-0.592c 0.089-0.205, 0.162-0.413, 0.227-0.622l-1.275-1.185c 0.043-0.339, 0.049-0.677, 0.016-1.010 l 1.306-1.145c-0.117-0.427-0.281-0.839-0.489-1.229L 9.342,3.030C 9.137,2.765, 8.9,2.523, 8.636,2.307L 8.75,0.57 C 8.56,0.462, 8.364,0.362, 8.158,0.273C 7.953,0.185, 7.745,0.111, 7.536,0.047L 6.352,1.322c-0.339-0.043-0.677-0.049-1.010-0.016 L 4.196,0C 3.769,0.117, 3.357,0.281, 2.967,0.489L 3.030,2.224C 2.765,2.429, 2.523,2.665, 2.307,2.929L 0.57,2.816 c-0.108,0.19-0.208,0.386-0.297,0.592C 0.185,3.613, 0.111,3.821, 0.047,4.030l 1.275,1.185c-0.043,0.339-0.049,0.677-0.016,1.010L0,7.37 C 0.117,7.796, 0.281,8.209, 0.489,8.599z M 6.971,3.028c 1.521,0.656, 2.223,2.421, 1.567,3.943S 6.117,9.194, 4.595,8.538 S 2.372,6.117, 3.028,4.595S 5.449,2.372, 6.971,3.028zM 4.283,5.783A1.5,1.5 720 1 0 7.283,5.783A1.5,1.5 720 1 0 4.283,5.783zM 15.021,11.774l-0.414-0.147l 0.189-0.398l 0.435-0.915c-0.161-0.201-0.344-0.384-0.546-0.546l-0.915,0.435 l-0.398,0.189l-0.147-0.414l-0.34-0.957C 12.759,9.008, 12.63,9, 12.5,9s-0.259,0.008-0.386,0.022l-0.34,0.957l-0.147,0.414 l-0.398-0.189l-0.915-0.435c-0.201,0.161-0.384,0.344-0.546,0.546l 0.435,0.915l 0.189,0.398l-0.414,0.147l-0.957,0.34 C 9.008,12.241, 9,12.37, 9,12.5s 0.008,0.259, 0.022,0.385l 0.957,0.34l 0.414,0.147l-0.189,0.398l-0.435,0.915 c 0.161,0.201, 0.344,0.384, 0.546,0.546l 0.915-0.435l 0.398-0.189l 0.147,0.414l 0.34,0.957C 12.241,15.992, 12.37,16, 12.5,16 s 0.259-0.008, 0.386-0.022l 0.34-0.957l 0.147-0.414l 0.398,0.189l 0.915,0.435c 0.201-0.161, 0.384-0.344, 0.546-0.546l-0.435-0.915 l-0.189-0.398l 0.414-0.147l 0.957-0.34C 15.992,12.759, 16,12.63, 16,12.5s-0.008-0.259-0.022-0.386L 15.021,11.774z M 12.5,13.25 c-0.414,0-0.75-0.336-0.75-0.75c0-0.414, 0.336-0.75, 0.75-0.75s 0.75,0.336, 0.75,0.75C 13.25,12.914, 12.914,13.25, 12.5,13.25z"></path></g></svg>