<?xml version="1.0" encoding="utf-8"?> <!-- Generator: IcoMoon.io --> <!DOCTYPE svg PUBLIC "-//W3C//DTD SVG 1.1//EN" "http://www.w3.org/Graphics/SVG/1.1/DTD/svg11.dtd"> <svg width="16" height="16" viewBox="0 0 16 16" xmlns="http://www.w3.org/2000/svg" xmlns:xlink="http://www.w3.org/1999/xlink" fill="#000000"><g><path d="M 15.992,6.917C 15.95,4.463, 13.959,2.276, 11.5,2.276c-1.422,0-2.675,0.744-3.5,1.836 C 7.175,3.020, 5.922,2.276, 4.5,2.276c-2.459,0-4.45,2.187-4.492,4.641L0,6.917 c0,0.015, 0.003,0.029, 0.003,0.044 C 0.003,6.972,0,6.983,0,6.995c0,0.069, 0.017,0.121, 0.020,0.187C 0.24,13.436, 7.937,16, 7.937,16s 7.81-2.561, 8.041-8.808 C 15.982,7.122, 16,7.067, 16,6.995c0-0.012-0.003-0.023-0.003-0.034C 15.997,6.945, 16,6.932, 16,6.917L 15.992,6.917 z M 14.979,7.155 c-0.177,4.8-5.658,7.24-7.040,7.779c-1.37-0.54-6.751-2.969-6.92-7.798C 1.017,7.086, 1.012,7.040, 1.005,6.99 c 0.001-0.018, 0.002-0.037, 0.003-0.056C 1.042,4.951, 2.641,3.276, 4.5,3.276c 1.026,0, 2.011,0.524, 2.702,1.439 C 7.391,4.965, 7.686,5.112, 8,5.112s 0.609-0.147, 0.798-0.397C 9.489,3.8, 10.474,3.276, 11.5,3.276c 1.859,0, 3.458,1.675, 3.492,3.658 c0,0.019, 0.001,0.038, 0.003,0.057C 14.988,7.040, 14.982,7.092, 14.979,7.155z"></path></g></svg>