<?xml version="1.0" encoding="utf-8"?> <!-- Generator: IcoMoon.io --> <!DOCTYPE svg PUBLIC "-//W3C//DTD SVG 1.1//EN" "http://www.w3.org/Graphics/SVG/1.1/DTD/svg11.dtd"> <svg width="16" height="16" viewBox="0 0 16 16" xmlns="http://www.w3.org/2000/svg" xmlns:xlink="http://www.w3.org/1999/xlink" fill="#000000"><g><path d="M 15,3l-3.516,0 C 10.932,3, 10.297,3.281, 10,4c0,0-0.13,0.917-1,1L 2,5 C 1.448,5, 1,5.432, 1,5.984L 1,15 c0,0.552, 0.448,1, 1,1l 13,0 c 0.552,0, 1-0.448, 1-1L 16,7 L 16,5.984 L 16,4 C 16,3.448, 15.552,3, 15,3z M 15,5.984L 15,7 l0,8 L 2,15 L 2,6 l 7,0 c 0.032,0, 0.063-0.002, 0.095-0.005c 0.938-0.089, 1.518-0.746, 1.786-1.421C 11.141,3.922, 11.594,4, 11.594,4L 15,4 L 15,5.984 zM 11,10L 9,10 L 9,8 c0-0.276-0.224-0.5-0.5-0.5S 8,7.724, 8,8l0,2 L 6,10 c-0.276,0-0.5,0.224-0.5,0.5 C 5.5,10.776, 5.724,11, 6,11l 2,0 l0,2 c0,0.276, 0.224,0.5, 0.5,0.5S 9,13.276, 9,13l0-2 l 2,0 c 0.276,0, 0.5-0.224, 0.5-0.5 C 11.5,10.224, 11.276,10, 11,10z"></path></g></svg>