<?xml version="1.0" encoding="utf-8"?> <!-- Generator: IcoMoon.io --> <!DOCTYPE svg PUBLIC "-//W3C//DTD SVG 1.1//EN" "http://www.w3.org/Graphics/SVG/1.1/DTD/svg11.dtd"> <svg width="16.392000198364258" height="16" viewBox="0 0 16.392000198364258 16" xmlns="http://www.w3.org/2000/svg" xmlns:xlink="http://www.w3.org/1999/xlink" fill="#000000"><g><path d="M 8.533,1.067c-1.911,0-3.822,0.729-5.28,2.187c-2.916,2.916-2.916,7.644,0,10.559 C 4.712,15.271, 6.622,16, 8.533,16s 3.822-0.729, 5.28-2.187c 2.916-2.916, 2.916-7.644,0-10.559C 12.355,1.796, 10.444,1.067, 8.533,1.067z M 13.106,13.106C 11.885,14.327, 10.261,15, 8.533,15c-1.727,0-3.351-0.673-4.573-1.894c-1.221-1.221-1.894-2.845-1.894-4.573 s 0.673-3.351, 1.894-4.573c 1.221-1.221, 2.845-1.894, 4.573-1.894c 1.727,0, 3.351,0.673, 4.573,1.894S 15,6.806, 15,8.533 S 14.327,11.885, 13.106,13.106zM 11.5,8L 9,8 L 9,4.493 c0-0.276-0.224-0.5-0.5-0.5S 8,4.217, 8,4.493l0,4.004 c0,0,0,0.001,0,0.001L 8,8.5 C 8,8.776, 8.224,9, 8.5,9l 3,0 C 11.776,9, 12,8.776, 12,8.5C 12,8.224, 11.776,8, 11.5,8z"></path></g></svg>