<?xml version="1.0" encoding="utf-8"?> <!-- Generator: IcoMoon.io --> <!DOCTYPE svg PUBLIC "-//W3C//DTD SVG 1.1//EN" "http://www.w3.org/Graphics/SVG/1.1/DTD/svg11.dtd"> <svg width="16" height="16" viewBox="0 0 16 16" xmlns="http://www.w3.org/2000/svg" xmlns:xlink="http://www.w3.org/1999/xlink" fill="#000000"><g><path d="M 5.025,11.975c 0.195,0.195, 0.512,0.195, 0.707,0L 8.5,9.207l 2.768,2.768c 0.195,0.195, 0.512,0.195, 0.707,0 c 0.195-0.195, 0.195-0.512,0-0.707L 9.207,8.5l 2.768-2.768c 0.195-0.195, 0.195-0.512,0-0.707c-0.195-0.195-0.512-0.195-0.707,0 L 8.5,7.793L 5.732,5.025c-0.195-0.195-0.512-0.195-0.707,0c-0.195,0.195-0.195,0.512,0,0.707L 7.793,8.5l-2.768,2.768 C 4.83,11.463, 4.83,11.78, 5.025,11.975z"></path></g></svg>