<?xml version="1.0" encoding="utf-8"?> <!-- Generator: IcoMoon.io --> <!DOCTYPE svg PUBLIC "-//W3C//DTD SVG 1.1//EN" "http://www.w3.org/Graphics/SVG/1.1/DTD/svg11.dtd"> <svg width="16.059999465942383" height="16.02699851989746" viewBox="0 0 16.059999465942383 16.02699851989746" xmlns="http://www.w3.org/2000/svg" xmlns:xlink="http://www.w3.org/1999/xlink" fill="#000000"><g><path d="M 1,12.127l 2.295,0 c 0.181,0.18, 4.351,3.69, 4.351,3.69c 0.251,0.152, 0.464,0.196, 0.646,0.179 c 0.37-0.035, 0.63-0.345, 0.709-0.672C 9.005,15.292, 9.005,0.708, 9,0.676C 8.922,0.348, 8.661,0.038, 8.292,0.003 C 8.11-0.014, 7.897,0.030, 7.646,0.182c0,0-4.17,3.638-4.351,3.818L 1,4 C 0.448,4,0,4.448,0,5l0,0.127 L0,11 l0,0.127 C0,11.68, 0.448,12.127, 1,12.127zM 15.821,5.411c-0.238-0.238-0.625-0.238-0.863,0l-1.726,1.726l-1.726-1.726 c-0.238-0.238-0.625-0.238-0.863,0c-0.238,0.238-0.238,0.625,0,0.863L 12.369,8l-1.726,1.726c-0.238,0.238-0.238,0.625,0,0.863 c 0.238,0.238, 0.625,0.238, 0.863,0l 1.726-1.726l 1.726,1.726c 0.238,0.238, 0.625,0.238, 0.863,0c 0.238-0.238, 0.238-0.625,0-0.863 L 14.095,8l 1.726-1.726C 16.060,6.036, 16.060,5.649, 15.821,5.411z"></path></g></svg>