<?xml version="1.0" encoding="utf-8"?> <!-- Generator: IcoMoon.io --> <!DOCTYPE svg PUBLIC "-//W3C//DTD SVG 1.1//EN" "http://www.w3.org/Graphics/SVG/1.1/DTD/svg11.dtd"> <svg width="16" height="16" viewBox="0 0 16 16" xmlns="http://www.w3.org/2000/svg" xmlns:xlink="http://www.w3.org/1999/xlink" fill="#000000"><g><path d="M 13.955,5.895c 0.088,0.396, 0.139,0.803, 0.139,1.221c0,3.228-2.74,5.919-6.348,6.497 c 0.763,0.308, 1.618,0.488, 2.529,0.488c 0.859,0, 1.67-0.158, 2.402-0.433c 0.927,0.316, 1.939,0.398, 2.776,0.398 c-0.435-0.522-0.737-1.034-0.953-1.484C 15.428,11.754, 16,10.657, 16,9.449C 16,8.021, 15.203,6.748, 13.955,5.895zM 0.736,12.709c 0.087,0.165, 0.258,0.268, 0.443,0.268c 0.008,0, 0.017,0, 0.024-0.001 c 0.529-0.025, 1.581-0.376, 2.695-1.083c 0.596,0.105, 1.931,0.303, 2.397,0.303c 3.517,0, 6.271-2.449, 6.271-5.576 c0-3.075-2.812-5.576-6.271-5.576S 0.026,3.544, 0.026,6.619c0,1.431, 0.63,2.814, 1.739,3.849c-0.249,0.606-0.579,1.179-0.982,1.704 C 0.664,12.326, 0.646,12.536, 0.736,12.709z M 1.026,6.619c0-2.523, 2.364-4.576, 5.271-4.576s 5.271,2.053, 5.271,4.576 c0,2.608-2.266,4.576-5.271,4.576c-0.395,0-1.967-0.229-2.399-0.32c-0.132-0.026-0.269-0.002-0.379,0.073 c-0.429,0.284-0.833,0.499-1.185,0.657c 0.191-0.359, 0.356-0.731, 0.494-1.115c 0.071-0.199, 0.010-0.421-0.152-0.555 C 1.612,9.060, 1.026,7.882, 1.026,6.619z"></path></g></svg>