<?xml version="1.0" encoding="utf-8"?> <!-- Generator: IcoMoon.io --> <!DOCTYPE svg PUBLIC "-//W3C//DTD SVG 1.1//EN" "http://www.w3.org/Graphics/SVG/1.1/DTD/svg11.dtd"> <svg width="16" height="16" viewBox="0 0 16 16" xmlns="http://www.w3.org/2000/svg" xmlns:xlink="http://www.w3.org/1999/xlink" fill="#000000"><g><path d="M 2.617,15.924C 2.741,15.975, 2.871,16, 3,16c 0.26,0, 0.516-0.102, 0.707-0.293L 8,11.414l 4.293,4.293 C 12.484,15.898, 12.74,16, 13,16c 0.129,0, 0.259-0.025, 0.382-0.076C 13.756,15.769, 14,15.404, 14,15L 14,1 c0-0.552-0.448-1-1-1L 3,0 C 2.448,0, 2,0.448, 2,1l0,14 C 2,15.404, 2.244,15.769, 2.617,15.924z M 8,10l-5,5L 3,4 l 10,0 l0,11 L 8,10z M 13,1l0,2 L 3,3 L 3,1 L 13,1 z"></path></g></svg>