<?xml version="1.0" encoding="utf-8"?> <!-- Generator: IcoMoon.io --> <!DOCTYPE svg PUBLIC "-//W3C//DTD SVG 1.1//EN" "http://www.w3.org/Graphics/SVG/1.1/DTD/svg11.dtd"> <svg width="16" height="16" viewBox="0 0 16 16" xmlns="http://www.w3.org/2000/svg" xmlns:xlink="http://www.w3.org/1999/xlink" fill="#000000"><g><path d="M 12,16c 0.552,0, 1-0.448, 1-1L 13,1 c0-0.552-0.448-1-1-1L 5,0 C 4.448,0, 4,0.448, 4,1l0,14 c0,0.552, 0.448,1, 1,1L 12,16 z M 8,14.438c0-0.311, 0.252-0.562, 0.562-0.562s 0.562,0.252, 0.562,0.562S 8.873,15, 8.562,15S 8,14.748, 8,14.438z M 10.5,1 C 10.776,1, 11,1.224, 11,1.5C 11,1.776, 10.776,2, 10.5,2l-1,0 C 9.224,2, 9,1.776, 9,1.5C 9,1.224, 9.224,1, 9.5,1L 10.5,1 z M 8,1.5 C 8,1.776, 7.776,2, 7.5,2S 7,1.776, 7,1.5C 7,1.224, 7.224,1, 7.5,1S 8,1.224, 8,1.5z M 5,3l 7,0 l0,10 L 5,13 L 5,3 z"></path></g></svg>