<?xml version="1.0" encoding="utf-8"?> <!-- Generator: IcoMoon.io --> <!DOCTYPE svg PUBLIC "-//W3C//DTD SVG 1.1//EN" "http://www.w3.org/Graphics/SVG/1.1/DTD/svg11.dtd"> <svg width="16" height="16" viewBox="0 0 16 16" xmlns="http://www.w3.org/2000/svg" xmlns:xlink="http://www.w3.org/1999/xlink" fill="#000000"><g><path d="M 3.5,8l 9,0 C 12.776,8, 13,7.776, 13,7.5C 13,7.224, 12.776,7, 12.5,7l-9,0 C 3.224,7, 3,7.224, 3,7.5 C 3,7.776, 3.224,8, 3.5,8zM 3.5,5l 9,0 C 12.776,5, 13,4.776, 13,4.5C 13,4.224, 12.776,4, 12.5,4l-9,0 C 3.224,4, 3,4.224, 3,4.5 C 3,4.776, 3.224,5, 3.5,5zM 3.5,11l 9,0 c 0.276,0, 0.5-0.224, 0.5-0.5c0-0.276-0.224-0.5-0.5-0.5l-9,0 C 3.224,10, 3,10.224, 3,10.5 C 3,10.776, 3.224,11, 3.5,11z"></path></g></svg>