<?xml version="1.0" encoding="utf-8"?> <!-- Generator: IcoMoon.io --> <!DOCTYPE svg PUBLIC "-//W3C//DTD SVG 1.1//EN" "http://www.w3.org/Graphics/SVG/1.1/DTD/svg11.dtd"> <svg width="16" height="16" viewBox="0 0 16 16" xmlns="http://www.w3.org/2000/svg" xmlns:xlink="http://www.w3.org/1999/xlink" fill="#000000"><g><path d="M 13.5,7l-8,0 C 5.224,7, 5,7.224, 5,7.5C 5,7.776, 5.224,8, 5.5,8l 8,0 C 13.776,8, 14,7.776, 14,7.5 C 14,7.224, 13.776,7, 13.5,7zM 13.5,3l-8,0 C 5.224,3, 5,3.224, 5,3.5C 5,3.776, 5.224,4, 5.5,4l 8,0 C 13.776,4, 14,3.776, 14,3.5 C 14,3.224, 13.776,3, 13.5,3zM 13.5,11l-8,0 C 5.224,11, 5,11.224, 5,11.5C 5,11.776, 5.224,12, 5.5,12l 8,0 c 0.276,0, 0.5-0.224, 0.5-0.5 C 14,11.224, 13.776,11, 13.5,11zM 3.48,4.733L 3.48,2.267L 3.195,2.267L 2.656,2.555L 2.721,2.809L 3.15,2.578L 3.157,2.578L 3.157,4.733 zM 2.687,8.274L 2.426,8.528l0,0.205 L 4,8.733 L 4,8.456 L 2.892,8.456 L 2.892,8.449 l 0.197-0.182c 0.52-0.501, 0.85-0.869, 0.85-1.324 c0-0.353-0.224-0.717-0.755-0.717c-0.285,0-0.527,0.106-0.698,0.251l 0.106,0.235c 0.114-0.095, 0.3-0.209, 0.524-0.209 c 0.368,0, 0.489,0.231, 0.489,0.482C 3.602,7.356, 3.317,7.675, 2.687,8.274zM 3.097,12.464c-0.231,0-0.451-0.095-0.546-0.155l-0.091,0.258c 0.121,0.080, 0.364,0.167, 0.641,0.167 c 0.592,0, 0.899-0.345, 0.899-0.74c0-0.345-0.247-0.573-0.55-0.634l0-0.007 c 0.304-0.11, 0.455-0.326, 0.455-0.581 c0-0.3-0.22-0.588-0.706-0.588c-0.266,0-0.516,0.095-0.645,0.19l 0.087,0.243c 0.106-0.076, 0.296-0.163, 0.493-0.163 c 0.307,0, 0.433,0.175, 0.433,0.372c0,0.292-0.307,0.417-0.55,0.417L 2.831,11.243 l0,0.25 l 0.186,0 c 0.323,0, 0.634,0.148, 0.637,0.493 C 3.659,12.191, 3.526,12.464, 3.097,12.464z"></path></g></svg>