<?xml version="1.0" encoding="utf-8"?> <!-- Generator: IcoMoon.io --> <!DOCTYPE svg PUBLIC "-//W3C//DTD SVG 1.1//EN" "http://www.w3.org/Graphics/SVG/1.1/DTD/svg11.dtd"> <svg width="16" height="16" viewBox="0 0 16 16" xmlns="http://www.w3.org/2000/svg" xmlns:xlink="http://www.w3.org/1999/xlink" fill="#000000"><g><path d="M 8,16c 4.418,0, 8-3.582, 8-8s-3.582-8-8-8S0,3.582,0,8S 3.582,16, 8,16z M 8,2c 1.991,0, 4,1.14, 4,3.688 c0,1.483-0.735,2.641-2.184,3.438C 9.396,9.357, 9,9.814, 9,10c0,0.552-0.448,1-1,1s-1-0.448-1-1c0-1.269, 1.164-2.248, 1.852-2.626 C 9.863,6.816, 10,6.208, 10,5.688C 10,4.219, 8.747,4, 8,4C 7.037,4, 6,4.632, 6,6.021c0,0.552-0.448,1-1,1s-1-0.448-1-1 C 4,3.409, 6.061,2, 8,2z M 8,14.044c-0.569,0-1.030-0.461-1.030-1.030s 0.461-1.030, 1.030-1.030s 1.030,0.461, 1.030,1.030S 8.569,14.044, 8,14.044z "></path></g></svg>