<?xml version="1.0" encoding="utf-8"?> <!-- Generator: IcoMoon.io --> <!DOCTYPE svg PUBLIC "-//W3C//DTD SVG 1.1//EN" "http://www.w3.org/Graphics/SVG/1.1/DTD/svg11.dtd"> <svg width="16" height="16" viewBox="0 0 16 16" xmlns="http://www.w3.org/2000/svg" xmlns:xlink="http://www.w3.org/1999/xlink" fill="#000000"><g><path d="M 2,5l 2,0 c 0.552,0, 1-0.448, 1-1L 5,2 c0-0.552-0.448-1-1-1L 2,1 C 1.448,1, 1,1.448, 1,2l0,2 C 1,4.552, 1.448,5, 2,5zM 7,5l 2,0 c 0.552,0, 1-0.448, 1-1L 10,2 c0-0.552-0.448-1-1-1L 7,1 C 6.448,1, 6,1.448, 6,2l0,2 C 6,4.552, 6.448,5, 7,5zM 12,5l 2,0 c 0.552,0, 1-0.448, 1-1L 15,2 c0-0.552-0.448-1-1-1l-2,0 c-0.552,0-1,0.448-1,1l0,2 C 11,4.552, 11.448,5, 12,5zM 1,9c0,0.552, 0.448,1, 1,1l 2,0 c 0.552,0, 1-0.448, 1-1L 5,7 c0-0.552-0.448-1-1-1L 2,6 C 1.448,6, 1,6.448, 1,7L 1,9 zM 6,9c0,0.552, 0.448,1, 1,1l 2,0 c 0.552,0, 1-0.448, 1-1L 10,7 c0-0.552-0.448-1-1-1L 7,6 C 6.448,6, 6,6.448, 6,7L 6,9 zM 11,9c0,0.552, 0.448,1, 1,1l 2,0 c 0.552,0, 1-0.448, 1-1L 15,7 c0-0.552-0.448-1-1-1l-2,0 c-0.552,0-1,0.448-1,1L 11,9 zM 1,14c0,0.552, 0.448,1, 1,1l 2,0 c 0.552,0, 1-0.448, 1-1l0-2 c0-0.552-0.448-1-1-1L 2,11 c-0.552,0-1,0.448-1,1L 1,14 zM 6,14c0,0.552, 0.448,1, 1,1l 2,0 c 0.552,0, 1-0.448, 1-1l0-2 c0-0.552-0.448-1-1-1L 7,11 c-0.552,0-1,0.448-1,1L 6,14 zM 11,14c0,0.552, 0.448,1, 1,1l 2,0 c 0.552,0, 1-0.448, 1-1l0-2 c0-0.552-0.448-1-1-1l-2,0 c-0.552,0-1,0.448-1,1L 11,14 z"></path></g></svg>