<?xml version="1.0" encoding="utf-8"?> <!-- Generator: IcoMoon.io --> <!DOCTYPE svg PUBLIC "-//W3C//DTD SVG 1.1//EN" "http://www.w3.org/Graphics/SVG/1.1/DTD/svg11.dtd"> <svg width="16" height="16" viewBox="0 0 16 16" xmlns="http://www.w3.org/2000/svg" xmlns:xlink="http://www.w3.org/1999/xlink" fill="#000000"><g><path d="M 8.614,5.844A1.391,1.391 720 1 0 11.396,5.844A1.391,1.391 720 1 0 8.614,5.844zM 13,14L 14,14L 14,13L 14,11L 14,8L 10,11L 5,7L 2,10L 2,11L 2,13L 2,14L 3,14 zM 15,2L 1,2 C 0.448,2,0,2.448,0,3l0,12 c0,0.552, 0.448,1, 1,1l 14,0 c 0.552,0, 1-0.448, 1-1L 16,3 C 16,2.448, 15.552,2, 15,2z M 15,15L 1,15 L 1,3 l 14,0 L 15,15 z"></path></g></svg>