<?xml version="1.0" encoding="utf-8"?> <!-- Generator: IcoMoon.io --> <!DOCTYPE svg PUBLIC "-//W3C//DTD SVG 1.1//EN" "http://www.w3.org/Graphics/SVG/1.1/DTD/svg11.dtd"> <svg width="16" height="16" viewBox="0 0 16 16" xmlns="http://www.w3.org/2000/svg" xmlns:xlink="http://www.w3.org/1999/xlink" fill="#000000"><g><path d="M 12.656,1L 3.25,1 C 2.698,1, 2.25,1.375, 2,2L0,8.984L0,9.5 l0,1.052 L0,14.5 C0,14.776, 0.224,15, 0.5,15l 15,0 c 0.276,0, 0.5-0.224, 0.5-0.5l0-3.996 L 16,9.5 L 16,9.046 L 14,2C 13.719,1.375, 13.209,1, 12.656,1z M 2.945,2.333C 2.991,2.23, 3.108,2, 3.25,2l 9.406,0 c 0.137,0, 0.295,0.141, 0.406,0.356L 14.947,9L 10.5,9 C 10.224,9, 10,9.224, 10,9.5L 10,11 L 6,11 L 6,9.5 C 6,9.224, 5.776,9, 5.5,9L 1.036,9 L 2.945,2.333z M 15,14L 1,14 l0-3.486 L 1,10 l 4,0 l0,1.5 C 5,11.776, 5.224,12, 5.5,12l 5,0 c 0.276,0, 0.5-0.224, 0.5-0.5L 11,10 l 4,0 l0,0.48 L 15,14 z"></path></g></svg>