<?xml version="1.0" encoding="utf-8"?> <!-- Generator: IcoMoon.io --> <!DOCTYPE svg PUBLIC "-//W3C//DTD SVG 1.1//EN" "http://www.w3.org/Graphics/SVG/1.1/DTD/svg11.dtd"> <svg width="16" height="16.02699851989746" viewBox="0 0 16 16.02699851989746" xmlns="http://www.w3.org/2000/svg" xmlns:xlink="http://www.w3.org/1999/xlink" fill="#000000"><g><path d="M 10.292,0.003C 10.11-0.014, 9.897,0.030, 9.646,0.182c0,0-4.17,3.638-4.351,3.818L 3,4 C 2.448,4, 2,4.448, 2,5l0,0.127 L 2,11 l0,0.127 c0,0.552, 0.448,1, 1,1l 2.295,0 c 0.181,0.18, 4.351,3.69, 4.351,3.69c 0.251,0.152, 0.464,0.196, 0.646,0.179 c 0.37-0.035, 0.63-0.345, 0.709-0.672c 0.005-0.032, 0.005-14.617,0-14.648C 10.922,0.348, 10.661,0.038, 10.292,0.003zM 12.541,9.747c-0.247,0.125-0.346,0.425-0.222,0.672c 0.088,0.174, 0.264,0.275, 0.446,0.275 c 0.076,0, 0.152-0.017, 0.225-0.053C 14.001,10.131, 14.629,9.12, 14.629,8s-0.628-2.131-1.639-2.641 c-0.247-0.125-0.547-0.025-0.671,0.222c-0.124,0.247-0.025,0.547, 0.222,0.672C 13.212,6.591, 13.629,7.26, 13.629,8 S 13.212,9.409, 12.541,9.747z"></path></g></svg>