<?xml version="1.0" encoding="utf-8"?> <!-- Generator: IcoMoon.io --> <!DOCTYPE svg PUBLIC "-//W3C//DTD SVG 1.1//EN" "http://www.w3.org/Graphics/SVG/1.1/DTD/svg11.dtd"> <svg width="16" height="16" viewBox="0 0 16 16" xmlns="http://www.w3.org/2000/svg" xmlns:xlink="http://www.w3.org/1999/xlink" fill="#000000"><g><path d="M 15.5,0l-2,0 c-0.121,0-0.238,0.044-0.33,0.124L 6.268,6.175C 5.911,6.1, 5.359,6, 5,6c-2.757,0-5,2.243-5,5 s 2.243,5, 5,5s 5-2.243, 5-5c0-0.819-0.156-1.368-0.333-1.824l 1.702-0.578c 0.207-0.070, 0.344-0.267, 0.339-0.485l-0.042-1.898 l 1.91-0.133c 0.256-0.018, 0.457-0.227, 0.465-0.483l 0.071-2.279l 1.496-0.332C 15.837,2.938, 16,2.734, 16,2.5l0-2 C 16,0.224, 15.776,0, 15.5,0z M 3.5,11c 0.6,0, 1.118,0.353, 1.358,0.862C 4.949,12.056, 5,12.272, 5,12.5C 5,13.328, 4.328,14, 3.5,14 S 2,13.328, 2,12.5S 2.672,11, 3.5,11z"></path></g></svg>