<?xml version="1.0" encoding="utf-8"?> <!-- Generator: IcoMoon.io --> <!DOCTYPE svg PUBLIC "-//W3C//DTD SVG 1.1//EN" "http://www.w3.org/Graphics/SVG/1.1/DTD/svg11.dtd"> <svg width="16" height="16" viewBox="0 0 16 16" xmlns="http://www.w3.org/2000/svg" xmlns:xlink="http://www.w3.org/1999/xlink" fill="#000000"><g><path d="M 8,0C 3.582,0,0,3.582,0,8s 3.582,8, 8,8s 8-3.582, 8-8S 12.418,0, 8,0z M 12.013,7.854 c-0.062,1.026-0.525,2.562-2.378,4.057c-0.089,0.071-0.193,0.106-0.297,0.106c-0.145,0-0.288-0.067-0.383-0.195 c-0.164-0.22-0.126-0.536, 0.086-0.706c 1.509-1.217, 1.922-2.409, 1.995-3.227c-0.213,0.124-0.454,0.2-0.715,0.2 c-0.814,0-1.473-0.685-1.473-1.53c0-0.845, 0.659-1.53, 1.473-1.53c 0.184,0, 0.353,0.048, 0.514,0.113L 10.829,5.13 c0,0, 0.071,0.026, 0.17,0.081c 0.005,0.003, 0.010,0.004, 0.015,0.006c 0.003,0.002, 0.005,0.004, 0.008,0.006 c 0.068,0.039, 0.146,0.091, 0.233,0.165c 0.037,0.032, 0.068,0.069, 0.102,0.104C 11.72,5.853, 12.118,6.542, 12.013,7.854z M 5.472,8.089 c-0.814,0-1.473-0.685-1.473-1.53c0-0.845, 0.66-1.53, 1.473-1.53c 0.184,0, 0.353,0.048, 0.514,0.113L 5.981,5.13 c0,0, 0.071,0.026, 0.17,0.081c 0.005,0.003, 0.010,0.004, 0.015,0.006c 0.003,0.002, 0.005,0.004, 0.008,0.006 C 6.242,5.262, 6.32,5.314, 6.407,5.388c 0.037,0.032, 0.068,0.069, 0.102,0.104c 0.363,0.361, 0.762,1.050, 0.656,2.363 c-0.062,1.026-0.525,2.562-2.378,4.057c-0.089,0.071-0.193,0.106-0.297,0.106c-0.145,0-0.288-0.067-0.383-0.195 c-0.164-0.22-0.126-0.536, 0.086-0.706c 1.509-1.217, 1.922-2.409, 1.995-3.227C 5.974,8.012, 5.733,8.089, 5.472,8.089z"></path></g></svg>