<?xml version="1.0" encoding="utf-8"?> <!-- Generator: IcoMoon.io --> <!DOCTYPE svg PUBLIC "-//W3C//DTD SVG 1.1//EN" "http://www.w3.org/Graphics/SVG/1.1/DTD/svg11.dtd"> <svg width="16.57400131225586" height="16.50200080871582" viewBox="0 0 16.57400131225586 16.50200080871582" xmlns="http://www.w3.org/2000/svg" xmlns:xlink="http://www.w3.org/1999/xlink" fill="#000000"><g><path d="M 7.038,3.489C 5.979,2.432, 4.649,2.343, 3.724,3.268C 2.799,4.192, 2.887,5.524, 3.944,6.582l 5.724,5.724 c 0.195,0.195, 0.512,0.195, 0.707,0s 0.195-0.512,0-0.707L 4.651,5.875c-0.513-0.513-0.84-1.281-0.221-1.9 c 0.618-0.619, 1.387-0.291, 1.9,0.222l 6.364,6.363c 1.825,1.827, 2.28,2.669, 1.193,3.757c-1.1,1.099-2.266,0.827-4.022-0.928 L 2.795,6.317C 1.653,5.175, 0.853,3.31, 2.354,1.81C 4.136,0.028, 6.171,1.78, 6.751,2.361l 6.496,6.497c 0.195,0.195, 0.512,0.195, 0.707,0 s 0.195-0.512,0-0.707L 7.458,1.654C 5.494-0.31, 3.267-0.52, 1.646,1.103C 0.008,2.74, 0.185,5.12, 2.088,7.024l 7.071,7.071 c 0.601,0.601, 1.888,1.887, 3.368,1.887c 0.665,0, 1.37-0.261, 2.068-0.959c 1.987-1.988, 0.149-3.828-1.193-5.171L 7.038,3.489z"></path></g></svg>