<?xml version="1.0" encoding="utf-8"?> <!-- Generator: IcoMoon.io --> <!DOCTYPE svg PUBLIC "-//W3C//DTD SVG 1.1//EN" "http://www.w3.org/Graphics/SVG/1.1/DTD/svg11.dtd"> <svg width="16" height="16" viewBox="0 0 16 16" xmlns="http://www.w3.org/2000/svg" xmlns:xlink="http://www.w3.org/1999/xlink" fill="#000000"><g><path d="M 2,14l 1,0 l0,1 c0,0.552, 0.448,1, 1,1l 10,0 c 0.552,0, 1-0.448, 1-1L 15,3 c0-0.552-0.448-1-1-1l-1,0 L 13,1 c0-0.552-0.448-1-1-1L 2,0 C 1.448,0, 1,0.448, 1,1l0,12 C 1,13.552, 1.448,14, 2,14z M 14,3l0,12 L 4,15 l0-1 l 8,0 c 0.552,0, 1-0.448, 1-1L 13,3 L 14,3 z M 10.5,2C 10.776,2, 11,2.224, 11,2.5 C 11,2.776, 10.776,3, 10.5,3L 6.458,3 c-0.276,0-0.5-0.224-0.5-0.5c0-0.276, 0.224-0.5, 0.5-0.5L 10.5,2 z M 3.458,5L 10.5,5 C 10.776,5, 11,5.224, 11,5.5C 11,5.776, 10.776,6, 10.5,6L 3.458,6 c-0.276,0-0.5-0.224-0.5-0.5C 2.958,5.224, 3.182,5, 3.458,5z M 3.458,8L 10.5,8 C 10.776,8, 11,8.224, 11,8.5C 11,8.776, 10.776,9, 10.5,9L 3.458,9 c-0.276,0-0.5-0.224-0.5-0.5C 2.958,8.224, 3.182,8, 3.458,8z M 3.458,11 L 10.5,11 c 0.276,0, 0.5,0.224, 0.5,0.5c0,0.276-0.224,0.5-0.5,0.5L 3.458,12 c-0.276,0-0.5-0.224-0.5-0.5C 2.958,11.224, 3.182,11, 3.458,11z"></path></g></svg>