<?xml version="1.0" encoding="utf-8"?> <!-- Generator: IcoMoon.io --> <!DOCTYPE svg PUBLIC "-//W3C//DTD SVG 1.1//EN" "http://www.w3.org/Graphics/SVG/1.1/DTD/svg11.dtd"> <svg width="16" height="16" viewBox="0 0 16 16" xmlns="http://www.w3.org/2000/svg" xmlns:xlink="http://www.w3.org/1999/xlink" fill="#000000"><g><path d="M 13,12c 0.118,0, 0.235,0.026, 0.347,0.068c 0.131,0.049, 0.255,0.12, 0.36,0.225l 1.993,1.993 C 15.887,13.895, 16,13.462, 16,13c0-1.588-1.237-2.874-2.798-2.98C 13.134,10.016, 13.069,10, 13,10c-0.366,0-0.713,0.075-1.037,0.195 L 5.805,4.037C 5.925,3.713, 6,3.366, 6,3c0-0.069-0.016-0.134-0.020-0.202C 5.874,1.237, 4.588,0, 3,0C 2.538,0, 2.105,0.113, 1.714,0.3 l 1.993,1.993c 0.105,0.105, 0.177,0.229, 0.225,0.36c 0.131,0.355, 0.060,0.768-0.225,1.054C 3.512,3.902, 3.256,4, 3,4 C 2.882,4, 2.765,3.974, 2.653,3.932c-0.131-0.049-0.255-0.12-0.36-0.225L 0.3,1.714C 0.113,2.105,0,2.538,0,3 c0,1.588, 1.237,2.874, 2.798,2.98C 2.866,5.984, 2.931,6, 3,6c 0.366,0, 0.713-0.075, 1.037-0.195l 6.158,6.158 C 10.075,12.287, 10,12.634, 10,13c0,0.069, 0.016,0.134, 0.020,0.202C 10.126,14.763, 11.412,16, 13,16c 0.462,0, 0.895-0.113, 1.286-0.3 l-1.993-1.993c-0.105-0.105-0.177-0.229-0.225-0.36c-0.131-0.355-0.060-0.768, 0.225-1.054C 12.488,12.098, 12.744,12, 13,12z"></path></g></svg>