<?xml version="1.0" encoding="utf-8"?> <!-- Generator: IcoMoon.io --> <!DOCTYPE svg PUBLIC "-//W3C//DTD SVG 1.1//EN" "http://www.w3.org/Graphics/SVG/1.1/DTD/svg11.dtd"> <svg width="16" height="16" viewBox="0 0 16 16" xmlns="http://www.w3.org/2000/svg" xmlns:xlink="http://www.w3.org/1999/xlink" fill="#000000"><g><path d="M 3,7l 3,0 c 0.552,0, 1-0.448, 1-1L 7,3 c0-0.552-0.448-1-1-1L 3,2 C 2.448,2, 2,2.448, 2,3l0,3 C 2,6.552, 2.448,7, 3,7zM 10,7l 3,0 c 0.552,0, 1-0.448, 1-1L 14,3 c0-0.552-0.448-1-1-1l-3,0 C 9.448,2, 9,2.448, 9,3l0,3 C 9,6.552, 9.448,7, 10,7zM 2,13c0,0.552, 0.448,1, 1,1l 3,0 c 0.552,0, 1-0.448, 1-1l0-3 c0-0.552-0.448-1-1-1L 3,9 c-0.552,0-1,0.448-1,1L 2,13 zM 9,13c0,0.552, 0.448,1, 1,1l 3,0 c 0.552,0, 1-0.448, 1-1l0-3 c0-0.552-0.448-1-1-1l-3,0 c-0.552,0-1,0.448-1,1L 9,13 z"></path></g></svg>