<?xml version="1.0" encoding="utf-8"?> <!-- Generator: IcoMoon.io --> <!DOCTYPE svg PUBLIC "-//W3C//DTD SVG 1.1//EN" "http://www.w3.org/Graphics/SVG/1.1/DTD/svg11.dtd"> <svg width="16" height="16" viewBox="0 0 16 16" xmlns="http://www.w3.org/2000/svg" xmlns:xlink="http://www.w3.org/1999/xlink" fill="#000000"><g><path d="M 13,13L 3,13 L 3,3 l 7.376,0 L 11,2L 3,2 C 2.448,2, 2,2.448, 2,3l0,10 c0,0.552, 0.448,1, 1,1l 10,0 c 0.552,0, 1-0.448, 1-1L 14,6.397 L 13,8L 13,13 zM 14.683,1.114C 14.565,1.037, 14.432,1, 14.301,1c-0.228,0-0.452,0.112-0.586,0.317L 8.279,9.159l-2.103-2.4 C 5.891,6.496, 5.449,6.513, 5.186,6.797S 4.941,7.524, 5.225,7.786l 2.528,2.885c 0.016,0.026, 0.041,0.046, 0.061,0.070l 0.064,0.073 c 0.008,0.007, 0.018,0.009, 0.026,0.016c 0.020,0.016, 0.032,0.038, 0.053,0.053c 0.043,0.028, 0.090,0.046, 0.137,0.063 c 0.011,0.004, 0.020,0.011, 0.031,0.014c 0.070,0.023, 0.143,0.037, 0.215,0.037c 0.003,0, 0.006-0.002, 0.009-0.002 c 0.19,0.001, 0.379-0.069, 0.518-0.219c 0.026-0.028, 0.036-0.062, 0.057-0.093c 0.001-0.001, 0.002-0.002, 0.003-0.003l 5.959-8.597 C 15.097,1.76, 15.007,1.326, 14.683,1.114z"></path></g></svg>