<?xml version="1.0" encoding="utf-8"?> <!-- Generator: IcoMoon.io --> <!DOCTYPE svg PUBLIC "-//W3C//DTD SVG 1.1//EN" "http://www.w3.org/Graphics/SVG/1.1/DTD/svg11.dtd"> <svg width="16" height="16" viewBox="0 0 16 16" xmlns="http://www.w3.org/2000/svg" xmlns:xlink="http://www.w3.org/1999/xlink" fill="#000000"><g><path d="M 13,2L 3,2 C 2.448,2, 2,2.448, 2,3l0,10 c0,0.552, 0.448,1, 1,1l 10,0 c 0.552,0, 1-0.448, 1-1L 14,3 C 14,2.448, 13.552,2, 13,2z M 13,13L 3,13 L 3,3 l 10,0 L 13,13 zM 6,11l 4,0 c 0.552,0, 1-0.448, 1-1L 11,6 c0-0.552-0.448-1-1-1L 6,5 C 5.448,5, 5,5.448, 5,6l0,4 C 5,10.552, 5.448,11, 6,11z"></path></g></svg>