<?xml version="1.0" encoding="utf-8"?> <!-- Generator: IcoMoon.io --> <!DOCTYPE svg PUBLIC "-//W3C//DTD SVG 1.1//EN" "http://www.w3.org/Graphics/SVG/1.1/DTD/svg11.dtd"> <svg width="16" height="16" viewBox="0 0 16 16" xmlns="http://www.w3.org/2000/svg" xmlns:xlink="http://www.w3.org/1999/xlink" fill="#000000"><g><path d="M 1,12.127l 2.291,0 c 0.181,0.18, 4.351,3.69, 4.351,3.69C 7.859,15.949, 8.048,16, 8.213,16 c 0.025,0, 0.050-0.001, 0.074-0.003c 0.37-0.035, 0.634-0.345, 0.713-0.672L 9,0.676 C 8.922,0.348, 8.657,0.038, 8.287,0.003 C 8.263,0.001, 8.239,0, 8.213,0C 8.048,0, 7.859,0.051, 7.642,0.182c0,0-4.17,3.638-4.351,3.818L 1,4 C 0.448,4,0,4.448,0,5l0,0.127 L0,11 l0,0.127 C0,11.68, 0.448,12.127, 1,12.127z M 1,11L 1,5.127 L 1,5 l 2.291,0 c 0.256,0, 0.512-0.107, 0.697-0.283C 4.17,4.544, 6.43,2.567, 8,1.197l0,13.615 c-1.56-1.314-3.82-3.223-4.004-3.393c-0.187-0.187-0.441-0.291-0.706-0.291L 1,11.128 L 1,11 zM 10.541,9.747c-0.247,0.125-0.346,0.425-0.222,0.672c 0.088,0.174, 0.264,0.275, 0.446,0.275 c 0.076,0, 0.152-0.017, 0.225-0.053C 12.001,10.131, 12.629,9.12, 12.629,8s-0.628-2.131-1.639-2.641 c-0.247-0.125-0.547-0.025-0.671,0.222c-0.124,0.247-0.025,0.547, 0.222,0.672C 11.212,6.591, 11.629,7.26, 11.629,8 S 11.212,9.409, 10.541,9.747zM 9.853,13.739c 0.047,0.239, 0.256,0.404, 0.49,0.404c 0.032,0, 0.064-0.003, 0.097-0.009 C 13.372,13.562, 15.5,10.982, 15.5,8s-2.128-5.562-5.061-6.134C 10.173,1.812, 9.905,1.99, 9.853,2.261 C 9.8,2.532, 9.977,2.795, 10.248,2.848C 12.712,3.328, 14.5,5.495, 14.5,8s-1.788,4.672-4.252,5.152 C 9.977,13.205, 9.8,13.468, 9.853,13.739z"></path></g></svg>