<?xml version="1.0" encoding="utf-8"?> <!-- Generator: IcoMoon.io --> <!DOCTYPE svg PUBLIC "-//W3C//DTD SVG 1.1//EN" "http://www.w3.org/Graphics/SVG/1.1/DTD/svg11.dtd"> <svg width="16" height="16" viewBox="0 0 16 16" xmlns="http://www.w3.org/2000/svg" xmlns:xlink="http://www.w3.org/1999/xlink" fill="#000000"><g><path d="M 8.5,1C 4.358,1, 1,4.358, 1,8.5S 4.358,16, 8.5,16S 16,12.642, 16,8.5S 12.642,1, 8.5,1z M 8.5,15 C 4.916,15, 2,12.084, 2,8.5S 4.916,2, 8.5,2S 15,4.916, 15,8.5S 12.084,15, 8.5,15zM 12.5,8L 9,8 L 9,4.5 C 9,4.224, 8.776,4, 8.5,4S 8,4.224, 8,4.5L 8,8 L 4.5,8 C 4.224,8, 4,8.224, 4,8.5C 4,8.776, 4.224,9, 4.5,9L 8,9 l0,3.5 C 8,12.776, 8.224,13, 8.5,13S 9,12.776, 9,12.5L 9,9 l 3.5,0 C 12.776,9, 13,8.776, 13,8.5C 13,8.224, 12.776,8, 12.5,8z"></path></g></svg>