<?xml version="1.0" encoding="utf-8"?> <!-- Generator: IcoMoon.io --> <!DOCTYPE svg PUBLIC "-//W3C//DTD SVG 1.1//EN" "http://www.w3.org/Graphics/SVG/1.1/DTD/svg11.dtd"> <svg width="16" height="16" viewBox="0 0 16 16" xmlns="http://www.w3.org/2000/svg" xmlns:xlink="http://www.w3.org/1999/xlink" fill="#000000"><g><path d="M 7.606,8.212c 1.437,0, 2.606-1.169, 2.606-2.606C 10.212,4.169, 9.043,3, 7.606,3S 5,4.169, 5,5.606 C 5,7.043, 6.169,8.212, 7.606,8.212z M 7.606,4c 0.885,0, 1.606,0.72, 1.606,1.606s-0.72,1.606-1.606,1.606S 6,6.491, 6,5.606 S 6.72,4, 7.606,4zM 7.242,15.729c 0.084,0.093, 0.165,0.153, 0.243,0.195c 0.001,0.001, 0.003,0.001, 0.004,0.002 c 0.054,0.028, 0.107,0.049, 0.157,0.049c 0.050,0, 0.103-0.021, 0.157-0.049c 0.001-0.001, 0.003-0.001, 0.004-0.002 c 0.078-0.042, 0.159-0.102, 0.243-0.195c0,0, 4.648-5.055, 5.115-9.435c 0.028-0.226, 0.047-0.455, 0.047-0.688 C 13.212,2.51, 10.702,0, 7.606,0S 2,2.51, 2,5.606c0,0.237, 0.019,0.468, 0.048,0.697C 2.527,10.681, 7.242,15.729, 7.242,15.729z M 7.606,1 c 2.54,0, 4.606,2.066, 4.606,4.606c0,0.169-0.012,0.349-0.041,0.582c-0.358,3.356-3.509,7.294-4.524,8.492 c-1.041-1.2-4.237-5.128-4.607-8.5C 3.013,5.959, 3,5.777, 3,5.606C 3,3.066, 5.066,1, 7.606,1z"></path></g></svg>