<?xml version="1.0" encoding="utf-8"?> <!-- Generator: IcoMoon.io --> <!DOCTYPE svg PUBLIC "-//W3C//DTD SVG 1.1//EN" "http://www.w3.org/Graphics/SVG/1.1/DTD/svg11.dtd"> <svg width="16" height="16" viewBox="0 0 16 16" xmlns="http://www.w3.org/2000/svg" xmlns:xlink="http://www.w3.org/1999/xlink" fill="#000000"><g><path d="M 2,16l 12,0 c 0.552,0, 1-0.448, 1-1L 15,1 c0-0.552-0.448-1-1-1L 2,0 C 1.448,0, 1,0.448, 1,1l0,14 C 1,15.552, 1.448,16, 2,16z M 2,1l 12,0 l0,14 L 2,15 L 2,1 zM 11.5,3l-4,0 C 7.224,3, 7,3.224, 7,3.5C 7,3.776, 7.224,4, 7.5,4l 4,0 C 11.776,4, 12,3.776, 12,3.5 C 12,3.224, 11.776,3, 11.5,3zM 11.5,6l-7,0 C 4.224,6, 4,6.224, 4,6.5C 4,6.776, 4.224,7, 4.5,7l 7,0 C 11.776,7, 12,6.776, 12,6.5 C 12,6.224, 11.776,6, 11.5,6zM 11.5,9l-7,0 C 4.224,9, 4,9.224, 4,9.5C 4,9.776, 4.224,10, 4.5,10l 7,0 c 0.276,0, 0.5-0.224, 0.5-0.5 C 12,9.224, 11.776,9, 11.5,9zM 11.5,12l-7,0 C 4.224,12, 4,12.224, 4,12.5C 4,12.776, 4.224,13, 4.5,13l 7,0 c 0.276,0, 0.5-0.224, 0.5-0.5 C 12,12.224, 11.776,12, 11.5,12z"></path></g></svg>