<?xml version="1.0" encoding="utf-8"?> <!-- Generator: IcoMoon.io --> <!DOCTYPE svg PUBLIC "-//W3C//DTD SVG 1.1//EN" "http://www.w3.org/Graphics/SVG/1.1/DTD/svg11.dtd"> <svg width="16" height="16" viewBox="0 0 16 16" xmlns="http://www.w3.org/2000/svg" xmlns:xlink="http://www.w3.org/1999/xlink" fill="#000000"><g><path d="M 15,2l-5,0 C 9.448,2, 9,2.448, 9,3c0,0-0.13,0.917-1,1L 1,4 C 0.448,4,0,4.432,0,4.984L0,6 l 16,0 L 16,4.984 L 16,3 C 16,2.448, 15.552,2, 15,2zM0,15c0,0.552, 0.448,1, 1,1l 14,0 c 0.552,0, 1-0.448, 1-1L 16,7 L0,7 L0,15 z"></path></g></svg>