<?xml version="1.0" encoding="utf-8"?> <!-- Generator: IcoMoon.io --> <!DOCTYPE svg PUBLIC "-//W3C//DTD SVG 1.1//EN" "http://www.w3.org/Graphics/SVG/1.1/DTD/svg11.dtd"> <svg width="16" height="16" viewBox="0 0 16 16" xmlns="http://www.w3.org/2000/svg" xmlns:xlink="http://www.w3.org/1999/xlink" fill="#000000"><g><path d="M 15,4L 1,4 C 0.448,4,0,4.448,0,5l0,10 c0,0.552, 0.448,1, 1,1l 14,0 c 0.552,0, 1-0.448, 1-1L 16,5 C 16,4.448, 15.552,4, 15,4z M 5.68,11.027l 2.322,1.578l 2.308-1.589L 14.293,15L 1.707,15 L 5.68,11.027z M 1,14.293L 1,7.845 l 3.838,2.609L 1,14.293z M 11.147,10.44 L 15,7.788l0,6.505 L 11.147,10.44z M 15,5l0,1.618 l-0.021-0.030l-6.981,4.807L 1,6.637L 1,5 L 15,5 z"></path></g></svg>