<?xml version="1.0" encoding="utf-8"?> <!-- Generator: IcoMoon.io --> <!DOCTYPE svg PUBLIC "-//W3C//DTD SVG 1.1//EN" "http://www.w3.org/Graphics/SVG/1.1/DTD/svg11.dtd"> <svg width="16" height="16" viewBox="0 0 16 16" xmlns="http://www.w3.org/2000/svg" xmlns:xlink="http://www.w3.org/1999/xlink" fill="#000000"><g><path d="M 8,16c 4.418,0, 8-3.582, 8-8s-3.582-8-8-8S0,3.582,0,8S 3.582,16, 8,16z M 8,1c 3.86,0, 7,3.14, 7,7s-3.14,7-7,7 s-7-3.14-7-7S 4.14,1, 8,1zM 6,11c 0.552,0, 1-0.448, 1-1L 7,6 c0-0.552-0.448-1-1-1S 5,5.448, 5,6l0,4 C 5,10.552, 5.448,11, 6,11zM 10,11c 0.552,0, 1-0.448, 1-1L 11,6 c0-0.552-0.448-1-1-1S 9,5.448, 9,6l0,4 C 9,10.552, 9.448,11, 10,11z"></path></g></svg>