<?xml version="1.0" encoding="utf-8"?> <!-- Generator: IcoMoon.io --> <!DOCTYPE svg PUBLIC "-//W3C//DTD SVG 1.1//EN" "http://www.w3.org/Graphics/SVG/1.1/DTD/svg11.dtd"> <svg width="16" height="16" viewBox="0 0 16 16" xmlns="http://www.w3.org/2000/svg" xmlns:xlink="http://www.w3.org/1999/xlink" fill="#000000"><g><path d="M 15.217,2.024l-4.5-2C 10.646,0.008, 10.573,0, 10.5,0c-0.065,0-0.131,0.006-0.195,0.019L 5.491,1.978 L 1.218,0.024C 1.146,0.008, 1.073,0, 1,0C 0.775,0, 0.554,0.076, 0.375,0.22C 0.138,0.409,0,0.696,0,1l0,12 c0,0.468, 0.325,0.874, 0.782,0.976 l 4.479,2C 5.333,15.992, 5.406,16, 5.479,16c 0.065,0, 0.131-0.006, 0.195-0.019l 4.814-1.959l 4.294,1.954C 14.855,15.992, 14.928,16, 15,16 c 0.225,0, 0.447-0.076, 0.626-0.22C 15.862,15.59, 16,15.303, 16,15L 16,3 C 16,2.531, 15.674,2.125, 15.217,2.024z M 6,2.793l 4-1.593l0,12 l-4,1.593L 6,2.793 z M 1,1l 4,1.786l0,12 L 1,13L 1,1 z M 15,15l-4-1.778l0-12 L 15,3L 15,15 z"></path></g></svg>