<?xml version="1.0" encoding="utf-8"?> <!-- Generator: IcoMoon.io --> <!DOCTYPE svg PUBLIC "-//W3C//DTD SVG 1.1//EN" "http://www.w3.org/Graphics/SVG/1.1/DTD/svg11.dtd"> <svg width="16" height="16" viewBox="0 0 16 16" xmlns="http://www.w3.org/2000/svg" xmlns:xlink="http://www.w3.org/1999/xlink" fill="#000000"><g><path d="M 8,0C 5.239,0, 3,2.273, 3,5.077L 3,6 L 2,6 C 1.448,6, 1,6.448, 1,7l0,8 c0,0.552, 0.448,1, 1,1l 12,0 c 0.552,0, 1-0.448, 1-1L 15,7 c0-0.552-0.448-1-1-1l-1,0 L 13,5.077 C 13,2.273, 10.761,0, 8,0z M 4,5.077C 4,2.829, 5.794,1, 8,1s 4,1.829, 4,4.077L 12,6 L 4,6 L 4,5.077 z M 14,15L 2,15 L 2,7 l 12,0 L 14,15 z M 10,11c0-1.105-0.895-2-2-2s-2,0.895-2,2s 0.895,2, 2,2S 10,12.105, 10,11z M 8,12c-0.551,0-1-0.449-1-1 s 0.449-1, 1-1s 1,0.449, 1,1S 8.551,12, 8,12z"></path></g></svg>