<?xml version="1.0" encoding="utf-8"?> <!-- Generator: IcoMoon.io --> <!DOCTYPE svg PUBLIC "-//W3C//DTD SVG 1.1//EN" "http://www.w3.org/Graphics/SVG/1.1/DTD/svg11.dtd"> <svg width="16" height="16" viewBox="0 0 16 16" xmlns="http://www.w3.org/2000/svg" xmlns:xlink="http://www.w3.org/1999/xlink" fill="#000000"><g><path d="M 8,16c 4.418,0, 8-3.582, 8-8s-3.582-8-8-8S0,3.582,0,8S 3.582,16, 8,16z M 9,9c0,0.552-0.448,1-1,1S 7,9.552, 7,9 L 7,4 c0-0.552, 0.448-1, 1-1s 1,0.448, 1,1L 9,9 z M 8,10.984c 0.552,0, 1,0.448, 1,1c0,0.552-0.448,1-1,1s-1-0.448-1-1 C 7,11.432, 7.448,10.984, 8,10.984z"></path></g></svg>