<?xml version="1.0" encoding="utf-8"?> <!-- Generator: IcoMoon.io --> <!DOCTYPE svg PUBLIC "-//W3C//DTD SVG 1.1//EN" "http://www.w3.org/Graphics/SVG/1.1/DTD/svg11.dtd"> <svg width="16" height="16" viewBox="0 0 16 16" xmlns="http://www.w3.org/2000/svg" xmlns:xlink="http://www.w3.org/1999/xlink" fill="#000000"><g><path d="M 8.042,0c-4.418,0-8,3.582-8,8s 3.582,8, 8,8s 8-3.582, 8-8S 12.46,0, 8.042,0z M 11.748,5.787l-3.832,5.857 c-0.001,0.001-0.003,0.002-0.003,0.003c-0.020,0.030-0.031,0.064-0.056,0.092c-0.035,0.038-0.080,0.058-0.12,0.087 c-0.010,0.007-0.020,0.015-0.031,0.022c-0.062,0.039-0.126,0.065-0.196,0.082c-0.023,0.006-0.044,0.012-0.068,0.016 c-0.057,0.008-0.111,0.008-0.168,0.002c-0.040-0.003-0.078-0.008-0.117-0.018c-0.040-0.011-0.077-0.028-0.115-0.046 c-0.032-0.015-0.066-0.019-0.096-0.038c-0.022-0.014-0.034-0.036-0.053-0.053c-0.008-0.007-0.018-0.009-0.026-0.016L 4.636,9.714 C 4.352,9.451, 4.335,9.008, 4.597,8.725s 0.705-0.301, 0.989-0.039l 1.615,1.494l 3.375-5.159c 0.212-0.323, 0.645-0.414, 0.969-0.203 C 11.869,5.030, 11.96,5.464, 11.748,5.787z"></path></g></svg>