<?xml version="1.0" encoding="utf-8"?> <!-- Generator: IcoMoon.io --> <!DOCTYPE svg PUBLIC "-//W3C//DTD SVG 1.1//EN" "http://www.w3.org/Graphics/SVG/1.1/DTD/svg11.dtd"> <svg width="16" height="16" viewBox="0 0 16 16" xmlns="http://www.w3.org/2000/svg" xmlns:xlink="http://www.w3.org/1999/xlink" fill="#000000"><g><path d="M 13.51,11.41A0.091,0.091 720 1 0 13.692,11.41A0.091,0.091 720 1 0 13.51,11.41zM 11.501,13.483A0.181,0.181 720 1 0 11.863,13.483A0.181,0.181 720 1 0 11.501,13.483zM 8.793,14.55A0.272,0.272 720 1 0 9.337,14.55A0.272,0.272 720 1 0 8.793,14.55zM 5.878,14.407A0.362,0.362 720 1 0 6.602,14.407A0.362,0.362 720 1 0 5.878,14.407zM 3.292,13.080A0.453,0.453 720 1 0 4.198,13.080A0.453,0.453 720 1 0 3.292,13.080zM 1.501,10.824A0.544,0.544 720 1 0 2.589,10.824A0.544,0.544 720 1 0 1.501,10.824zM 0.829,8.054A0.634,0.634 720 1 0 2.097,8.054A0.634,0.634 720 1 0 0.829,8.054zM 1.382,5.302A0.725,0.725 720 1 0 2.832,5.302A0.725,0.725 720 1 0 1.382,5.302zM 3.041,3.083A0.816,0.816 720 1 0 4.673,3.083A0.816,0.816 720 1 0 3.041,3.083zM 5.477,1.812A0.906,0.906 720 1 0 7.289,1.812A0.906,0.906 720 1 0 5.477,1.812zM 8.213,1.733A0.997,0.997 720 1 0 10.207,1.733A0.997,0.997 720 1 0 8.213,1.733zM 10.718,2.86A1.087,1.087 720 1 0 12.892,2.86A1.087,1.087 720 1 0 10.718,2.86zM 12.498,4.977A1.178,1.178 720 1 0 14.854,4.977A1.178,1.178 720 1 0 12.498,4.977zM 13.206,7.719A1.269,1.269 720 1 0 15.744,7.719A1.269,1.269 720 1 0 13.206,7.719z"></path></g></svg>