<?xml version="1.0" encoding="utf-8"?> <!-- Generator: IcoMoon.io --> <!DOCTYPE svg PUBLIC "-//W3C//DTD SVG 1.1//EN" "http://www.w3.org/Graphics/SVG/1.1/DTD/svg11.dtd"> <svg width="16" height="16" viewBox="0 0 16 16" xmlns="http://www.w3.org/2000/svg" xmlns:xlink="http://www.w3.org/1999/xlink" fill="#000000"><g><path d="M 13.763,6.341c-0.126-0.438-0.297-0.855-0.514-1.246l 0.994-2.091c-0.369-0.46-0.787-0.878-1.247-1.247 l-2.091,0.994c-0.39-0.216-0.808-0.388-1.246-0.514L 8.881,0.051C 8.592,0.019, 8.298,0, 8,0S 7.408,0.019, 7.119,0.051L 6.341,2.237 C 5.904,2.363, 5.486,2.535, 5.096,2.751L 3.004,1.757c-0.46,0.369-0.878,0.787-1.247,1.247l 0.994,2.091 c-0.216,0.39-0.388,0.808-0.514,1.246L 0.051,7.119C 0.019,7.408,0,7.702,0,8s 0.019,0.592, 0.051,0.881l 2.187,0.778 c 0.126,0.438, 0.297,0.855, 0.514,1.246l-0.994,2.091c 0.369,0.46, 0.787,0.879, 1.247,1.247l 2.091-0.994 c 0.39,0.216, 0.808,0.388, 1.246,0.514l 0.778,2.187C 7.408,15.981, 7.702,16, 8,16s 0.592-0.019, 0.881-0.051l 0.778-2.187 c 0.438-0.126, 0.855-0.297, 1.246-0.514l 2.091,0.994c 0.46-0.369, 0.879-0.787, 1.247-1.247l-0.994-2.091 c 0.216-0.39, 0.388-0.808, 0.514-1.246l 2.187-0.778C 15.981,8.592, 16,8.298, 16,8s-0.019-0.592-0.051-0.881L 13.763,6.341z M 8,12 c-2.209,0-4-1.791-4-4c0-2.209, 1.791-4, 4-4s 4,1.791, 4,4C 12,10.209, 10.209,12, 8,12zM 6,8A2,2 720 1 0 10,8A2,2 720 1 0 6,8z"></path></g></svg>