<?xml version="1.0" encoding="utf-8"?> <!-- Generator: IcoMoon.io --> <!DOCTYPE svg PUBLIC "-//W3C//DTD SVG 1.1//EN" "http://www.w3.org/Graphics/SVG/1.1/DTD/svg11.dtd"> <svg width="16" height="16.408000946044922" viewBox="0 0 16 16.408000946044922" xmlns="http://www.w3.org/2000/svg" xmlns:xlink="http://www.w3.org/1999/xlink" fill="#000000"><g><path d="M 4.779,2.028c 0.585-0.585, 1.536-0.585, 2.121,0l 5.363,5.363c 0.264-0.999, 0.017-2.105-0.766-2.888 L 7.961,0.968c-1.172-1.172-3.071-1.172-4.243,0L 2.923,1.763c-1.172,1.172-1.172,3.071,0,4.243l 3.536,3.536 c 0.783,0.783, 1.889,1.030, 2.888,0.766L 3.984,4.945c-0.585-0.585-0.585-1.536,0-2.121L 4.779,2.028zM 8.039,15.032c 1.172,1.172, 3.071,1.172, 4.243,0l 0.795-0.796c 1.172-1.172, 1.172-3.071,0-4.243L 9.541,6.459 c-0.783-0.783-1.889-1.030-2.888-0.766l 5.363,5.363c 0.585,0.585, 0.585,1.536,0,2.121l-0.796,0.796c-0.585,0.585-1.536,0.585-2.121,0 L 3.737,8.609c-0.264,0.999-0.017,2.105, 0.766,2.888L 8.039,15.032z"></path></g></svg>