<?xml version="1.0" encoding="utf-8"?> <!-- Generator: IcoMoon.io --> <!DOCTYPE svg PUBLIC "-//W3C//DTD SVG 1.1//EN" "http://www.w3.org/Graphics/SVG/1.1/DTD/svg11.dtd"> <svg width="16" height="16" viewBox="0 0 16 16" xmlns="http://www.w3.org/2000/svg" xmlns:xlink="http://www.w3.org/1999/xlink" fill="#000000"><g><path d="M 8.042,0c-4.418,0-8,3.582-8,8s 3.582,8, 8,8s 8-3.582, 8-8S 12.46,0, 8.042,0z M 8.042,15c-3.86,0-7-3.14-7-7 s 3.14-7, 7-7s 7,3.14, 7,7S 11.901,15, 8.042,15zM 11.546,4.818c-0.323-0.212-0.757-0.121-0.969,0.203L 7.201,10.18L 5.587,8.686 C 5.303,8.424, 4.86,8.441, 4.597,8.725S 4.352,9.451, 4.636,9.714l 2.231,2.064c 0.008,0.007, 0.018,0.009, 0.026,0.016 c 0.020,0.016, 0.032,0.038, 0.053,0.053c 0.030,0.020, 0.064,0.024, 0.096,0.038c 0.038,0.018, 0.075,0.035, 0.115,0.046 c 0.039,0.010, 0.077,0.015, 0.117,0.018c 0.057,0.006, 0.112,0.006, 0.168-0.002c 0.023-0.004, 0.045-0.010, 0.068-0.016 c 0.069-0.017, 0.133-0.044, 0.196-0.082c 0.011-0.007, 0.020-0.015, 0.031-0.022c 0.041-0.028, 0.085-0.049, 0.12-0.087 c 0.025-0.027, 0.036-0.062, 0.056-0.092c 0.001-0.001, 0.003-0.002, 0.003-0.003l 3.832-5.857C 11.96,5.464, 11.869,5.030, 11.546,4.818z"></path></g></svg>