<?xml version="1.0" encoding="utf-8"?> <!-- Generator: IcoMoon.io --> <!DOCTYPE svg PUBLIC "-//W3C//DTD SVG 1.1//EN" "http://www.w3.org/Graphics/SVG/1.1/DTD/svg11.dtd"> <svg width="16" height="16" viewBox="0 0 16 16" xmlns="http://www.w3.org/2000/svg" xmlns:xlink="http://www.w3.org/1999/xlink" fill="#000000"><g><path d="M 15,2L 1,2 C 0.448,2,0,2.448,0,3l0,2.042 L0,7 l0,6 c0,0.552, 0.448,1, 1,1l 14,0 c 0.552,0, 1-0.448, 1-1L 16,7 L 16,5.042 L 16,3 C 16,2.448, 15.552,2, 15,2z M 15,13L 1,13 L 1,7 l 14,0 L 15,13 z M 1,5.042L 1,3 l 14,0 l0,2.042 L 1,5.042 zM 2.5,12l 5,0 C 7.776,12, 8,11.776, 8,11.5C 8,11.224, 7.776,11, 7.5,11l-5,0 C 2.224,11, 2,11.224, 2,11.5 C 2,11.776, 2.224,12, 2.5,12zM 9,11.5A0.5,0.5 720 1 0 10,11.5A0.5,0.5 720 1 0 9,11.5zM 11,11.5A0.5,0.5 720 1 0 12,11.5A0.5,0.5 720 1 0 11,11.5zM 13,11.5A0.5,0.5 720 1 0 14,11.5A0.5,0.5 720 1 0 13,11.5z"></path></g></svg>