<?xml version="1.0" encoding="utf-8"?> <!-- Generator: IcoMoon.io --> <!DOCTYPE svg PUBLIC "-//W3C//DTD SVG 1.1//EN" "http://www.w3.org/Graphics/SVG/1.1/DTD/svg11.dtd"> <svg width="16" height="16" viewBox="0 0 16 16" xmlns="http://www.w3.org/2000/svg" xmlns:xlink="http://www.w3.org/1999/xlink" fill="#000000"><g><path d="M 2.521,16l 0.456,0 l 6.003,0 L 10,16 l 0.354,0 l 1.622,0 c 0.552,0, 1-0.448, 1-1l0-2.156 L 12.976,12.5 l0-8 c0-0.276-0.224-0.5-0.5-0.5 c0,0,0,0,0,0L 4,4 C 3.975,4, 3.926,4.004, 3.879,4.007L 2.521,4C 1.682,4, 1,3.359, 1,2.521C 1,1.682, 1.661,1, 2.5,1l 2,0 L 10,1 l 4,0 l0,11.5 c0,0.276, 0.2,0.5, 0.477,0.5S 15,12.776, 15,12.5l0-12 C 15,0.224, 14.753,0, 14.477,0l-3.489,0 L 4.5,0 L 2.521,0 C 1.141,0, 0.024,1.109, 0.004,2.484 L0,2.479l0,2.083 L0,6 l0,5.479 l0,1.237 l0,0.763 C0,14.871, 1.129,16, 2.521,16z"></path></g></svg>