<?xml version="1.0" encoding="utf-8"?> <!-- Generator: IcoMoon.io --> <!DOCTYPE svg PUBLIC "-//W3C//DTD SVG 1.1//EN" "http://www.w3.org/Graphics/SVG/1.1/DTD/svg11.dtd"> <svg width="16" height="16" viewBox="0 0 16 16" xmlns="http://www.w3.org/2000/svg" xmlns:xlink="http://www.w3.org/1999/xlink" fill="#000000"><g><path d="M 15.983,1.948C 15.939,1.433, 15.523,1, 15,1L 1,1 C 0.477,1, 0.061,1.433, 0.017,1.948L0,1.948 l0,0.083 L0,4 l0,7.083 L0,12 l0,3 c0,0.552, 0.448,1, 1,1l 14,0 c 0.552,0, 1-0.448, 1-1L 16,4 L 16,2.031 L 16,1.948 L 15.983,1.948 z M 6,7L 6,4 l 4,0 l0,3 L 6,7 z M 10,8l0,3.083 L 6,11.083 L 6,8 L 10,8 z M 5,4l0,3 L 1,7 L 1,4 L 5,4 z M 1,8l 4,0 l0,3.083 L 1,11.083 L 1,8 z M 1,15l0-3 l 4,0 l0,3 L 1,15 z M 6,15l0-3 l 4,0 l0,3 L 6,15 z M 15,15l-4,0 l0-3 l 4,0 L 15,15 z M 15,11.083l-4,0 L 11,8 l 4,0 L 15,11.083 z M 15,7l-4,0 L 11,4 l 4,0 L 15,7 z"></path></g></svg>