<?xml version="1.0" encoding="utf-8"?> <!-- Generator: IcoMoon.io --> <!DOCTYPE svg PUBLIC "-//W3C//DTD SVG 1.1//EN" "http://www.w3.org/Graphics/SVG/1.1/DTD/svg11.dtd"> <svg width="16" height="16" viewBox="0 0 16 16" xmlns="http://www.w3.org/2000/svg" xmlns:xlink="http://www.w3.org/1999/xlink" fill="#000000"><g><path d="M 8,0C 3.582,0,0,3.582,0,8s 3.582,8, 8,8s 8-3.582, 8-8S 12.418,0, 8,0z M 8,15c-3.86,0-7-3.14-7-7s 3.14-7, 7-7 s 7,3.14, 7,7S 11.86,15, 8,15zM 6.407,5.388C 6.32,5.314, 6.242,5.262, 6.174,5.223C 6.171,5.221, 6.169,5.218, 6.166,5.217 c-0.005-0.003-0.010-0.004-0.015-0.006C 6.052,5.156, 5.981,5.13, 5.981,5.13l 0.005,0.012C 5.825,5.076, 5.656,5.029, 5.472,5.029 c-0.814,0-1.473,0.685-1.473,1.53c0,0.845, 0.66,1.53, 1.473,1.53c 0.261,0, 0.502-0.076, 0.715-0.2 c-0.073,0.818-0.485,2.011-1.995,3.227c-0.211,0.171-0.25,0.487-0.086,0.706c 0.096,0.128, 0.239,0.195, 0.383,0.195 c 0.104,0, 0.208-0.034, 0.297-0.106c 1.853-1.495, 2.316-3.031, 2.378-4.057C 7.27,6.542, 6.872,5.852, 6.508,5.492 C 6.475,5.457, 6.444,5.419, 6.407,5.388zM 11.255,5.388c-0.087-0.074-0.165-0.126-0.233-0.165c-0.003-0.002-0.005-0.004-0.008-0.006 c-0.005-0.003-0.010-0.004-0.015-0.006c-0.099-0.054-0.17-0.081-0.17-0.081l 0.005,0.012c-0.161-0.066-0.331-0.113-0.514-0.113 c-0.814,0-1.473,0.685-1.473,1.53c0,0.845, 0.659,1.53, 1.473,1.53c 0.261,0, 0.502-0.076, 0.715-0.2 c-0.073,0.818-0.485,2.011-1.995,3.227c-0.212,0.171-0.25,0.487-0.086,0.706c 0.096,0.128, 0.239,0.195, 0.383,0.195 c 0.104,0, 0.208-0.034, 0.297-0.106c 1.853-1.495, 2.316-3.031, 2.378-4.057c 0.106-1.312-0.293-2.002-0.656-2.362 C 11.323,5.457, 11.292,5.419, 11.255,5.388z"></path></g></svg>