<?xml version="1.0" encoding="utf-8"?> <!-- Generator: IcoMoon.io --> <!DOCTYPE svg PUBLIC "-//W3C//DTD SVG 1.1//EN" "http://www.w3.org/Graphics/SVG/1.1/DTD/svg11.dtd"> <svg width="16" height="16" viewBox="0 0 16 16" xmlns="http://www.w3.org/2000/svg" xmlns:xlink="http://www.w3.org/1999/xlink" fill="#000000"><g><path d="M 15,5l-2,0 c0,0-0.578,0-1-1c-0.215-0.509-0.448-1-1-1L 7,3 C 6.448,3, 6.208,3.488, 6,4C 5.594,5, 5,5, 5,5L 4,5 c0-0.552-0.448-1-1-1L 2,4 C 1.448,4, 1,4.448, 1,5C 0.448,5,0,5.448,0,6l0,2 l 5.555,0 C 6.248,6.809, 7.523,6, 9,6s 2.752,0.809, 3.445,2L 16,8 L 16,6 C 16,5.448, 15.552,5, 15,5z M 3.5,7l-2,0 C 1.224,7, 1,6.776, 1,6.5C 1,6.224, 1.224,6, 1.5,6L 2,6 l 1,0 l 0.5,0 C 3.776,6, 4,6.224, 4,6.5 C 4,6.776, 3.776,7, 3.5,7zM 6,10A3,3 720 1 0 12,10A3,3 720 1 0 6,10zM 13,10c0,2.209-1.791,4-4,4c-2.209,0-4-1.791-4-4c0-0.347, 0.058-0.679, 0.141-1L0,9 l0,5 c0,0.552, 0.448,1, 1,1l 14,0 c 0.552,0, 1-0.448, 1-1L 16,9 l-3.141,0 C 12.942,9.321, 13,9.653, 13,10z"></path></g></svg>