<?xml version="1.0" encoding="utf-8"?> <!-- Generator: IcoMoon.io --> <!DOCTYPE svg PUBLIC "-//W3C//DTD SVG 1.1//EN" "http://www.w3.org/Graphics/SVG/1.1/DTD/svg11.dtd"> <svg width="16" height="16" viewBox="0 0 16 16" xmlns="http://www.w3.org/2000/svg" xmlns:xlink="http://www.w3.org/1999/xlink" fill="#000000"><g><path d="M 10.848,6L 8.942,0.664C 8.8,0.266, 8.423,0, 8,0S 7.2,0.266, 7.058,0.664L 5.152,6L 10.848,6 zM 13.348,13L 11.919,9L 4.081,9L 2.652,13 zM 1,14c-0.552,0-1,0.448-1,1c0,0.552, 0.448,1, 1,1l 2,0 l 10,0 l 2,0 c 0.552,0, 1-0.448, 1-1c0-0.552-0.448-1-1-1L 1,14 z"></path></g></svg>