<?xml version="1.0" encoding="utf-8"?> <!-- Generator: IcoMoon.io --> <!DOCTYPE svg PUBLIC "-//W3C//DTD SVG 1.1//EN" "http://www.w3.org/Graphics/SVG/1.1/DTD/svg11.dtd"> <svg width="16" height="16" viewBox="0 0 16 16" xmlns="http://www.w3.org/2000/svg" xmlns:xlink="http://www.w3.org/1999/xlink" fill="#000000"><g><path d="M 13,8c-0.035,0-0.068,0.009-0.102,0.010C 12.965,7.684, 13,7.346, 13,7c0-2.761-2.239-5-5-5S 3,4.239, 3,7 c0,0.017, 0.005,0.033, 0.005,0.050C 1.309,7.292,0,8.737,0,10.5c0,1.762, 1.306,3.205, 3,3.45L 3,14 l 10,0 c 1.657,0, 3-1.343, 3-3S 14.657,8, 13,8z M 13,13L 3.314,13 c-0.055-0.018-0.112-0.032-0.171-0.040C 1.921,12.784, 1,11.726, 1,10.5c0-1.228, 0.923-2.285, 2.146-2.46 c 0.497-0.071, 0.864-0.499, 0.859-1c0-0.030-0.002-0.060-0.005-0.089C 4.027,4.767, 5.811,3, 8,3c 2.206,0, 4,1.794, 4,4 c0,0.272-0.028,0.544-0.082,0.809c-0.062,0.3, 0.018,0.612, 0.216,0.846c 0.19,0.225, 0.47,0.354, 0.764,0.354 c 0.012,0, 0.023,0, 0.035-0.001C 12.955,9.009, 13.002,9.005, 13.041,9C 14.125,9.022, 15,9.911, 15,11C 15,12.103, 14.103,13, 13,13z"></path></g></svg>