<?xml version="1.0" encoding="utf-8"?> <!-- Generator: IcoMoon.io --> <!DOCTYPE svg PUBLIC "-//W3C//DTD SVG 1.1//EN" "http://www.w3.org/Graphics/SVG/1.1/DTD/svg11.dtd"> <svg width="16" height="16" viewBox="0 0 16 16" xmlns="http://www.w3.org/2000/svg" xmlns:xlink="http://www.w3.org/1999/xlink" fill="#000000"><g><path d="M 4,14.929L 4,7.84 l-3.342,3.341C 1.343,12.76, 2.522,14.074, 4,14.929zM 5,15.418C 5.926,15.793, 6.939,16, 8,16c 2.961,0, 5.546-1.609, 6.929-4L 5,12 L 5,15.418 zM 6.66,3.5L 4.148,0.987C 1.675,2.348,0,4.978,0,8c0,0.664, 0.081,1.309, 0.234,1.926L 6.66,3.5zM 11,0.582C 10.073,0.207, 9.061,0, 8,0C 7.054,0, 6.147,0.165, 5.305,0.466L 11,6.16L 11,0.582 zM 12,1.071L 12,11 l 3.418,0 C 15.793,10.073, 16,9.061, 16,8C 16,5.039, 14.391,2.454, 12,1.071z"></path></g></svg>