<?xml version="1.0" encoding="utf-8"?> <!-- Generator: IcoMoon.io --> <!DOCTYPE svg PUBLIC "-//W3C//DTD SVG 1.1//EN" "http://www.w3.org/Graphics/SVG/1.1/DTD/svg11.dtd"> <svg width="16" height="16" viewBox="0 0 16 16" xmlns="http://www.w3.org/2000/svg" xmlns:xlink="http://www.w3.org/1999/xlink" fill="#000000"><g><path d="M 15.308,8.039c0-4.036-3.29-7.309-7.347-7.309c-0.403,0-0.799,0.033-1.183,0.096 c-0.69-0.45-1.511-0.711-2.394-0.711C 1.961,0.115,0,2.078,0,4.5c0,0.881, 0.259,1.7, 0.706,2.387c-0.060,0.376-0.091,0.76-0.091,1.152 c0,4.037, 3.288,7.309, 7.346,7.309c 0.458,0, 0.904-0.045, 1.337-0.123c 0.673,0.418, 1.467,0.661, 2.317,0.661 c 2.423,0, 4.385-1.963, 4.385-4.385c0-0.915-0.28-1.766-0.761-2.47C 15.283,8.706, 15.308,8.375, 15.308,8.039z M 8.648,13.425 c-2.335,0.122-3.427-0.395-4.428-1.334c-1.118-1.049-0.669-2.245, 0.242-2.306c 0.91-0.061, 1.456,1.032, 1.942,1.335 c 0.485,0.303, 2.331,0.993, 3.306-0.122c 1.062-1.213-0.706-1.841-2.002-2.031C 5.858,8.693, 3.522,7.693, 3.704,5.72 C 3.886,3.75, 5.378,2.738, 6.949,2.596c 2.002-0.182, 3.306,0.303, 4.337,1.183c 1.192,1.017, 0.547,2.153-0.212,2.244 c-0.757,0.091-1.606-1.672-3.275-1.698C 6.079,4.298, 4.917,6.115, 7.040,6.631c 2.124,0.516, 4.398,0.728, 5.218,2.669 S 10.985,13.303, 8.648,13.425z"></path></g></svg>