<?xml version="1.0" encoding="utf-8"?> <!-- Generator: IcoMoon.io --> <!DOCTYPE svg PUBLIC "-//W3C//DTD SVG 1.1//EN" "http://www.w3.org/Graphics/SVG/1.1/DTD/svg11.dtd"> <svg width="16.000999450683594" height="16" viewBox="0 0 16.000999450683594 16" xmlns="http://www.w3.org/2000/svg" xmlns:xlink="http://www.w3.org/1999/xlink" fill="#000000"><g><path d="M 11.793,4.722c 0.44,0.333, 0.986,0.532, 1.58,0.532C 14.824,5.254, 16,4.078, 16,2.627 C 16,1.176, 14.824,0, 13.373,0c-1.45,0-2.627,1.176-2.627,2.627c0,0.001,0,0.002,0,0.002L 4.262,5.764 C 3.813,5.406, 3.245,5.19, 2.627,5.19C 1.176,5.19,0,6.367,0,7.817s 1.176,2.627, 2.627,2.627c 0.524,0, 1.012-0.156, 1.422-0.42 l 6.698,3.238c0,0.001,0,0.002,0,0.002c0,1.451, 1.176,2.627, 2.627,2.627c 1.451,0, 2.627-1.176, 2.627-2.627 c0-1.451-1.176-2.627-2.627-2.627c-0.594,0-1.14,0.199-1.58,0.532L 5.244,8.003c 0.003-0.040, 0.005-0.079, 0.006-0.119L 11.793,4.722z"></path></g></svg>