<?xml version="1.0" encoding="utf-8"?> <!-- Generator: IcoMoon.io --> <!DOCTYPE svg PUBLIC "-//W3C//DTD SVG 1.1//EN" "http://www.w3.org/Graphics/SVG/1.1/DTD/svg11.dtd"> <svg width="16" height="16" viewBox="0 0 16 16" xmlns="http://www.w3.org/2000/svg" xmlns:xlink="http://www.w3.org/1999/xlink" fill="#000000"><g><path d="M 13,0L 3,0 C 1.343,0,0,1.343,0,3l0,10 c0,1.657, 1.343,3, 3,3l 10,0 c 1.657,0, 3-1.343, 3-3L 16,3 C 16,1.343, 14.657,0, 13,0z M 1.84,8c0-0.87, 0.192-1.696, 0.534-2.441l 2.938,7.841C 3.257,12.427, 1.84,10.375, 1.84,8z M 8,14c-0.605,0-1.188-0.086-1.74-0.244 l 1.928-5.037l 1.814,4.858c 0.012,0.030, 0.028,0.057, 0.044,0.083C 9.406,13.88, 8.718,14, 8,14z M 8.847,5.187 C 9.218,5.168, 9.552,5.13, 9.552,5.13c 0.333-0.039, 0.293-0.513-0.039-0.495c0,0-0.998,0.076-1.642,0.076 c-0.605,0-1.622-0.076-1.622-0.076C 5.918,4.617, 5.879,5.111, 6.21,5.13c0,0, 0.314,0.038, 0.646,0.056l 0.96,2.562l-1.472,3.939 L 4.225,5.187C 4.596,5.168, 4.93,5.13, 4.93,5.13c 0.332-0.039, 0.293-0.513-0.039-0.495c0,0-0.998,0.076-1.642,0.076 c-0.115,0-0.252-0.003-0.396-0.007C 3.955,3.076, 5.848,2, 8,2c 1.604,0, 3.064,0.598, 4.16,1.575c-0.027-0.002-0.052-0.005-0.080-0.005 c-0.606,0-1.035,0.513-1.035,1.065c0,0.495, 0.293,0.913, 0.605,1.408c 0.235,0.4, 0.402,0.621, 0.402,1.362 c0,0.513-0.202,1.11-0.468,1.94l-0.615,1.999L 8.847,5.187z M 11.096,13.185l 1.882-5.298c 0.351-0.856, 0.468-1.54, 0.468-2.149 c0-0.221-0.014-0.426-0.041-0.617C 13.886,5.976, 14.16,6.957, 14.16,8C 14.16,10.214, 12.928,12.146, 11.096,13.185z"></path></g></svg>