<?xml version="1.0" encoding="utf-8"?> <!-- Generator: IcoMoon.io --> <!DOCTYPE svg PUBLIC "-//W3C//DTD SVG 1.1//EN" "http://www.w3.org/Graphics/SVG/1.1/DTD/svg11.dtd"> <svg width="16" height="16" viewBox="0 0 16 16" xmlns="http://www.w3.org/2000/svg" xmlns:xlink="http://www.w3.org/1999/xlink" fill="#000000"><g><path d="M 14.966,6l-0.878,0 l-0.019,0 C 13.52,6, 13.038,5.535, 13,5c0-2.854-2.301-5-5.175-5L 5.203,0 C 2.331,0, 0.002,2.313,0,5.167l0,5.669 C0,13.689, 2.331,16, 5.203,16l 5.6,0 C 13.677,16, 16,13.689, 16,10.835L 16,7.173 C 16,6.603, 15.54,6, 14.966,6z M 5,4l 3,0 c 0.55,0, 1,0.45, 1,1S 8.55,6, 8,6L 5,6 C 4.45,6, 4,5.55, 4,5S 4.45,4, 5,4z M 11,12L 5,12 c-0.55,0-1-0.45-1-1 s 0.45-1, 1-1l 6,0 c 0.55,0, 1,0.45, 1,1S 11.55,12, 11,12z"></path></g></svg>