<?xml version="1.0" encoding="utf-8"?> <!-- Generator: IcoMoon.io --> <!DOCTYPE svg PUBLIC "-//W3C//DTD SVG 1.1//EN" "http://www.w3.org/Graphics/SVG/1.1/DTD/svg11.dtd"> <svg width="16" height="16" viewBox="0 0 16 16" xmlns="http://www.w3.org/2000/svg" xmlns:xlink="http://www.w3.org/1999/xlink" fill="#000000"><g><path d="M 13,0L 3,0 C 1.343,0,0,1.343,0,3l0,10 c0,1.657, 1.343,3, 3,3l 10,0 c 1.657,0, 3-1.343, 3-3L 16,3 C 16,1.343, 14.657,0, 13,0z M 10.999,7.4L 8.6,7.4 L 8.599,9.595c0,0.557-0.007,0.878, 0.052,1.036c 0.059,0.157, 0.205,0.32, 0.365,0.414 c 0.213,0.128, 0.455,0.191, 0.728,0.191c 0.486,0, 0.773-0.064, 1.254-0.38L 10.998,12.3 c-0.41,0.193-0.767,0.305-1.1,0.383 C 9.566,12.761, 9.207,12.8, 8.82,12.8c-0.439,0-0.698-0.055-1.035-0.166c-0.337-0.111-0.625-0.27-0.863-0.474 c-0.239-0.205-0.403-0.424-0.496-0.655c-0.092-0.231-0.138-0.566-0.138-1.005L 6.288,7.134 L 5.001,7.134 l0-1.36 c 0.377-0.122, 0.799-0.298, 1.067-0.527c 0.269-0.229, 0.485-0.503, 0.648-0.824C 6.878,4.104, 6.99,3.695, 7.052,3.2L 8.6,3.2 l0,2.4 l 2.399,0 L 10.999,7.4 z"></path></g></svg>