<?xml version="1.0" encoding="utf-8"?> <!-- Generator: IcoMoon.io --> <!DOCTYPE svg PUBLIC "-//W3C//DTD SVG 1.1//EN" "http://www.w3.org/Graphics/SVG/1.1/DTD/svg11.dtd"> <svg width="16" height="16" viewBox="0 0 16 16" xmlns="http://www.w3.org/2000/svg" xmlns:xlink="http://www.w3.org/1999/xlink" fill="#000000"><g><path d="M 5.148,12.168c0,0.731, 0.077,1.29, 0.23,1.675c 0.154,0.385, 0.428,0.749, 0.826,1.091 c 0.396,0.34, 0.876,0.605, 1.438,0.79C 8.205,15.908, 8.635,16, 9.367,16c 0.644,0, 1.243-0.065, 1.798-0.194 c 0.554-0.13, 1.15-0.318, 1.833-0.639l0-2.406 c-0.801,0.527-1.28,0.634-2.090,0.634c-0.455,0-0.859-0.106-1.214-0.319 c-0.267-0.157-0.511-0.429-0.609-0.69c-0.099-0.263-0.087-0.798-0.087-1.727L 9,7l 3.999,0 L 12.999,4 L 9,4 L 9,0 l-2.58,0 C 6.318,0.825, 6.13,1.506, 5.859,2.039c-0.271,0.535-0.631,0.992-1.080,1.374C 4.333,3.794, 3.63,4.087, 3.002,4.291L 3.002,7 l 2.147,0 L 5.149,12.168 z"></path></g></svg>