<?xml version="1.0" encoding="utf-8"?> <!-- Generator: IcoMoon.io --> <!DOCTYPE svg PUBLIC "-//W3C//DTD SVG 1.1//EN" "http://www.w3.org/Graphics/SVG/1.1/DTD/svg11.dtd"> <svg width="16" height="16" viewBox="0 0 16 16" xmlns="http://www.w3.org/2000/svg" xmlns:xlink="http://www.w3.org/1999/xlink" fill="#000000"><g><path d="M 13,0L 3,0 C 1.343,0,0,1.343,0,3l0,10 c0,1.657, 1.343,3, 3,3l 10,0 c 1.657,0, 3-1.343, 3-3L 16,3 C 16,1.343, 14.657,0, 13,0z M 9.543,3.991l 2.648,4.588L 9.106,8.579 L 6.457,3.991L 9.543,3.991 z M 3.372,9.336L 6.019,4.75l 1.542,2.673l-2.647,4.586L 3.372,9.336z M 11.085,12.009L 5.982,12.009 l 1.542-2.673l 5.104,0 L 11.085,12.009z"></path></g></svg>