<?xml version="1.0" encoding="utf-8"?> <!-- Generator: IcoMoon.io --> <!DOCTYPE svg PUBLIC "-//W3C//DTD SVG 1.1//EN" "http://www.w3.org/Graphics/SVG/1.1/DTD/svg11.dtd"> <svg width="16" height="16" viewBox="0 0 16 16" xmlns="http://www.w3.org/2000/svg" xmlns:xlink="http://www.w3.org/1999/xlink" fill="#000000"><g><path d="M 9.864,8.601c 0.669,1.838, 0.941,3.335, 0.993,3.646c 1.147-0.776, 1.964-2.005, 2.192-3.428 C 12.875,8.764, 11.467,8.344, 9.864,8.601zM 8.873,8.849c-2.884,1.005-3.92,3.006-4.012,3.194c 0.867,0.676, 1.957,1.079, 3.139,1.079 c 0.709,0.001, 1.385-0.144, 1.998-0.406c-0.076-0.449-0.373-2.013-1.091-3.878C 8.895,8.841, 8.884,8.845, 8.873,8.849zM 9.102,6.79c 0.119,0.244, 0.233,0.492, 0.339,0.741c 0.037,0.088, 0.074,0.177, 0.11,0.264 c 1.702-0.214, 3.393,0.129, 3.561,0.165c-0.010-1.207-0.442-2.316-1.154-3.186C 11.851,4.919, 10.994,6.018, 9.102,6.79zM 8.357,8.052C 8.424,8.031, 8.491,8.010, 8.558,7.992C 8.43,7.701, 8.29,7.41, 8.144,7.124 C 5.59,7.888, 3.111,7.856, 2.887,7.851C 2.886,7.903, 2.885,7.955, 2.885,8.007c 0.001,1.314, 0.498,2.513, 1.315,3.42 C 4.316,11.229, 5.719,8.905, 8.357,8.052zM 7.722,6.337C 6.874,4.83, 5.961,3.564, 5.826,3.379C 4.395,4.054, 3.325,5.373, 2.994,6.96 C 3.223,6.963, 5.33,6.972, 7.722,6.337zM 11.39,4.182C 10.487,3.381, 9.3,2.893, 8,2.893c-0.412,0-0.814,0.049-1.198,0.142 C 6.943,3.225, 7.872,4.49, 8.71,6.029C 10.529,5.348, 11.298,4.313, 11.39,4.182zM 8,0C 3.582,0,0,3.582,0,8s 3.582,8, 8,8s 8-3.582, 8-8C 16,3.581, 12.418,0, 8,0z M 8,13.987 c-3.301,0-5.987-2.686-5.987-5.987c0-3.301, 2.686-5.987, 5.987-5.987S 13.987,4.699, 13.987,8C 13.987,11.301, 11.301,13.987, 8,13.987z"></path></g></svg>