<?xml version="1.0" encoding="utf-8"?> <!-- Generator: IcoMoon.io --> <!DOCTYPE svg PUBLIC "-//W3C//DTD SVG 1.1//EN" "http://www.w3.org/Graphics/SVG/1.1/DTD/svg11.dtd"> <svg width="16" height="16" viewBox="0 0 16 16" xmlns="http://www.w3.org/2000/svg" xmlns:xlink="http://www.w3.org/1999/xlink" fill="#000000"><g><path d="M 4.286,14.551c 2.65,0, 4.114-1.504, 4.114-3.016c0-1.212-0.358-1.939-1.464-2.721 C 6.558,8.546, 5.834,7.895, 5.834,7.512c0-0.449, 0.128-0.67, 0.804-1.198C 7.33,5.773, 7.82,5.012, 7.82,4.128 c0-1.053-0.469-2.080-1.35-2.418l 1.327,0 l 0.938-0.677c0,0-3.14,0-4.187,0c-1.876,0-3.642,1.422-3.642,3.069 c0,1.683, 1.279,3.042, 3.189,3.042c 0.133,0, 0.262-0.003, 0.388-0.012C 4.359,7.369, 4.27,7.636, 4.27,7.914 c0,0.468, 0.252,0.847, 0.57,1.157c-0.24,0-0.473,0.007-0.726,0.007C 1.789,9.077,0,10.558,0,12.093 C0,13.605, 1.962,14.551, 4.286,14.551z M 4.7,6.717C 3.621,6.685, 2.596,5.51, 2.41,4.094C 2.224,2.677, 2.947,1.593, 4.025,1.625 c 1.078,0.032, 2.104,1.169, 2.29,2.585C 6.502,5.627, 5.778,6.749, 4.7,6.717z M 4.557,9.468c 0.375,0.004, 0.725,0.064, 1.042,0.167 c 0.872,0.605, 1.498,0.948, 1.674,1.64c 0.033,0.14, 0.051,0.284, 0.051,0.432c0,1.222-0.787,2.177-3.046,2.177 c-1.607,0-2.767-1.017-2.767-2.239C 1.511,10.447, 2.95,9.451, 4.557,9.468zM 13,4L 13,1.033L 12,1.033L 12,4L 9,4L 9,5L 12,5L 12,8.033L 13,8.033L 13,5L 16,5L 16,4 z"></path></g></svg>