<?xml version="1.0" encoding="utf-8"?> <!-- Generator: IcoMoon.io --> <!DOCTYPE svg PUBLIC "-//W3C//DTD SVG 1.1//EN" "http://www.w3.org/Graphics/SVG/1.1/DTD/svg11.dtd"> <svg width="16" height="16" viewBox="0 0 16 16" xmlns="http://www.w3.org/2000/svg" xmlns:xlink="http://www.w3.org/1999/xlink" fill="#000000"><g><path d="M 13,0L 3,0 C 1.343,0,0,1.343,0,3l0,10 c0,1.657, 1.343,3, 3,3l 10,0 c 1.657,0, 3-1.343, 3-3L 16,3 C 16,1.343, 14.657,0, 13,0z M 8.552,9.27L 7.287,6.989c 0.548-0.094, 1.022-0.118, 1.433-0.094l 0.718,1.147l 1.72-0.417c-0.676-0.662-1.911-1.284-4.169-0.882 C 6.939,6.752, 6.89,6.762, 6.842,6.771l 1.396,2.585l-5.027,1.381c-0.109-0.169-0.197-0.349-0.262-0.538 C 2.624,9.258, 2.891,8.292, 3.567,7.525c 0.409-0.459, 0.977-0.841, 1.668-1.108L 4.812,5.531c 0.376-0.12, 0.783-0.21, 1.215-0.268 l 0.444,0.823C 6.519,6.078, 6.567,6.070, 6.616,6.063c 1.337-0.202, 2.643-0.214, 3.848,0.069c 1.229,0.242, 2.357,0.779, 2.877,1.382 c 0.105,0.121, 0.184,0.247, 0.238,0.376L 8.552,9.27zM 4.648,9.202l 1.72-0.417L 5.599,7.177C 4.617,7.703, 4.493,8.494, 4.648,9.202z"></path></g></svg>