<?xml version="1.0" encoding="utf-8"?> <!-- Generator: IcoMoon.io --> <!DOCTYPE svg PUBLIC "-//W3C//DTD SVG 1.1//EN" "http://www.w3.org/Graphics/SVG/1.1/DTD/svg11.dtd"> <svg width="16" height="16" viewBox="0 0 16 16" xmlns="http://www.w3.org/2000/svg" xmlns:xlink="http://www.w3.org/1999/xlink" fill="#000000"><g><path d="M 0.006,0l0,3.068 C 7.128,3.068, 12.924,8.87, 12.924,16L 16,16 C 16,7.18, 8.824,0, 0.006,0zM 7.482,16l 3.080,0 c 0.001-5.826-4.738-10.565-10.56-10.565l0,3.067 c 1.997,0, 3.874,0.781, 5.288,2.196 C 6.702,12.109, 7.482,13.995, 7.482,16zM 2.13,15.98c 1.179,0, 2.133-0.948, 2.133-2.122c-0.001-1.167-0.954-2.126-2.133-2.126 C 0.955,11.732,0,12.69,0,13.858C0,15.032, 0.955,15.98, 2.13,15.98z"></path></g></svg>