<?xml version="1.0" encoding="utf-8"?> <!-- Generator: IcoMoon.io --> <!DOCTYPE svg PUBLIC "-//W3C//DTD SVG 1.1//EN" "http://www.w3.org/Graphics/SVG/1.1/DTD/svg11.dtd"> <svg width="16" height="16" viewBox="0 0 16 16" xmlns="http://www.w3.org/2000/svg" xmlns:xlink="http://www.w3.org/1999/xlink" fill="#000000"><g><path d="M 8,0C 3.582,0,0,3.582,0,8s 3.582,8, 8,8s 8-3.582, 8-8C 16,3.581, 12.418,0, 8,0z M 8,2 c 0.796,0, 1.555,0.155, 2.25,0.436L 10.25,6.62 L 5.979,2.349C 6.61,2.124, 7.291,2, 8,2z M 2.175,9.444C 2.061,8.982, 2,8.498, 2,8 c0-2.267, 1.256-4.239, 3.111-5.26l 1.884,1.885L 2.175,9.444z M 5,13.197c-1.109-0.641-1.993-1.627-2.506-2.811L 5,7.88L 5,13.197 z M 8,14 c-0.796,0-1.555-0.155-2.25-0.437L 5.75,11 l 7.447,0 C 12.159,12.793, 10.221,14, 8,14z M 13.563,10.25L 11,10.25 L 11,2.803 C 12.793,3.841, 14,5.779, 14,8 C 14,8.796, 13.845,9.555, 13.563,10.25z"></path></g></svg>