<?xml version="1.0" encoding="utf-8"?> <!-- Generator: IcoMoon.io --> <!DOCTYPE svg PUBLIC "-//W3C//DTD SVG 1.1//EN" "http://www.w3.org/Graphics/SVG/1.1/DTD/svg11.dtd"> <svg width="16" height="16" viewBox="0 0 16 16" xmlns="http://www.w3.org/2000/svg" xmlns:xlink="http://www.w3.org/1999/xlink" fill="#000000"><g><path d="M 11,7.842L 9.937,8.217L 9,7.842L 9,9.78 C 9,11.654, 10.346,13, 12,13s 3-1.346, 3-3L 15,8 l-2,0 l0,2 c0,0.551-0.449,1-1,1 c-0.551,0-1-0.449-1-1.219L 11,7.842 zM 4,13c 1.654,0, 3-1.346, 3-3L 7,6 c0-0.551, 0.449-1, 1-1C 8.55,5, 9,5.448, 9,5.78L 9,6.75 l 0.938,0.375L 11,6.75L 11,5.78 C 11,4.345, 9.654,3, 8,3S 5,4.345, 5,6l0,4 c0,0.551-0.449,1-1,1c-0.551,0-1-0.449-1-1L 3,8 L 1,8 l0,2 C 1,11.654, 2.346,13, 4,13z"></path></g></svg>