<?xml version="1.0" encoding="utf-8"?> <!-- Generator: IcoMoon.io --> <!DOCTYPE svg PUBLIC "-//W3C//DTD SVG 1.1//EN" "http://www.w3.org/Graphics/SVG/1.1/DTD/svg11.dtd"> <svg width="16" height="16" viewBox="0 0 16 16" xmlns="http://www.w3.org/2000/svg" xmlns:xlink="http://www.w3.org/1999/xlink" fill="#000000"><g><path d="M 13,0L 3,0 C 1.343,0,0,1.343,0,3l0,10 c0,1.657, 1.343,3, 3,3l 10,0 c 1.657,0, 3-1.343, 3-3L 16,3 C 16,1.343, 14.657,0, 13,0z M 6,11.875L 4,11.875 l0-7 l 2,0 L 6,11.875 z M 5.062,4.446c-0.518,0-0.937-0.42-0.937-0.938c0-0.518, 0.42-0.938, 0.937-0.938 C 5.58,2.571, 6,2.991, 6,3.508C 6,4.026, 5.58,4.446, 5.062,4.446z M 13,11.875l-2,0 L 11,7.547 c0-0.507-0.145-0.862-0.768-0.862 C 9.199,6.685, 9,7.547, 9,7.547l0,4.328 L 7,11.875 l0-7 l 2,0 l0,0.669 c 0.286-0.219, 1-0.668, 2-0.668c 0.649,0, 2,0.388, 2,2.732L 13,11.875 z"></path></g></svg>