<?xml version="1.0" encoding="utf-8"?> <!-- Generator: IcoMoon.io --> <!DOCTYPE svg PUBLIC "-//W3C//DTD SVG 1.1//EN" "http://www.w3.org/Graphics/SVG/1.1/DTD/svg11.dtd"> <svg width="16" height="16" viewBox="0 0 16 16" xmlns="http://www.w3.org/2000/svg" xmlns:xlink="http://www.w3.org/1999/xlink" fill="#000000"><g><path d="M 8,0C 3.582,0,0,3.582,0,8s 3.582,8, 8,8s 8-3.582, 8-8S 12.418,0, 8,0z M 1.143,8c0-0.968, 0.214-1.888, 0.594-2.718 l 3.271,8.728C 2.72,12.928, 1.143,10.643, 1.143,8z M 8,14.679c-0.673,0-1.322-0.096-1.937-0.272L 8.12,8.584l 2.107,5.624 c 0.014,0.033, 0.031,0.064, 0.049,0.093C 9.565,14.545, 8.799,14.679, 8,14.679z M 8.943,4.869c 0.413-0.021, 0.785-0.063, 0.785-0.063 c 0.37-0.043, 0.326-0.571-0.043-0.551c0,0-1.111,0.085-1.827,0.085c-0.673,0-1.806-0.085-1.806-0.085 C 5.682,4.234, 5.639,4.784, 6.008,4.806c0,0, 0.35,0.042, 0.719,0.063L 7.795,7.72l-1.501,4.383L 3.798,4.869 c 0.414-0.021, 0.785-0.063, 0.785-0.063c 0.369-0.043, 0.326-0.571-0.043-0.551c0,0-1.111,0.085-1.827,0.085 c-0.128,0-0.28-0.003-0.441-0.008C 3.497,2.519, 5.605,1.321, 8,1.321c 1.785,0, 3.41,0.665, 4.631,1.753 c-0.030-0.002-0.058-0.006-0.089-0.006c-0.674,0-1.152,0.571-1.152,1.185c0,0.551, 0.326,1.016, 0.673,1.567 c 0.262,0.446, 0.566,1.017, 0.566,1.842c0,0.571-0.225,1.235-0.521,2.16l-0.685,2.225L 8.943,4.869z M 14.857,8 c0,2.464-1.371,4.615-3.41,5.771l 2.095-5.897c 0.391-0.953, 0.521-1.714, 0.521-2.392c0-0.246-0.016-0.474-0.046-0.687 C 14.552,5.747, 14.857,6.839, 14.857,8z"></path></g></svg>