<?xml version="1.0" encoding="utf-8"?> <!-- Generator: IcoMoon.io --> <!DOCTYPE svg PUBLIC "-//W3C//DTD SVG 1.1//EN" "http://www.w3.org/Graphics/SVG/1.1/DTD/svg11.dtd"> <svg width="16.001998901367188" height="16" viewBox="0 0 16.001998901367188 16" xmlns="http://www.w3.org/2000/svg" xmlns:xlink="http://www.w3.org/1999/xlink" fill="#000000"><g><path d="M 15.559,1.74c-0.634,0.376-1.337,0.649-2.085,0.797C 12.875,1.898, 12.022,1.5, 11.078,1.5 c-1.813,0-3.283,1.47-3.283,3.282c0,0.257, 0.029,0.508, 0.085,0.748c-2.728-0.137-5.147-1.444-6.766-3.43 C 0.831,2.584, 0.67,3.148, 0.67,3.75c0,1.139, 0.58,2.144, 1.46,2.732C 1.592,6.464, 1.086,6.316, 0.643,6.070c0,0.014,0,0.027,0,0.041 c0,1.59, 1.132,2.917, 2.633,3.219C 3.001,9.405, 2.711,9.445, 2.411,9.445c-0.212,0-0.417-0.021-0.618-0.059 c 0.418,1.304, 1.63,2.253, 3.066,2.28c-1.123,0.88-2.539,1.405-4.077,1.405c-0.265,0-0.526-0.016-0.783-0.046 C 1.452,13.956, 3.177,14.5, 5.031,14.5c 6.038,0, 9.34-5.002, 9.34-9.34c0-0.142-0.003-0.284-0.010-0.425 c 0.643-0.461, 1.2-1.039, 1.64-1.697c-0.589,0.261-1.221,0.438-1.885,0.517C 14.794,3.149, 15.314,2.505, 15.559,1.74z"></path></g></svg>