<?xml version="1.0" encoding="utf-8"?> <!-- Generator: IcoMoon.io --> <!DOCTYPE svg PUBLIC "-//W3C//DTD SVG 1.1//EN" "http://www.w3.org/Graphics/SVG/1.1/DTD/svg11.dtd"> <svg width="16" height="16" viewBox="0 0 16 16" xmlns="http://www.w3.org/2000/svg" xmlns:xlink="http://www.w3.org/1999/xlink" fill="#000000"><g><path d="M 8,0C 3.589,0,0,3.589,0,8s 3.589,8, 8,8s 8-3.589, 8-8S 12.411,0, 8,0z M 8,1.177c 1.737,0, 3.323,0.651, 4.53,1.722 c-0.123,0.175-1.151,1.557-3.581,2.468c-1.12-2.057-2.361-3.747-2.55-4C 6.913,1.243, 7.449,1.177, 8,1.177z M 5.095,1.826 c 0.18,0.247, 1.401,1.939, 2.533,3.952C 4.432,6.627, 1.617,6.615, 1.311,6.611C 1.754,4.49, 3.183,2.728, 5.095,1.826z M 1.166,8.010 c0-0.070, 0.001-0.14, 0.003-0.209C 1.468,7.808, 4.78,7.85, 8.192,6.829c 0.196,0.383, 0.382,0.772, 0.554,1.16 c-0.090,0.025-0.18,0.052-0.269,0.081c-3.524,1.139-5.399,4.244-5.554,4.509C 1.832,11.368, 1.167,9.765, 1.166,8.010z M 7.999,14.843 c-1.579,0-3.035-0.539-4.194-1.442c 0.123-0.251, 1.507-2.924, 5.361-4.267c 0.015-0.005, 0.030-0.010, 0.045-0.015 c 0.96,2.493, 1.356,4.582, 1.458,5.182C 9.849,14.65, 8.947,14.844, 7.999,14.843z M 11.818,13.675c-0.070-0.416-0.433-2.416-1.327-4.872 c 2.141-0.343, 4.022,0.218, 4.256,0.292C 14.442,10.996, 13.351,12.638, 11.818,13.675z M 10.073,7.726 c-0.048-0.117-0.097-0.235-0.147-0.353C 9.784,7.040, 9.632,6.709, 9.473,6.383C 12,5.352, 13.145,3.884, 13.289,3.689 c 0.952,1.163, 1.528,2.644, 1.542,4.257C 14.606,7.898, 12.347,7.44, 10.073,7.726z"></path></g></svg>