<?xml version="1.0" encoding="utf-8"?> <!-- Generator: IcoMoon.io --> <!DOCTYPE svg PUBLIC "-//W3C//DTD SVG 1.1//EN" "http://www.w3.org/Graphics/SVG/1.1/DTD/svg11.dtd"> <svg width="16" height="16" viewBox="0 0 16 16" xmlns="http://www.w3.org/2000/svg" xmlns:xlink="http://www.w3.org/1999/xlink" fill="#000000"><g><path d="M 7.058,5.165c-0.922,0-1.84,0.112-2.731,0.333C 4.032,5.571, 3.853,5.927, 3.926,6.221 s 0.371,0.474, 0.666,0.401c 0.804-0.199, 1.634-0.3, 2.467-0.3c 1.598,0, 3.129,0.359, 4.55,1.068c 0.079,0.039, 0.162,0.058, 0.245,0.058 c 0.202,0, 0.396-0.169, 0.493-0.362c 0.135-0.271, 0.025-0.602-0.247-0.737C 10.524,5.563, 8.828,5.165, 7.058,5.165zM 7.058,9.816c-0.743,0-1.477,0.111-2.182,0.328c-0.218,0.067-0.339,0.529-0.272,0.746 c 0.067,0.218, 0.298,0.34, 0.516,0.272c 0.625-0.194, 1.278-0.292, 1.938-0.292c 1.102,0, 2.193,0.28, 3.154,0.809 c 0.063,0.035, 0.131,0.051, 0.199,0.051c 0.146,0, 0.287-0.077, 0.361-0.214c 0.11-0.199, 0.038-0.681-0.162-0.791 C 9.528,10.131, 8.299,9.816, 7.058,9.816zM 11.329,8.609c-1.309-0.68-2.786-1.040-4.27-1.040c-0.828,0-1.652,0.11-2.447,0.327 c-0.256,0.070-0.407,0.507-0.337,0.763c 0.070,0.256, 0.334,0.407, 0.591,0.337c 0.712-0.194, 1.451-0.293, 2.193-0.293 c 1.35,0, 2.637,0.314, 3.827,0.932c 0.071,0.037, 0.146,0.054, 0.221,0.054c 0.174,0, 0.341-0.268, 0.427-0.432 C 11.656,9.022, 11.564,8.731, 11.329,8.609zM 8,0C 3.582,0,0,3.582,0,8s 3.582,8, 8,8s 8-3.582, 8-8C 16,3.581, 12.418,0, 8,0z M 8,14c-3.314,0-6-2.686-6-6 c0-3.314, 2.686-6, 6-6s 6,2.686, 6,6C 14,11.314, 11.314,14, 8,14z"></path></g></svg>