<?xml version="1.0" encoding="utf-8"?> <!-- Generator: IcoMoon.io --> <!DOCTYPE svg PUBLIC "-//W3C//DTD SVG 1.1//EN" "http://www.w3.org/Graphics/SVG/1.1/DTD/svg11.dtd"> <svg width="16" height="16.323001861572266" viewBox="0 0 16 16.323001861572266" xmlns="http://www.w3.org/2000/svg" xmlns:xlink="http://www.w3.org/1999/xlink" fill="#000000"><g><path d="M 4.030,9.253c 0.773-1.367-0.249-1.667-0.409-2.658c-0.655-4.050, 4.672-6.816, 7.462-3.986 c 1.93,1.96, 0.659,7.986-2.453,7.36C 5.649,9.37, 10.090,4.573, 7.711,3.632C 5.777,2.866, 4.75,5.972, 5.667,7.516 C 5.129,10.171, 3.971,12.671, 4.44,16c 1.52-1.103, 2.033-3.216, 2.453-5.419c 0.764,0.465, 1.173,0.948, 2.147,1.023 c 3.593,0.279, 5.601-3.587, 5.109-7.155c-0.436-3.162-3.589-4.772-6.951-4.395c-2.658,0.298-5.308,2.447-5.418,5.52 C 1.713,7.45, 2.245,8.858, 4.030,9.253z"></path></g></svg>