<?xml version="1.0" encoding="utf-8"?> <!-- Generator: IcoMoon.io --> <!DOCTYPE svg PUBLIC "-//W3C//DTD SVG 1.1//EN" "http://www.w3.org/Graphics/SVG/1.1/DTD/svg11.dtd"> <svg width="16" height="16" viewBox="0 0 16 16" xmlns="http://www.w3.org/2000/svg" xmlns:xlink="http://www.w3.org/1999/xlink" fill="#000000"><g><path d="M 8,0C 3.582,0,0,3.582,0,8s 3.582,8, 8,8s 8-3.582, 8-8C 16,3.581, 12.418,0, 8,0z M 8.284,3.992 C 8.37,3.797, 8.486,3.625, 8.633,3.478c 0.148-0.148, 0.318-0.264, 0.514-0.35C 9.342,3.042, 9.555,3, 9.782,3 c 0.229,0, 0.44,0.042, 0.635,0.128c 0.195,0.085, 0.366,0.202, 0.513,0.35c 0.148,0.147, 0.265,0.319, 0.35,0.514 c 0.086,0.195, 0.129,0.406, 0.129,0.635c0,0.229-0.043,0.44-0.129,0.635c-0.085,0.195-0.202,0.366-0.35,0.514 c-0.148,0.147-0.318,0.264-0.513,0.35c-0.195,0.085-0.406,0.128-0.635,0.128c-0.228,0-0.44-0.043-0.635-0.128 c-0.195-0.086-0.366-0.202-0.514-0.35C 8.486,5.628, 8.37,5.457, 8.284,5.262C 8.198,5.067, 8.155,4.855, 8.155,4.627 C 8.155,4.398, 8.198,4.187, 8.284,3.992z M 5.751,3.734c 0.243-0.242, 0.535-0.363, 0.877-0.363c 0.352,0, 0.65,0.121, 0.892,0.363 C 7.763,3.977, 7.884,4.27, 7.884,4.613c0,0.352-0.122,0.649-0.365,0.892C 7.278,5.747, 6.98,5.868, 6.628,5.868 c-0.341,0-0.634-0.121-0.877-0.364c-0.243-0.243-0.365-0.54-0.365-0.892C 5.387,4.27, 5.508,3.977, 5.751,3.734z M 3.568,3.963 c 0.185-0.186, 0.411-0.279, 0.677-0.279c 0.267,0, 0.49,0.093, 0.671,0.279c 0.18,0.185, 0.27,0.406, 0.27,0.663 c0,0.267-0.091,0.492-0.27,0.678C 4.735,5.49, 4.512,5.583, 4.245,5.583c-0.266,0-0.492-0.093-0.677-0.278 C 3.382,5.119, 3.289,4.893, 3.289,4.627C 3.289,4.37, 3.382,4.148, 3.568,3.963z M 12,13L 7.605,13 l0-2 L 4.852,11 L 4.852,9 L 3.209,9 L 3.209,7.181 c0-0.323-0.008-0.597, 0.216-0.82c 0.223-0.223, 0.497-0.335, 0.82-0.335c 0.276,0, 0.515,0.083, 0.714,0.25 c 0.2,0.167, 0.332,0.373, 0.4,0.621c 0.161-0.19, 0.352-0.337, 0.57-0.443c 0.219-0.104, 0.452-0.157, 0.699-0.157 c 0.39,0, 0.73,0.117, 1.021,0.35c 0.29,0.233, 0.483,0.526, 0.578,0.877c 0.2-0.19, 0.432-0.343, 0.7-0.456 c 0.266-0.114, 0.552-0.171, 0.856-0.171c 0.305,0, 0.593,0.057, 0.864,0.171c 0.27,0.114, 0.506,0.271, 0.706,0.471 c 0.2,0.2, 0.359,0.435, 0.477,0.706C 11.949,8.515, 12,8.803, 12,9.108L 12,13 z"></path></g></svg>