<?xml version="1.0" encoding="utf-8"?> <!-- Generator: IcoMoon.io --> <!DOCTYPE svg PUBLIC "-//W3C//DTD SVG 1.1//EN" "http://www.w3.org/Graphics/SVG/1.1/DTD/svg11.dtd"> <svg width="16" height="16" viewBox="0 0 16 16" xmlns="http://www.w3.org/2000/svg" xmlns:xlink="http://www.w3.org/1999/xlink" fill="#000000"><g><path d="M 13,0L 3,0 C 1.343,0,0,1.343,0,3l0,10 c0,1.657, 1.343,3, 3,3l 10,0 c 1.657,0, 3-1.343, 3-3L 16,3 C 16,1.343, 14.657,0, 13,0z M 5.056,10.004c-1.121,0-2.029-0.908-2.029-2.029s 0.908-2.029, 2.029-2.029c 1.121,0, 2.029,0.908, 2.029,2.029 S 6.177,10.004, 5.056,10.004z M 10.965,10.004c-1.121,0-2.029-0.908-2.029-2.029s 0.908-2.029, 2.029-2.029 c 1.121,0, 2.029,0.908, 2.029,2.029S 12.086,10.004, 10.965,10.004z"></path></g></svg>