<?xml version="1.0" encoding="utf-8"?> <!-- Generator: IcoMoon.io --> <!DOCTYPE svg PUBLIC "-//W3C//DTD SVG 1.1//EN" "http://www.w3.org/Graphics/SVG/1.1/DTD/svg11.dtd"> <svg width="16" height="16" viewBox="0 0 16 16" xmlns="http://www.w3.org/2000/svg" xmlns:xlink="http://www.w3.org/1999/xlink" fill="#000000"><g><path d="M 8,0C 3.582,0,0,3.582,0,8s 3.582,8, 8,8s 8-3.582, 8-8C 16,3.581, 12.418,0, 8,0z M 4.315,12.976 c-0.719,0-1.303-0.58-1.303-1.298c0-0.714, 0.584-1.301, 1.303-1.301c 0.721,0, 1.304,0.587, 1.305,1.301 C 5.62,12.396, 5.037,12.976, 4.315,12.976z M 7.589,12.988c0-1.227-0.477-2.38-1.341-3.243C 5.384,8.879, 4.235,8.401, 3.014,8.401L 3.014,6.525 c 3.561,0, 6.46,2.899, 6.46,6.463L 7.589,12.988 z M 10.918,12.987c0-4.362-3.545-7.911-7.902-7.911L 3.016,3.2 c 5.394,0, 9.784,4.392, 9.784,9.787 L 10.918,12.987 z"></path></g></svg>