<?xml version="1.0" encoding="utf-8"?> <!-- Generator: IcoMoon.io --> <!DOCTYPE svg PUBLIC "-//W3C//DTD SVG 1.1//EN" "http://www.w3.org/Graphics/SVG/1.1/DTD/svg11.dtd"> <svg width="16" height="16" viewBox="0 0 16 16" xmlns="http://www.w3.org/2000/svg" xmlns:xlink="http://www.w3.org/1999/xlink" fill="#000000"><g><path d="M 8.006,4L 12,4L 12,8.011L 8.006,8.011zM 13,0L 3,0 C 1.343,0,0,1.343,0,3l0,10 c0,1.657, 1.343,3, 3,3l 10,0 c 1.657,0, 3-1.343, 3-3L 16,3 C 16,1.343, 14.657,0, 13,0z M 13,8.011L 13,12.5 l0,0.144 C 13,12.84, 12.84,13, 12.644,13L 12.5,13 L 8.006,13 L 3.5,13 C 3.224,13, 3,12.776, 3,12.5L 3,8.011 L 3,3.5 L 3,3.356 C 3,3.16, 3.16,3, 3.356,3L 3.5,3 l 4.506,0 L 12.5,3 C 12.776,3, 13,3.224, 13,3.5L 13,8.011 zM 4,8.011L 8.006,8.011L 8.006,12L 4,12z"></path></g></svg>