<?xml version="1.0" encoding="utf-8"?> <!-- Generator: IcoMoon.io --> <!DOCTYPE svg PUBLIC "-//W3C//DTD SVG 1.1//EN" "http://www.w3.org/Graphics/SVG/1.1/DTD/svg11.dtd"> <svg width="16" height="16" viewBox="0 0 16 16" xmlns="http://www.w3.org/2000/svg" xmlns:xlink="http://www.w3.org/1999/xlink" fill="#000000"><g><path d="M 8,0C 3.582,0,0,3.582,0,8s 3.582,8, 8,8s 8-3.582, 8-8C 16,3.581, 12.418,0, 8,0z M 10.169,12.731 c-0.51,0-0.986-0.146-1.39-0.397c-0.26,0.047-0.527,0.074-0.802,0.074c-2.435,0-4.408-1.963-4.408-4.385 c0-0.235, 0.019-0.466, 0.055-0.691C 3.355,6.92, 3.2,6.428, 3.2,5.9c0-1.453, 1.177-2.63, 2.63-2.631c 0.53,0, 1.022,0.157, 1.436,0.427 c 0.23-0.038, 0.468-0.058, 0.71-0.058c 2.434,0, 4.408,1.964, 4.408,4.385c0,0.202-0.015,0.4-0.041,0.595 C 12.632,9.041, 12.8,9.551, 12.8,10.1C 12.8,11.553, 11.623,12.731, 10.169,12.731zM 7.424,7.179c-1.274-0.31-0.577-1.4, 0.455-1.384C 8.881,5.811, 9.39,6.869, 9.844,6.814 c 0.455-0.055, 0.842-0.736, 0.127-1.346C 9.353,4.94, 8.571,4.649, 7.369,4.758C 6.427,4.843, 5.532,5.45, 5.422,6.632 C 5.313,7.815, 6.715,8.416, 7.825,8.581c 0.778,0.114, 1.838,0.491, 1.201,1.219c-0.585,0.669-1.693,0.255-1.984,0.073 C 6.751,9.69, 6.423,9.035, 5.877,9.071c-0.547,0.037-0.816,0.754-0.145,1.384c 0.601,0.563, 1.256,0.874, 2.657,0.8 c 1.402-0.073, 2.658-1.31, 2.166-2.475S 8.698,7.488, 7.424,7.179z"></path></g></svg>