<?xml version="1.0" encoding="utf-8"?> <!-- Generator: IcoMoon.io --> <!DOCTYPE svg PUBLIC "-//W3C//DTD SVG 1.1//EN" "http://www.w3.org/Graphics/SVG/1.1/DTD/svg11.dtd"> <svg width="16" height="16" viewBox="0 0 16 16" xmlns="http://www.w3.org/2000/svg" xmlns:xlink="http://www.w3.org/1999/xlink" fill="#000000"><g><path d="M 15.278,0L 0.722,0 C 0.324,0,0,0.323,0,0.721l0,14.558 C0,15.676, 0.324,16, 0.722,16l 14.556,0 C 15.676,16, 16,15.676, 16,15.279L 16,0.721 C 16,0.323, 15.676,0, 15.278,0z M 10.792,8c0,1.542-1.25,2.792-2.792,2.792S 5.208,9.542, 5.208,8 c0-1.542, 1.25-2.792, 2.792-2.792S 10.792,6.458, 10.792,8z M 14,14L 2,14 L 2,7 l 1.317,0 C 3.248,7.323, 3.208,7.657, 3.208,8 c0,2.642, 2.15,4.792, 4.792,4.792s 4.792-2.15, 4.792-4.792c0-0.343-0.040-0.677-0.109-1L 14,7 L 14,14 z M 14,5l-3,0 L 11,2 l 3,0 L 14,5 z"></path></g></svg>