<?xml version="1.0" encoding="utf-8"?> <!-- Generator: IcoMoon.io --> <!DOCTYPE svg PUBLIC "-//W3C//DTD SVG 1.1//EN" "http://www.w3.org/Graphics/SVG/1.1/DTD/svg11.dtd"> <svg width="16" height="16" viewBox="0 0 16 16" xmlns="http://www.w3.org/2000/svg" xmlns:xlink="http://www.w3.org/1999/xlink" fill="#000000"><g><path d="M 8,0C 3.582,0,0,3.582,0,8s 3.582,8, 8,8s 8-3.582, 8-8C 16,3.581, 12.418,0, 8,0z M 8,5.856 c-0.394,0-0.715,0.321-0.715,0.715l0,2.859 c0,1.182-0.962,2.144-2.144,2.144c-1.182,0-2.144-0.962-2.144-2.144L 2.997,8 l 1.429,0 l0,1.429 c0,0.394, 0.321,0.715, 0.715,0.715c 0.394,0, 0.715-0.321, 0.715-0.715L 5.856,6.571 c0-1.182, 0.962-2.144, 2.144-2.144s 2.144,0.962, 2.144,1.988 l0,0.693 L 9.228,7.375L 8.714,7.107L 8.714,6.414 C 8.714,6.177, 8.393,5.856, 8,5.856z M 13.002,9.429c0,1.182-0.962,2.144-2.144,2.144 s-2.144-0.962-2.144-2.301L 8.714,7.888 l 0.514,0.268l 0.916-0.268l0,1.385 c0,0.55, 0.321,0.871, 0.715,0.871s 0.715-0.321, 0.715-0.715L 11.574,8 l 1.429,0 L 13.003,9.429 z"></path></g></svg>