<?xml version="1.0" encoding="utf-8"?> <!-- Generator: IcoMoon.io --> <!DOCTYPE svg PUBLIC "-//W3C//DTD SVG 1.1//EN" "http://www.w3.org/Graphics/SVG/1.1/DTD/svg11.dtd"> <svg width="16" height="16" viewBox="0 0 16 16" xmlns="http://www.w3.org/2000/svg" xmlns:xlink="http://www.w3.org/1999/xlink" fill="#000000"><g><path d="M 7.898,4.007C 8.286,3.619, 8.481,3.143, 8.481,2.58c0-0.548-0.195-1.017-0.583-1.405 C 7.511,0.788, 7.033,0.594, 6.47,0.594c-0.546,0-1.015,0.194-1.403,0.581C 4.679,1.564, 4.484,2.032, 4.484,2.58 c0,0.563, 0.195,1.039, 0.583,1.427C 5.456,4.395, 5.924,4.589, 6.47,4.589C 7.033,4.589, 7.511,4.395, 7.898,4.007zM 9.679,4.441C 9.915,4.677, 10.189,4.863, 10.501,5c 0.312,0.136, 0.652,0.205, 1.016,0.205 c 0.366,0, 0.704-0.069, 1.016-0.205c 0.312-0.138, 0.585-0.323, 0.822-0.559c 0.236-0.236, 0.423-0.51, 0.56-0.822 c 0.137-0.312, 0.206-0.65, 0.206-1.017c0-0.365-0.068-0.703-0.206-1.016c-0.136-0.312-0.324-0.586-0.56-0.822 c-0.236-0.236-0.509-0.423-0.822-0.559C 12.222,0.068, 11.883,0, 11.517,0c-0.364,0-0.704,0.068-1.016,0.205 c-0.312,0.136-0.586,0.323-0.822,0.559C 9.444,1.001, 9.258,1.275, 9.12,1.587c-0.137,0.312-0.206,0.65-0.206,1.016 c0,0.366, 0.069,0.704, 0.206,1.017C 9.258,3.931, 9.444,4.205, 9.679,4.441zM 2.657,4.133c 0.427,0, 0.784-0.148, 1.074-0.445C 4.020,3.39, 4.164,3.029, 4.164,2.602 c0-0.411-0.145-0.765-0.433-1.061c-0.29-0.297-0.647-0.446-1.074-0.446c-0.425,0-0.788,0.149-1.083,0.446 c-0.298,0.296-0.446,0.65-0.446,1.061c0,0.427, 0.149,0.788, 0.446,1.085C 1.87,3.984, 2.232,4.133, 2.657,4.133zM 14.030,7.261c-0.319-0.32-0.697-0.571-1.13-0.754c-0.435-0.183-0.896-0.274-1.383-0.274 c-0.487,0-0.944,0.091-1.369,0.274C 9.721,6.69, 9.349,6.934, 9.029,7.238c-0.152-0.563-0.461-1.030-0.925-1.404 C 7.639,5.461, 7.095,5.274, 6.47,5.274c-0.396,0-0.768,0.084-1.119,0.251C 5.003,5.694, 4.697,5.929, 4.44,6.233 C 4.331,5.838, 4.12,5.507, 3.8,5.24C 3.481,4.973, 3.1,4.841, 2.657,4.841c-0.517,0-0.955,0.179-1.312,0.536C 0.987,5.734, 1,6.173, 1,6.69 l0,3.201 l 2.629,0 l0,2.621 l 4.405,0 L 8.034,16 l 7.032,0 L 15.066,9.772 c0-0.487-0.081-0.948-0.272-1.381C 14.604,7.957, 14.349,7.58, 14.030,7.261z"></path></g></svg>