<?xml version="1.0" encoding="utf-8"?> <!-- Generator: IcoMoon.io --> <!DOCTYPE svg PUBLIC "-//W3C//DTD SVG 1.1//EN" "http://www.w3.org/Graphics/SVG/1.1/DTD/svg11.dtd"> <svg width="16" height="16" viewBox="0 0 16 16" xmlns="http://www.w3.org/2000/svg" xmlns:xlink="http://www.w3.org/1999/xlink" fill="#000000"><g><path d="M 13,0L 3,0 C 1.343,0,0,1.343,0,3l0,10 c0,1.657, 1.343,3, 3,3l 10,0 c 1.657,0, 3-1.343, 3-3L 16,3 C 16,1.343, 14.657,0, 13,0z M 9.661,9.813c 0.247-0.187, 0.555-0.299, 0.889-0.299c 0.816,0, 1.478,0.661, 1.478,1.478c0,0.816-0.662,1.478-1.478,1.478 c-0.816,0-1.477-0.661-1.477-1.478c0,0,0-0.001,0-0.001L 5.304,9.169c-0.231,0.149-0.505,0.237-0.8,0.237 c-0.816,0-1.478-0.662-1.478-1.478c0-0.816, 0.662-1.478, 1.478-1.478c 0.348,0, 0.667,0.121, 0.92,0.322L 9.072,5.010 c0,0,0-0.001,0-0.001c0-0.816, 0.662-1.478, 1.477-1.478c 0.816,0, 1.478,0.661, 1.478,1.478s-0.662,1.478-1.478,1.478 c-0.334,0-0.641-0.112-0.889-0.299L 5.98,7.966c0,0.022-0.002,0.045-0.003,0.067L 9.661,9.813z"></path></g></svg>