<?xml version="1.0" encoding="utf-8"?> <!-- Generator: IcoMoon.io --> <!DOCTYPE svg PUBLIC "-//W3C//DTD SVG 1.1//EN" "http://www.w3.org/Graphics/SVG/1.1/DTD/svg11.dtd"> <svg width="16" height="16" viewBox="0 0 16 16" xmlns="http://www.w3.org/2000/svg" xmlns:xlink="http://www.w3.org/1999/xlink" fill="#000000"><g><path d="M 8,0C 3.582,0,0,3.582,0,8c0,4.418, 3.582,8, 8,8s 8-3.582, 8-8C 16,3.582, 12.418,0, 8,0z M 11.696,12.69 c-0.1,0.182-0.288,0.285-0.482,0.285c-0.090,0-0.18-0.022-0.265-0.068c-1.281-0.706-2.736-1.079-4.206-1.079 c-0.881,0-1.751,0.131-2.584,0.389c-0.29,0.090-0.598-0.073-0.687-0.363c-0.090-0.29, 0.072-0.905, 0.363-0.995 c 0.939-0.29, 1.918-0.438, 2.909-0.438c 1.655,0, 3.293,0.42, 4.736,1.215C 11.746,11.782, 11.843,12.424, 11.696,12.69z M 12.712,9.676 c-0.114,0.22-0.338,0.577-0.57,0.577c-0.1,0-0.201-0.023-0.295-0.073c-1.587-0.824-3.304-1.242-5.103-1.242 c-0.991,0-1.975,0.131-2.925,0.391c-0.343,0.093-0.695-0.108-0.788-0.45C 2.939,8.537, 3.14,7.954, 3.482,7.861 c 1.060-0.289, 2.158-0.436, 3.262-0.436c 1.979,0, 3.948,0.48, 5.694,1.387C 12.752,8.975, 12.875,9.362, 12.712,9.676z M 13.794,6.78 c-0.129,0.257-0.387,0.483-0.657,0.483c-0.11,0-0.221-0.025-0.326-0.077c-1.895-0.945-3.936-1.423-6.067-1.423 c-1.11,0-2.216,0.135-3.289,0.4c-0.393,0.097-0.79-0.142-0.887-0.535C 2.47,5.236, 2.71,4.761, 3.103,4.664 C 4.29,4.369, 5.515,4.22, 6.744,4.22c 2.36,0, 4.621,0.531, 6.72,1.577C 13.827,5.978, 13.974,6.418, 13.794,6.78z"></path></g></svg>