<?xml version="1.0" encoding="utf-8"?> <!-- Generator: IcoMoon.io --> <!DOCTYPE svg PUBLIC "-//W3C//DTD SVG 1.1//EN" "http://www.w3.org/Graphics/SVG/1.1/DTD/svg11.dtd"> <svg width="16" height="16" viewBox="0 0 16 16" xmlns="http://www.w3.org/2000/svg" xmlns:xlink="http://www.w3.org/1999/xlink" fill="#000000"><g><path d="M 8,0C 3.582,0,0,3.582,0,8s 3.582,8, 8,8s 8-3.582, 8-8C 16,3.581, 12.418,0, 8,0z M 13,12.639 C 13,12.838, 12.838,13, 12.639,13L 3.361,13 C 3.162,13, 3,12.838, 3,12.639L 3,3.361 C 3,3.162, 3.162,3, 3.361,3l 9.278,0 C 12.838,3, 13,3.162, 13,3.361 L 13,12.639 zM 6,8A2,2 720 1 0 10,8A2,2 720 1 0 6,8zM 10,4L 12,4L 12,6L 10,6zM 10.975,8c0,1.641-1.335,2.975-2.975,2.975S 5.025,9.641, 5.025,8c0-0.213, 0.025-0.299, 0.067-0.5L 4,7.5 L 4,12 l 8,0 L 12,7.5 l-1.092,0 C 10.951,7.701, 10.975,7.787, 10.975,8z"></path></g></svg>