<?xml version="1.0" encoding="utf-8"?> <!-- Generator: IcoMoon.io --> <!DOCTYPE svg PUBLIC "-//W3C//DTD SVG 1.1//EN" "http://www.w3.org/Graphics/SVG/1.1/DTD/svg11.dtd"> <svg width="16" height="16" viewBox="0 0 16 16" xmlns="http://www.w3.org/2000/svg" xmlns:xlink="http://www.w3.org/1999/xlink" fill="#000000"><g><path d="M 13,0L 3,0 C 1.343,0,0,1.343,0,3l0,10 c0,1.657, 1.343,3, 3,3l 10,0 c 1.657,0, 3-1.343, 3-3L 16,3 C 16,1.343, 14.657,0, 13,0z M 12.987,9.767c0,1.779-1.448,3.22-3.24,3.22L 6.256,12.987 c-1.79,0-3.244-1.441-3.244-3.219L 3.012,6.234 c 0.001-1.779, 1.453-3.221, 3.244-3.221 l 1.635,0 c 1.792,0, 3.226,1.338, 3.226,3.117c 0.024,0.333, 0.324,0.623, 0.666,0.623l 0.012,0 l 0.547,0 c 0.358,0, 0.645,0.376, 0.645,0.731L 12.987,9.767 zM 9.87,9.247L 6.13,9.247 c-0.343,0-0.623,0.281-0.623,0.623s 0.281,0.623, 0.623,0.623L 9.87,10.493 c 0.343,0, 0.623-0.281, 0.623-0.623S 10.213,9.247, 9.87,9.247zM 6.13,6.753L 8,6.753 c 0.343,0, 0.623-0.281, 0.623-0.623c0-0.343-0.281-0.623-0.623-0.623L 6.13,5.507 c-0.343,0-0.623,0.281-0.623,0.623C 5.506,6.473, 5.787,6.753, 6.13,6.753z"></path></g></svg>