<?xml version="1.0" encoding="utf-8"?> <!-- Generator: IcoMoon.io --> <!DOCTYPE svg PUBLIC "-//W3C//DTD SVG 1.1//EN" "http://www.w3.org/Graphics/SVG/1.1/DTD/svg11.dtd"> <svg width="16.091999053955078" height="16" viewBox="0 0 16.091999053955078 16" xmlns="http://www.w3.org/2000/svg" xmlns:xlink="http://www.w3.org/1999/xlink" fill="#000000"><g><path d="M 13.836,2.523c-3.643-0.245-7.962-0.312-11.672,0C 1.012,2.652, 0.223,4.054, 0.137,5.119 c-0.182,2.237-0.182,3.51,0,5.747c 0.087,1.065, 0.856,2.475, 2.028,2.623c 3.754,0.246, 8.051,0.28, 11.672,0 c 1.134-0.197, 1.941-1.558, 2.028-2.623c 0.182-2.237, 0.182-3.649,0-5.887C 15.777,3.914, 15.141,2.571, 13.836,2.523z M 6,10.83L 6,5.095 l 5,2.868L 6,10.83z"></path></g></svg>