<?xml version="1.0" encoding="utf-8"?> <!-- Generator: IcoMoon.io --> <!DOCTYPE svg PUBLIC "-//W3C//DTD SVG 1.1//EN" "http://www.w3.org/Graphics/SVG/1.1/DTD/svg11.dtd"> <svg width="16" height="16" viewBox="0 0 16 16" xmlns="http://www.w3.org/2000/svg" xmlns:xlink="http://www.w3.org/1999/xlink" fill="#000000"><g><path d="M 1.032,5L 4,5L 4,16L 1.032,16zM 10.087,5.001C 9,5.001, 8.458,5.519, 8,5.87L 8,5 L 5.016,5 l0,11 L 8,16 L 8,9.075 c0,0-0.109-1.379, 1.544-1.379 C 10.54,7.696, 11,8.263, 11,9.075L 11,16 l 3.144,0 L 14.144,9.172 C 14.144,5.422, 11.125,5.001, 10.087,5.001zM 1,2.5A1.5,1.5 720 1 0 4,2.5A1.5,1.5 720 1 0 1,2.5z"></path></g></svg>