<?xml version="1.0" encoding="utf-8"?> <!-- Generator: IcoMoon.io --> <!DOCTYPE svg PUBLIC "-//W3C//DTD SVG 1.1//EN" "http://www.w3.org/Graphics/SVG/1.1/DTD/svg11.dtd"> <svg width="16" height="16" viewBox="0 0 16 16" xmlns="http://www.w3.org/2000/svg" xmlns:xlink="http://www.w3.org/1999/xlink" fill="#000000"><g><path d="M 15,0L 8,0 L 1,0 L 0.712,0 C 0.32,0,0,0.32,0,0.713L0,1 l0,7 l0,7 c0,0.552, 0.448,1, 1,1l 7.011,0 L 15,16 l 0.288,0 C 15.68,16, 16,15.68, 16,15.287L 16,15 L 16,8.023 L 16,1 C 16,0.448, 15.552,0, 15,0z M 8.011,8.023L 8.011,15 L 1,15 L 1,8 l 7,0 L 8,1 l 7,0 l0,7.023 L 8.011,8.023 z"></path></g></svg>