<?xml version="1.0" encoding="utf-8"?> <!-- Generator: IcoMoon.io --> <!DOCTYPE svg PUBLIC "-//W3C//DTD SVG 1.1//EN" "http://www.w3.org/Graphics/SVG/1.1/DTD/svg11.dtd"> <svg width="16.81399917602539" height="16.284000396728516" viewBox="0 0 16.81399917602539 16.284000396728516" xmlns="http://www.w3.org/2000/svg" xmlns:xlink="http://www.w3.org/1999/xlink" fill="#000000"><g><path d="M 9.178,4.777c 1.828-1.097, 2.804,0.446, 1.868,2.193c-0.934,1.746-1.787,2.884-2.234,2.884 c-0.446,0-0.789-1.168-1.3-3.21C 6.984,4.533, 6.987,0.731, 4.791,1.162C 2.721,1.569,0,4.818,0,4.818L 0.65,5.67 c0,0, 1.34-1.056, 1.787-0.528c 0.447,0.528, 2.152,6.906, 2.721,8.082c 0.497,1.032, 1.867,2.396, 3.371,1.422 c 1.502-0.974, 6.497-5.239, 7.392-10.275C 16.814-0.664, 9.91,0.391, 9.178,4.777z"></path></g></svg>