<?xml version="1.0" encoding="utf-8"?> <!-- Generator: IcoMoon.io --> <!DOCTYPE svg PUBLIC "-//W3C//DTD SVG 1.1//EN" "http://www.w3.org/Graphics/SVG/1.1/DTD/svg11.dtd"> <svg width="16.277999877929688" height="16" viewBox="0 0 16.277999877929688 16" xmlns="http://www.w3.org/2000/svg" xmlns:xlink="http://www.w3.org/1999/xlink" fill="#000000"><g><path d="M 11.371,5.224C 9.58,4.804, 7.64,4.822, 5.653,5.122C 5.581,5.133, 5.51,5.144, 5.439,5.156l-0.66-1.223 c-0.643,0.086-1.247,0.22-1.806,0.398l 0.629,1.316C 2.574,6.045, 1.731,6.612, 1.123,7.294c-1.004,1.14-1.401,2.575-0.919,3.973 c 0.097,0.282, 0.228,0.549, 0.39,0.8l 7.47-2.052L 5.99,6.174C 6.061,6.16, 6.134,6.146, 6.208,6.133c 3.354-0.598, 5.189,0.326, 6.194,1.31 l-2.556,0.62L 8.779,6.358c-0.61-0.036-1.314,0.001-2.129,0.14l 1.88,3.389L 16,7.836c-0.081-0.192-0.198-0.379-0.354-0.559 C 14.873,6.382, 13.197,5.584, 11.371,5.224z M 2.73,9.786C 2.499,8.734, 2.683,7.559, 4.143,6.777l 1.143,2.39L 2.73,9.786z"></path></g></svg>