<?xml version="1.0" encoding="utf-8"?> <!-- Generator: IcoMoon.io --> <!DOCTYPE svg PUBLIC "-//W3C//DTD SVG 1.1//EN" "http://www.w3.org/Graphics/SVG/1.1/DTD/svg11.dtd"> <svg width="16" height="16" viewBox="0 0 16 16" xmlns="http://www.w3.org/2000/svg" xmlns:xlink="http://www.w3.org/1999/xlink" fill="#000000"><g><path d="M 8,0C 3.582,0,0,3.582,0,8s 3.582,8, 8,8s 8-3.582, 8-8C 16,3.581, 12.418,0, 8,0z M 5.768,13.383 c-1.771,0-3.265-0.721-3.265-1.873c0-1.169, 1.363-2.298, 3.134-2.297c 0.193,0, 0.37-0.005, 0.553-0.005 C 5.948,8.973, 5.756,8.684, 5.756,8.327c0-0.212, 0.068-0.415, 0.162-0.596C 5.822,7.738, 5.724,7.741, 5.623,7.741 c-1.455,0-2.429-1.035-2.429-2.318c0-1.255, 1.345-2.338, 2.775-2.338c 0.798,0, 3.19,0, 3.19,0L 8.443,3.601L 7.432,3.601 c 0.671,0.258, 1.028,1.040, 1.028,1.842c0,0.673-0.373,1.253-0.9,1.665C 7.045,7.511, 6.948,7.679, 6.948,8.021 c0,0.292, 0.552,0.788, 0.84,0.992c 0.843,0.596, 1.115,1.15, 1.115,2.073C 8.902,12.238, 7.787,13.383, 5.768,13.383z M 14,7.019l-2,0 l0,1.996 l-0.999,0 L 11.001,7.019 L 9,7.019 L 9,6 l 2.001,0 L 11.001,4 L 12,4 l0,2 l 2,0 L 14,7.019 zM 6.769,9.638C 6.527,9.56, 6.26,9.514, 5.975,9.511c-1.224-0.013-2.32,0.746-2.32,1.659 c0,0.931, 0.884,1.706, 2.108,1.706c 1.721,0, 2.32-0.728, 2.32-1.658c0-0.113-0.014-0.222-0.039-0.329 C 7.91,10.361, 7.433,10.099, 6.769,9.638zM 7.314,5.505C 7.172,4.427, 6.391,3.561, 5.57,3.536c-0.821-0.024-1.372,0.801-1.23,1.881 c 0.142,1.079, 0.923,1.974, 1.745,1.998C 6.905,7.44, 7.457,6.585, 7.314,5.505z"></path></g></svg>